G04 #@! TF.GenerationSoftware,KiCad,Pcbnew,5.1.5*
G04 #@! TF.CreationDate,2019-11-29T13:32:31+01:00*
G04 #@! TF.ProjectId,derverbinder,64657276-6572-4626-996e-6465722e6b69,rev?*
G04 #@! TF.SameCoordinates,Original*
G04 #@! TF.FileFunction,Soldermask,Top*
G04 #@! TF.FilePolarity,Negative*
%FSLAX46Y46*%
G04 Gerber Fmt 4.6, Leading zero omitted, Abs format (unit mm)*
G04 Created by KiCad (PCBNEW 5.1.5) date 2019-11-29 13:32:31*
%MOMM*%
%LPD*%
G04 APERTURE LIST*
%ADD10C,0.100000*%
%ADD11C,0.150000*%
%ADD12C,0.300000*%
%ADD13C,0.400000*%
G04 APERTURE END LIST*
D10*
D11*
X177002200Y-166007200D02*
X177002200Y-198007200D01*
X285002200Y-198007200D01*
X285002200Y-166007200D01*
X177002200Y-166007200D01*
D10*
D11*
X10000000Y-10000000D02*
X10000000Y-200007200D01*
X287002200Y-200007200D01*
X287002200Y-10000000D01*
X10000000Y-10000000D01*
D10*
D11*
X12000000Y-12000000D02*
X12000000Y-198007200D01*
X285002200Y-198007200D01*
X285002200Y-12000000D01*
X12000000Y-12000000D01*
D10*
D11*
X60000000Y-12000000D02*
X60000000Y-10000000D01*
D10*
D11*
X110000000Y-12000000D02*
X110000000Y-10000000D01*
D10*
D11*
X160000000Y-12000000D02*
X160000000Y-10000000D01*
D10*
D11*
X210000000Y-12000000D02*
X210000000Y-10000000D01*
D10*
D11*
X260000000Y-12000000D02*
X260000000Y-10000000D01*
D10*
D11*
X36065476Y-11588095D02*
X35322619Y-11588095D01*
X35694047Y-11588095D02*
X35694047Y-10288095D01*
X35570238Y-10473809D01*
X35446428Y-10597619D01*
X35322619Y-10659523D01*
D10*
D11*
X85322619Y-10411904D02*
X85384523Y-10350000D01*
X85508333Y-10288095D01*
X85817857Y-10288095D01*
X85941666Y-10350000D01*
X86003571Y-10411904D01*
X86065476Y-10535714D01*
X86065476Y-10659523D01*
X86003571Y-10845238D01*
X85260714Y-11588095D01*
X86065476Y-11588095D01*
D10*
D11*
X135260714Y-10288095D02*
X136065476Y-10288095D01*
X135632142Y-10783333D01*
X135817857Y-10783333D01*
X135941666Y-10845238D01*
X136003571Y-10907142D01*
X136065476Y-11030952D01*
X136065476Y-11340476D01*
X136003571Y-11464285D01*
X135941666Y-11526190D01*
X135817857Y-11588095D01*
X135446428Y-11588095D01*
X135322619Y-11526190D01*
X135260714Y-11464285D01*
D10*
D11*
X185941666Y-10721428D02*
X185941666Y-11588095D01*
X185632142Y-10226190D02*
X185322619Y-11154761D01*
X186127380Y-11154761D01*
D10*
D11*
X236003571Y-10288095D02*
X235384523Y-10288095D01*
X235322619Y-10907142D01*
X235384523Y-10845238D01*
X235508333Y-10783333D01*
X235817857Y-10783333D01*
X235941666Y-10845238D01*
X236003571Y-10907142D01*
X236065476Y-11030952D01*
X236065476Y-11340476D01*
X236003571Y-11464285D01*
X235941666Y-11526190D01*
X235817857Y-11588095D01*
X235508333Y-11588095D01*
X235384523Y-11526190D01*
X235322619Y-11464285D01*
D10*
D11*
X285941666Y-10288095D02*
X285694047Y-10288095D01*
X285570238Y-10350000D01*
X285508333Y-10411904D01*
X285384523Y-10597619D01*
X285322619Y-10845238D01*
X285322619Y-11340476D01*
X285384523Y-11464285D01*
X285446428Y-11526190D01*
X285570238Y-11588095D01*
X285817857Y-11588095D01*
X285941666Y-11526190D01*
X286003571Y-11464285D01*
X286065476Y-11340476D01*
X286065476Y-11030952D01*
X286003571Y-10907142D01*
X285941666Y-10845238D01*
X285817857Y-10783333D01*
X285570238Y-10783333D01*
X285446428Y-10845238D01*
X285384523Y-10907142D01*
X285322619Y-11030952D01*
D10*
D11*
X60000000Y-198007200D02*
X60000000Y-200007200D01*
D10*
D11*
X110000000Y-198007200D02*
X110000000Y-200007200D01*
D10*
D11*
X160000000Y-198007200D02*
X160000000Y-200007200D01*
D10*
D11*
X210000000Y-198007200D02*
X210000000Y-200007200D01*
D10*
D11*
X260000000Y-198007200D02*
X260000000Y-200007200D01*
D10*
D11*
X36065476Y-199595295D02*
X35322619Y-199595295D01*
X35694047Y-199595295D02*
X35694047Y-198295295D01*
X35570238Y-198481009D01*
X35446428Y-198604819D01*
X35322619Y-198666723D01*
D10*
D11*
X85322619Y-198419104D02*
X85384523Y-198357200D01*
X85508333Y-198295295D01*
X85817857Y-198295295D01*
X85941666Y-198357200D01*
X86003571Y-198419104D01*
X86065476Y-198542914D01*
X86065476Y-198666723D01*
X86003571Y-198852438D01*
X85260714Y-199595295D01*
X86065476Y-199595295D01*
D10*
D11*
X135260714Y-198295295D02*
X136065476Y-198295295D01*
X135632142Y-198790533D01*
X135817857Y-198790533D01*
X135941666Y-198852438D01*
X136003571Y-198914342D01*
X136065476Y-199038152D01*
X136065476Y-199347676D01*
X136003571Y-199471485D01*
X135941666Y-199533390D01*
X135817857Y-199595295D01*
X135446428Y-199595295D01*
X135322619Y-199533390D01*
X135260714Y-199471485D01*
D10*
D11*
X185941666Y-198728628D02*
X185941666Y-199595295D01*
X185632142Y-198233390D02*
X185322619Y-199161961D01*
X186127380Y-199161961D01*
D10*
D11*
X236003571Y-198295295D02*
X235384523Y-198295295D01*
X235322619Y-198914342D01*
X235384523Y-198852438D01*
X235508333Y-198790533D01*
X235817857Y-198790533D01*
X235941666Y-198852438D01*
X236003571Y-198914342D01*
X236065476Y-199038152D01*
X236065476Y-199347676D01*
X236003571Y-199471485D01*
X235941666Y-199533390D01*
X235817857Y-199595295D01*
X235508333Y-199595295D01*
X235384523Y-199533390D01*
X235322619Y-199471485D01*
D10*
D11*
X285941666Y-198295295D02*
X285694047Y-198295295D01*
X285570238Y-198357200D01*
X285508333Y-198419104D01*
X285384523Y-198604819D01*
X285322619Y-198852438D01*
X285322619Y-199347676D01*
X285384523Y-199471485D01*
X285446428Y-199533390D01*
X285570238Y-199595295D01*
X285817857Y-199595295D01*
X285941666Y-199533390D01*
X286003571Y-199471485D01*
X286065476Y-199347676D01*
X286065476Y-199038152D01*
X286003571Y-198914342D01*
X285941666Y-198852438D01*
X285817857Y-198790533D01*
X285570238Y-198790533D01*
X285446428Y-198852438D01*
X285384523Y-198914342D01*
X285322619Y-199038152D01*
D10*
D11*
X10000000Y-60000000D02*
X12000000Y-60000000D01*
D10*
D11*
X10000000Y-110000000D02*
X12000000Y-110000000D01*
D10*
D11*
X10000000Y-160000000D02*
X12000000Y-160000000D01*
D10*
D11*
X10690476Y-35216666D02*
X11309523Y-35216666D01*
X10566666Y-35588095D02*
X11000000Y-34288095D01*
X11433333Y-35588095D01*
D10*
D11*
X11092857Y-84907142D02*
X11278571Y-84969047D01*
X11340476Y-85030952D01*
X11402380Y-85154761D01*
X11402380Y-85340476D01*
X11340476Y-85464285D01*
X11278571Y-85526190D01*
X11154761Y-85588095D01*
X10659523Y-85588095D01*
X10659523Y-84288095D01*
X11092857Y-84288095D01*
X11216666Y-84350000D01*
X11278571Y-84411904D01*
X11340476Y-84535714D01*
X11340476Y-84659523D01*
X11278571Y-84783333D01*
X11216666Y-84845238D01*
X11092857Y-84907142D01*
X10659523Y-84907142D01*
D10*
D11*
X11402380Y-135464285D02*
X11340476Y-135526190D01*
X11154761Y-135588095D01*
X11030952Y-135588095D01*
X10845238Y-135526190D01*
X10721428Y-135402380D01*
X10659523Y-135278571D01*
X10597619Y-135030952D01*
X10597619Y-134845238D01*
X10659523Y-134597619D01*
X10721428Y-134473809D01*
X10845238Y-134350000D01*
X11030952Y-134288095D01*
X11154761Y-134288095D01*
X11340476Y-134350000D01*
X11402380Y-134411904D01*
D10*
D11*
X10659523Y-185588095D02*
X10659523Y-184288095D01*
X10969047Y-184288095D01*
X11154761Y-184350000D01*
X11278571Y-184473809D01*
X11340476Y-184597619D01*
X11402380Y-184845238D01*
X11402380Y-185030952D01*
X11340476Y-185278571D01*
X11278571Y-185402380D01*
X11154761Y-185526190D01*
X10969047Y-185588095D01*
X10659523Y-185588095D01*
D10*
D11*
X287002200Y-60000000D02*
X285002200Y-60000000D01*
D10*
D11*
X287002200Y-110000000D02*
X285002200Y-110000000D01*
D10*
D11*
X287002200Y-160000000D02*
X285002200Y-160000000D01*
D10*
D11*
X285692676Y-35216666D02*
X286311723Y-35216666D01*
X285568866Y-35588095D02*
X286002200Y-34288095D01*
X286435533Y-35588095D01*
D10*
D11*
X286095057Y-84907142D02*
X286280771Y-84969047D01*
X286342676Y-85030952D01*
X286404580Y-85154761D01*
X286404580Y-85340476D01*
X286342676Y-85464285D01*
X286280771Y-85526190D01*
X286156961Y-85588095D01*
X285661723Y-85588095D01*
X285661723Y-84288095D01*
X286095057Y-84288095D01*
X286218866Y-84350000D01*
X286280771Y-84411904D01*
X286342676Y-84535714D01*
X286342676Y-84659523D01*
X286280771Y-84783333D01*
X286218866Y-84845238D01*
X286095057Y-84907142D01*
X285661723Y-84907142D01*
D10*
D11*
X286404580Y-135464285D02*
X286342676Y-135526190D01*
X286156961Y-135588095D01*
X286033152Y-135588095D01*
X285847438Y-135526190D01*
X285723628Y-135402380D01*
X285661723Y-135278571D01*
X285599819Y-135030952D01*
X285599819Y-134845238D01*
X285661723Y-134597619D01*
X285723628Y-134473809D01*
X285847438Y-134350000D01*
X286033152Y-134288095D01*
X286156961Y-134288095D01*
X286342676Y-134350000D01*
X286404580Y-134411904D01*
D10*
D11*
X285661723Y-185588095D02*
X285661723Y-184288095D01*
X285971247Y-184288095D01*
X286156961Y-184350000D01*
X286280771Y-184473809D01*
X286342676Y-184597619D01*
X286404580Y-184845238D01*
X286404580Y-185030952D01*
X286342676Y-185278571D01*
X286280771Y-185402380D01*
X286156961Y-185526190D01*
X285971247Y-185588095D01*
X285661723Y-185588095D01*
D10*
D11*
X200434342Y-193785771D02*
X200434342Y-192285771D01*
X200791485Y-192285771D01*
X201005771Y-192357200D01*
X201148628Y-192500057D01*
X201220057Y-192642914D01*
X201291485Y-192928628D01*
X201291485Y-193142914D01*
X201220057Y-193428628D01*
X201148628Y-193571485D01*
X201005771Y-193714342D01*
X200791485Y-193785771D01*
X200434342Y-193785771D01*
X202577200Y-193785771D02*
X202577200Y-193000057D01*
X202505771Y-192857200D01*
X202362914Y-192785771D01*
X202077200Y-192785771D01*
X201934342Y-192857200D01*
X202577200Y-193714342D02*
X202434342Y-193785771D01*
X202077200Y-193785771D01*
X201934342Y-193714342D01*
X201862914Y-193571485D01*
X201862914Y-193428628D01*
X201934342Y-193285771D01*
X202077200Y-193214342D01*
X202434342Y-193214342D01*
X202577200Y-193142914D01*
X203077200Y-192785771D02*
X203648628Y-192785771D01*
X203291485Y-192285771D02*
X203291485Y-193571485D01*
X203362914Y-193714342D01*
X203505771Y-193785771D01*
X203648628Y-193785771D01*
X204720057Y-193714342D02*
X204577200Y-193785771D01*
X204291485Y-193785771D01*
X204148628Y-193714342D01*
X204077200Y-193571485D01*
X204077200Y-193000057D01*
X204148628Y-192857200D01*
X204291485Y-192785771D01*
X204577200Y-192785771D01*
X204720057Y-192857200D01*
X204791485Y-193000057D01*
X204791485Y-193142914D01*
X204077200Y-193285771D01*
X205434342Y-193642914D02*
X205505771Y-193714342D01*
X205434342Y-193785771D01*
X205362914Y-193714342D01*
X205434342Y-193642914D01*
X205434342Y-193785771D01*
X205434342Y-192857200D02*
X205505771Y-192928628D01*
X205434342Y-193000057D01*
X205362914Y-192928628D01*
X205434342Y-192857200D01*
X205434342Y-193000057D01*
D10*
D11*
X177002200Y-194507200D02*
X285002200Y-194507200D01*
D10*
D11*
X178434342Y-196585771D02*
X178434342Y-195085771D01*
X179291485Y-196585771D02*
X178648628Y-195728628D01*
X179291485Y-195085771D02*
X178434342Y-195942914D01*
X179934342Y-196585771D02*
X179934342Y-195585771D01*
X179934342Y-195085771D02*
X179862914Y-195157200D01*
X179934342Y-195228628D01*
X180005771Y-195157200D01*
X179934342Y-195085771D01*
X179934342Y-195228628D01*
X181505771Y-196442914D02*
X181434342Y-196514342D01*
X181220057Y-196585771D01*
X181077200Y-196585771D01*
X180862914Y-196514342D01*
X180720057Y-196371485D01*
X180648628Y-196228628D01*
X180577200Y-195942914D01*
X180577200Y-195728628D01*
X180648628Y-195442914D01*
X180720057Y-195300057D01*
X180862914Y-195157200D01*
X181077200Y-195085771D01*
X181220057Y-195085771D01*
X181434342Y-195157200D01*
X181505771Y-195228628D01*
X182791485Y-196585771D02*
X182791485Y-195800057D01*
X182720057Y-195657200D01*
X182577200Y-195585771D01*
X182291485Y-195585771D01*
X182148628Y-195657200D01*
X182791485Y-196514342D02*
X182648628Y-196585771D01*
X182291485Y-196585771D01*
X182148628Y-196514342D01*
X182077200Y-196371485D01*
X182077200Y-196228628D01*
X182148628Y-196085771D01*
X182291485Y-196014342D01*
X182648628Y-196014342D01*
X182791485Y-195942914D01*
X184148628Y-196585771D02*
X184148628Y-195085771D01*
X184148628Y-196514342D02*
X184005771Y-196585771D01*
X183720057Y-196585771D01*
X183577200Y-196514342D01*
X183505771Y-196442914D01*
X183434342Y-196300057D01*
X183434342Y-195871485D01*
X183505771Y-195728628D01*
X183577200Y-195657200D01*
X183720057Y-195585771D01*
X184005771Y-195585771D01*
X184148628Y-195657200D01*
X186005771Y-195800057D02*
X186505771Y-195800057D01*
X186720057Y-196585771D02*
X186005771Y-196585771D01*
X186005771Y-195085771D01*
X186720057Y-195085771D01*
X187362914Y-196442914D02*
X187434342Y-196514342D01*
X187362914Y-196585771D01*
X187291485Y-196514342D01*
X187362914Y-196442914D01*
X187362914Y-196585771D01*
X188077200Y-196585771D02*
X188077200Y-195085771D01*
X188434342Y-195085771D01*
X188648628Y-195157200D01*
X188791485Y-195300057D01*
X188862914Y-195442914D01*
X188934342Y-195728628D01*
X188934342Y-195942914D01*
X188862914Y-196228628D01*
X188791485Y-196371485D01*
X188648628Y-196514342D01*
X188434342Y-196585771D01*
X188077200Y-196585771D01*
X189577200Y-196442914D02*
X189648628Y-196514342D01*
X189577200Y-196585771D01*
X189505771Y-196514342D01*
X189577200Y-196442914D01*
X189577200Y-196585771D01*
X190220057Y-196157200D02*
X190934342Y-196157200D01*
X190077200Y-196585771D02*
X190577200Y-195085771D01*
X191077200Y-196585771D01*
X191577200Y-196442914D02*
X191648628Y-196514342D01*
X191577200Y-196585771D01*
X191505771Y-196514342D01*
X191577200Y-196442914D01*
X191577200Y-196585771D01*
X194577200Y-195585771D02*
X194577200Y-197085771D01*
X194577200Y-195657200D02*
X194720057Y-195585771D01*
X195005771Y-195585771D01*
X195148628Y-195657200D01*
X195220057Y-195728628D01*
X195291485Y-195871485D01*
X195291485Y-196300057D01*
X195220057Y-196442914D01*
X195148628Y-196514342D01*
X195005771Y-196585771D01*
X194720057Y-196585771D01*
X194577200Y-196514342D01*
X196577200Y-196514342D02*
X196434342Y-196585771D01*
X196148628Y-196585771D01*
X196005771Y-196514342D01*
X195934342Y-196442914D01*
X195862914Y-196300057D01*
X195862914Y-195871485D01*
X195934342Y-195728628D01*
X196005771Y-195657200D01*
X196148628Y-195585771D01*
X196434342Y-195585771D01*
X196577200Y-195657200D01*
X197220057Y-196585771D02*
X197220057Y-195085771D01*
X197220057Y-195657200D02*
X197362914Y-195585771D01*
X197648628Y-195585771D01*
X197791485Y-195657200D01*
X197862914Y-195728628D01*
X197934342Y-195871485D01*
X197934342Y-196300057D01*
X197862914Y-196442914D01*
X197791485Y-196514342D01*
X197648628Y-196585771D01*
X197362914Y-196585771D01*
X197220057Y-196514342D01*
X198577200Y-195585771D02*
X198577200Y-196585771D01*
X198577200Y-195728628D02*
X198648628Y-195657200D01*
X198791485Y-195585771D01*
X199005771Y-195585771D01*
X199148628Y-195657200D01*
X199220057Y-195800057D01*
X199220057Y-196585771D01*
X200505771Y-196514342D02*
X200362914Y-196585771D01*
X200077200Y-196585771D01*
X199934342Y-196514342D01*
X199862914Y-196371485D01*
X199862914Y-195800057D01*
X199934342Y-195657200D01*
X200077200Y-195585771D01*
X200362914Y-195585771D01*
X200505771Y-195657200D01*
X200577200Y-195800057D01*
X200577200Y-195942914D01*
X199862914Y-196085771D01*
X201077200Y-195585771D02*
X201362914Y-196585771D01*
X201648628Y-195871485D01*
X201934342Y-196585771D01*
X202220057Y-195585771D01*
X204648628Y-195085771D02*
X203934342Y-195085771D01*
X203862914Y-195800057D01*
X203934342Y-195728628D01*
X204077200Y-195657200D01*
X204434342Y-195657200D01*
X204577200Y-195728628D01*
X204648628Y-195800057D01*
X204720057Y-195942914D01*
X204720057Y-196300057D01*
X204648628Y-196442914D01*
X204577200Y-196514342D01*
X204434342Y-196585771D01*
X204077200Y-196585771D01*
X203934342Y-196514342D01*
X203862914Y-196442914D01*
X205362914Y-196442914D02*
X205434342Y-196514342D01*
X205362914Y-196585771D01*
X205291485Y-196514342D01*
X205362914Y-196442914D01*
X205362914Y-196585771D01*
X206862914Y-196585771D02*
X206005771Y-196585771D01*
X206434342Y-196585771D02*
X206434342Y-195085771D01*
X206291485Y-195300057D01*
X206148628Y-195442914D01*
X206005771Y-195514342D01*
X207505771Y-196442914D02*
X207577200Y-196514342D01*
X207505771Y-196585771D01*
X207434342Y-196514342D01*
X207505771Y-196442914D01*
X207505771Y-196585771D01*
X208934342Y-195085771D02*
X208220057Y-195085771D01*
X208148628Y-195800057D01*
X208220057Y-195728628D01*
X208362914Y-195657200D01*
X208720057Y-195657200D01*
X208862914Y-195728628D01*
X208934342Y-195800057D01*
X209005771Y-195942914D01*
X209005771Y-196300057D01*
X208934342Y-196442914D01*
X208862914Y-196514342D01*
X208720057Y-196585771D01*
X208362914Y-196585771D01*
X208220057Y-196514342D01*
X208148628Y-196442914D01*
D10*
D11*
X177002200Y-191507200D02*
X285002200Y-191507200D01*
D10*
D12*
X264411485Y-193785771D02*
X263911485Y-193071485D01*
X263554342Y-193785771D02*
X263554342Y-192285771D01*
X264125771Y-192285771D01*
X264268628Y-192357200D01*
X264340057Y-192428628D01*
X264411485Y-192571485D01*
X264411485Y-192785771D01*
X264340057Y-192928628D01*
X264268628Y-193000057D01*
X264125771Y-193071485D01*
X263554342Y-193071485D01*
X265625771Y-193714342D02*
X265482914Y-193785771D01*
X265197200Y-193785771D01*
X265054342Y-193714342D01*
X264982914Y-193571485D01*
X264982914Y-193000057D01*
X265054342Y-192857200D01*
X265197200Y-192785771D01*
X265482914Y-192785771D01*
X265625771Y-192857200D01*
X265697200Y-193000057D01*
X265697200Y-193142914D01*
X264982914Y-193285771D01*
X266197200Y-192785771D02*
X266554342Y-193785771D01*
X266911485Y-192785771D01*
X267482914Y-193642914D02*
X267554342Y-193714342D01*
X267482914Y-193785771D01*
X267411485Y-193714342D01*
X267482914Y-193642914D01*
X267482914Y-193785771D01*
X267482914Y-192857200D02*
X267554342Y-192928628D01*
X267482914Y-193000057D01*
X267411485Y-192928628D01*
X267482914Y-192857200D01*
X267482914Y-193000057D01*
D10*
D11*
X178362914Y-193714342D02*
X178577200Y-193785771D01*
X178934342Y-193785771D01*
X179077200Y-193714342D01*
X179148628Y-193642914D01*
X179220057Y-193500057D01*
X179220057Y-193357200D01*
X179148628Y-193214342D01*
X179077200Y-193142914D01*
X178934342Y-193071485D01*
X178648628Y-193000057D01*
X178505771Y-192928628D01*
X178434342Y-192857200D01*
X178362914Y-192714342D01*
X178362914Y-192571485D01*
X178434342Y-192428628D01*
X178505771Y-192357200D01*
X178648628Y-192285771D01*
X179005771Y-192285771D01*
X179220057Y-192357200D01*
X179862914Y-193785771D02*
X179862914Y-192785771D01*
X179862914Y-192285771D02*
X179791485Y-192357200D01*
X179862914Y-192428628D01*
X179934342Y-192357200D01*
X179862914Y-192285771D01*
X179862914Y-192428628D01*
X180434342Y-192785771D02*
X181220057Y-192785771D01*
X180434342Y-193785771D01*
X181220057Y-193785771D01*
X182362914Y-193714342D02*
X182220057Y-193785771D01*
X181934342Y-193785771D01*
X181791485Y-193714342D01*
X181720057Y-193571485D01*
X181720057Y-193000057D01*
X181791485Y-192857200D01*
X181934342Y-192785771D01*
X182220057Y-192785771D01*
X182362914Y-192857200D01*
X182434342Y-193000057D01*
X182434342Y-193142914D01*
X181720057Y-193285771D01*
X183077200Y-193642914D02*
X183148628Y-193714342D01*
X183077200Y-193785771D01*
X183005771Y-193714342D01*
X183077200Y-193642914D01*
X183077200Y-193785771D01*
X183077200Y-192857200D02*
X183148628Y-192928628D01*
X183077200Y-193000057D01*
X183005771Y-192928628D01*
X183077200Y-192857200D01*
X183077200Y-193000057D01*
X184862914Y-193357200D02*
X185577200Y-193357200D01*
X184720057Y-193785771D02*
X185220057Y-192285771D01*
X185720057Y-193785771D01*
X186862914Y-192785771D02*
X186862914Y-193785771D01*
X186505771Y-192214342D02*
X186148628Y-193285771D01*
X187077200Y-193285771D01*
D10*
D11*
X263434342Y-196585771D02*
X263434342Y-195085771D01*
X264791485Y-196585771D02*
X264791485Y-195085771D01*
X264791485Y-196514342D02*
X264648628Y-196585771D01*
X264362914Y-196585771D01*
X264220057Y-196514342D01*
X264148628Y-196442914D01*
X264077200Y-196300057D01*
X264077200Y-195871485D01*
X264148628Y-195728628D01*
X264220057Y-195657200D01*
X264362914Y-195585771D01*
X264648628Y-195585771D01*
X264791485Y-195657200D01*
X265505771Y-196442914D02*
X265577200Y-196514342D01*
X265505771Y-196585771D01*
X265434342Y-196514342D01*
X265505771Y-196442914D01*
X265505771Y-196585771D01*
X265505771Y-195657200D02*
X265577200Y-195728628D01*
X265505771Y-195800057D01*
X265434342Y-195728628D01*
X265505771Y-195657200D01*
X265505771Y-195800057D01*
X268148628Y-196585771D02*
X267291485Y-196585771D01*
X267720057Y-196585771D02*
X267720057Y-195085771D01*
X267577200Y-195300057D01*
X267434342Y-195442914D01*
X267291485Y-195514342D01*
X269862914Y-195014342D02*
X268577200Y-196942914D01*
X271148628Y-196585771D02*
X270291485Y-196585771D01*
X270720057Y-196585771D02*
X270720057Y-195085771D01*
X270577200Y-195300057D01*
X270434342Y-195442914D01*
X270291485Y-195514342D01*
D10*
D11*
X177002200Y-187507200D02*
X285002200Y-187507200D01*
D10*
D13*
X178714580Y-188211961D02*
X179857438Y-188211961D01*
X179036009Y-190211961D02*
X179286009Y-188211961D01*
X180274104Y-190211961D02*
X180440771Y-188878628D01*
X180524104Y-188211961D02*
X180416961Y-188307200D01*
X180500295Y-188402438D01*
X180607438Y-188307200D01*
X180524104Y-188211961D01*
X180500295Y-188402438D01*
X181107438Y-188878628D02*
X181869342Y-188878628D01*
X181476485Y-188211961D02*
X181262200Y-189926247D01*
X181333628Y-190116723D01*
X181512200Y-190211961D01*
X181702676Y-190211961D01*
X182655057Y-190211961D02*
X182476485Y-190116723D01*
X182405057Y-189926247D01*
X182619342Y-188211961D01*
X184190771Y-190116723D02*
X183988390Y-190211961D01*
X183607438Y-190211961D01*
X183428866Y-190116723D01*
X183357438Y-189926247D01*
X183452676Y-189164342D01*
X183571723Y-188973866D01*
X183774104Y-188878628D01*
X184155057Y-188878628D01*
X184333628Y-188973866D01*
X184405057Y-189164342D01*
X184381247Y-189354819D01*
X183405057Y-189545295D01*
X185155057Y-190021485D02*
X185238390Y-190116723D01*
X185131247Y-190211961D01*
X185047914Y-190116723D01*
X185155057Y-190021485D01*
X185131247Y-190211961D01*
X185286009Y-188973866D02*
X185369342Y-189069104D01*
X185262200Y-189164342D01*
X185178866Y-189069104D01*
X185286009Y-188973866D01*
X185262200Y-189164342D01*
D10*
D11*
X178934342Y-185600057D02*
X178434342Y-185600057D01*
X178434342Y-186385771D02*
X178434342Y-184885771D01*
X179148628Y-184885771D01*
X179720057Y-186385771D02*
X179720057Y-185385771D01*
X179720057Y-184885771D02*
X179648628Y-184957200D01*
X179720057Y-185028628D01*
X179791485Y-184957200D01*
X179720057Y-184885771D01*
X179720057Y-185028628D01*
X180648628Y-186385771D02*
X180505771Y-186314342D01*
X180434342Y-186171485D01*
X180434342Y-184885771D01*
X181791485Y-186314342D02*
X181648628Y-186385771D01*
X181362914Y-186385771D01*
X181220057Y-186314342D01*
X181148628Y-186171485D01*
X181148628Y-185600057D01*
X181220057Y-185457200D01*
X181362914Y-185385771D01*
X181648628Y-185385771D01*
X181791485Y-185457200D01*
X181862914Y-185600057D01*
X181862914Y-185742914D01*
X181148628Y-185885771D01*
X182505771Y-186242914D02*
X182577200Y-186314342D01*
X182505771Y-186385771D01*
X182434342Y-186314342D01*
X182505771Y-186242914D01*
X182505771Y-186385771D01*
X182505771Y-185457200D02*
X182577200Y-185528628D01*
X182505771Y-185600057D01*
X182434342Y-185528628D01*
X182505771Y-185457200D01*
X182505771Y-185600057D01*
X185005771Y-186385771D02*
X185005771Y-184885771D01*
X185005771Y-186314342D02*
X184862914Y-186385771D01*
X184577200Y-186385771D01*
X184434342Y-186314342D01*
X184362914Y-186242914D01*
X184291485Y-186100057D01*
X184291485Y-185671485D01*
X184362914Y-185528628D01*
X184434342Y-185457200D01*
X184577200Y-185385771D01*
X184862914Y-185385771D01*
X185005771Y-185457200D01*
X186291485Y-186314342D02*
X186148628Y-186385771D01*
X185862914Y-186385771D01*
X185720057Y-186314342D01*
X185648628Y-186171485D01*
X185648628Y-185600057D01*
X185720057Y-185457200D01*
X185862914Y-185385771D01*
X186148628Y-185385771D01*
X186291485Y-185457200D01*
X186362914Y-185600057D01*
X186362914Y-185742914D01*
X185648628Y-185885771D01*
X187005771Y-186385771D02*
X187005771Y-185385771D01*
X187005771Y-185671485D02*
X187077200Y-185528628D01*
X187148628Y-185457200D01*
X187291485Y-185385771D01*
X187434342Y-185385771D01*
X187791485Y-185385771D02*
X188148628Y-186385771D01*
X188505771Y-185385771D01*
X189648628Y-186314342D02*
X189505771Y-186385771D01*
X189220057Y-186385771D01*
X189077200Y-186314342D01*
X189005771Y-186171485D01*
X189005771Y-185600057D01*
X189077200Y-185457200D01*
X189220057Y-185385771D01*
X189505771Y-185385771D01*
X189648628Y-185457200D01*
X189720057Y-185600057D01*
X189720057Y-185742914D01*
X189005771Y-185885771D01*
X190362914Y-186385771D02*
X190362914Y-185385771D01*
X190362914Y-185671485D02*
X190434342Y-185528628D01*
X190505771Y-185457200D01*
X190648628Y-185385771D01*
X190791485Y-185385771D01*
X191291485Y-186385771D02*
X191291485Y-184885771D01*
X191291485Y-185457200D02*
X191434342Y-185385771D01*
X191720057Y-185385771D01*
X191862914Y-185457200D01*
X191934342Y-185528628D01*
X192005771Y-185671485D01*
X192005771Y-186100057D01*
X191934342Y-186242914D01*
X191862914Y-186314342D01*
X191720057Y-186385771D01*
X191434342Y-186385771D01*
X191291485Y-186314342D01*
X192648628Y-186385771D02*
X192648628Y-185385771D01*
X192648628Y-184885771D02*
X192577200Y-184957200D01*
X192648628Y-185028628D01*
X192720057Y-184957200D01*
X192648628Y-184885771D01*
X192648628Y-185028628D01*
X193362914Y-185385771D02*
X193362914Y-186385771D01*
X193362914Y-185528628D02*
X193434342Y-185457200D01*
X193577200Y-185385771D01*
X193791485Y-185385771D01*
X193934342Y-185457200D01*
X194005771Y-185600057D01*
X194005771Y-186385771D01*
X195362914Y-186385771D02*
X195362914Y-184885771D01*
X195362914Y-186314342D02*
X195220057Y-186385771D01*
X194934342Y-186385771D01*
X194791485Y-186314342D01*
X194720057Y-186242914D01*
X194648628Y-186100057D01*
X194648628Y-185671485D01*
X194720057Y-185528628D01*
X194791485Y-185457200D01*
X194934342Y-185385771D01*
X195220057Y-185385771D01*
X195362914Y-185457200D01*
X196648628Y-186314342D02*
X196505771Y-186385771D01*
X196220057Y-186385771D01*
X196077200Y-186314342D01*
X196005771Y-186171485D01*
X196005771Y-185600057D01*
X196077200Y-185457200D01*
X196220057Y-185385771D01*
X196505771Y-185385771D01*
X196648628Y-185457200D01*
X196720057Y-185600057D01*
X196720057Y-185742914D01*
X196005771Y-185885771D01*
X197362914Y-186385771D02*
X197362914Y-185385771D01*
X197362914Y-185671485D02*
X197434342Y-185528628D01*
X197505771Y-185457200D01*
X197648628Y-185385771D01*
X197791485Y-185385771D01*
X198291485Y-186242914D02*
X198362914Y-186314342D01*
X198291485Y-186385771D01*
X198220057Y-186314342D01*
X198291485Y-186242914D01*
X198291485Y-186385771D01*
X199005771Y-186385771D02*
X199005771Y-184885771D01*
X199148628Y-185814342D02*
X199577200Y-186385771D01*
X199577200Y-185385771D02*
X199005771Y-185957200D01*
X200220057Y-186385771D02*
X200220057Y-185385771D01*
X200220057Y-184885771D02*
X200148628Y-184957200D01*
X200220057Y-185028628D01*
X200291485Y-184957200D01*
X200220057Y-184885771D01*
X200220057Y-185028628D01*
X201577200Y-186314342D02*
X201434342Y-186385771D01*
X201148628Y-186385771D01*
X201005771Y-186314342D01*
X200934342Y-186242914D01*
X200862914Y-186100057D01*
X200862914Y-185671485D01*
X200934342Y-185528628D01*
X201005771Y-185457200D01*
X201148628Y-185385771D01*
X201434342Y-185385771D01*
X201577200Y-185457200D01*
X202862914Y-186385771D02*
X202862914Y-185600057D01*
X202791485Y-185457200D01*
X202648628Y-185385771D01*
X202362914Y-185385771D01*
X202220057Y-185457200D01*
X202862914Y-186314342D02*
X202720057Y-186385771D01*
X202362914Y-186385771D01*
X202220057Y-186314342D01*
X202148628Y-186171485D01*
X202148628Y-186028628D01*
X202220057Y-185885771D01*
X202362914Y-185814342D01*
X202720057Y-185814342D01*
X202862914Y-185742914D01*
X204220057Y-186385771D02*
X204220057Y-184885771D01*
X204220057Y-186314342D02*
X204077200Y-186385771D01*
X203791485Y-186385771D01*
X203648628Y-186314342D01*
X203577200Y-186242914D01*
X203505771Y-186100057D01*
X203505771Y-185671485D01*
X203577200Y-185528628D01*
X203648628Y-185457200D01*
X203791485Y-185385771D01*
X204077200Y-185385771D01*
X204220057Y-185457200D01*
X204577200Y-186528628D02*
X205720057Y-186528628D01*
X206077200Y-185385771D02*
X206077200Y-186885771D01*
X206077200Y-185457200D02*
X206220057Y-185385771D01*
X206505771Y-185385771D01*
X206648628Y-185457200D01*
X206720057Y-185528628D01*
X206791485Y-185671485D01*
X206791485Y-186100057D01*
X206720057Y-186242914D01*
X206648628Y-186314342D01*
X206505771Y-186385771D01*
X206220057Y-186385771D01*
X206077200Y-186314342D01*
X208077200Y-186314342D02*
X207934342Y-186385771D01*
X207648628Y-186385771D01*
X207505771Y-186314342D01*
X207434342Y-186242914D01*
X207362914Y-186100057D01*
X207362914Y-185671485D01*
X207434342Y-185528628D01*
X207505771Y-185457200D01*
X207648628Y-185385771D01*
X207934342Y-185385771D01*
X208077200Y-185457200D01*
X208720057Y-186385771D02*
X208720057Y-184885771D01*
X208720057Y-185457200D02*
X208862914Y-185385771D01*
X209148628Y-185385771D01*
X209291485Y-185457200D01*
X209362914Y-185528628D01*
X209434342Y-185671485D01*
X209434342Y-186100057D01*
X209362914Y-186242914D01*
X209291485Y-186314342D01*
X209148628Y-186385771D01*
X208862914Y-186385771D01*
X208720057Y-186314342D01*
D10*
D11*
X177002200Y-181507200D02*
X285002200Y-181507200D01*
D10*
D11*
X178362914Y-183614342D02*
X178577200Y-183685771D01*
X178934342Y-183685771D01*
X179077200Y-183614342D01*
X179148628Y-183542914D01*
X179220057Y-183400057D01*
X179220057Y-183257200D01*
X179148628Y-183114342D01*
X179077200Y-183042914D01*
X178934342Y-182971485D01*
X178648628Y-182900057D01*
X178505771Y-182828628D01*
X178434342Y-182757200D01*
X178362914Y-182614342D01*
X178362914Y-182471485D01*
X178434342Y-182328628D01*
X178505771Y-182257200D01*
X178648628Y-182185771D01*
X179005771Y-182185771D01*
X179220057Y-182257200D01*
X179862914Y-183685771D02*
X179862914Y-182185771D01*
X180505771Y-183685771D02*
X180505771Y-182900057D01*
X180434342Y-182757200D01*
X180291485Y-182685771D01*
X180077200Y-182685771D01*
X179934342Y-182757200D01*
X179862914Y-182828628D01*
X181791485Y-183614342D02*
X181648628Y-183685771D01*
X181362914Y-183685771D01*
X181220057Y-183614342D01*
X181148628Y-183471485D01*
X181148628Y-182900057D01*
X181220057Y-182757200D01*
X181362914Y-182685771D01*
X181648628Y-182685771D01*
X181791485Y-182757200D01*
X181862914Y-182900057D01*
X181862914Y-183042914D01*
X181148628Y-183185771D01*
X183077200Y-183614342D02*
X182934342Y-183685771D01*
X182648628Y-183685771D01*
X182505771Y-183614342D01*
X182434342Y-183471485D01*
X182434342Y-182900057D01*
X182505771Y-182757200D01*
X182648628Y-182685771D01*
X182934342Y-182685771D01*
X183077200Y-182757200D01*
X183148628Y-182900057D01*
X183148628Y-183042914D01*
X182434342Y-183185771D01*
X183577200Y-182685771D02*
X184148628Y-182685771D01*
X183791485Y-182185771D02*
X183791485Y-183471485D01*
X183862914Y-183614342D01*
X184005771Y-183685771D01*
X184148628Y-183685771D01*
X184648628Y-183542914D02*
X184720057Y-183614342D01*
X184648628Y-183685771D01*
X184577200Y-183614342D01*
X184648628Y-183542914D01*
X184648628Y-183685771D01*
X184648628Y-182757200D02*
X184720057Y-182828628D01*
X184648628Y-182900057D01*
X184577200Y-182828628D01*
X184648628Y-182757200D01*
X184648628Y-182900057D01*
D10*
D11*
X197002200Y-191507200D02*
X197002200Y-194507200D01*
D10*
D11*
X261002200Y-191507200D02*
X261002200Y-198007200D01*
D10*
G36*
X97341000Y-168582218D02*
G01*
X97343402Y-168606604D01*
X97350515Y-168630053D01*
X97362066Y-168651664D01*
X97377611Y-168670606D01*
X97396553Y-168686151D01*
X97418164Y-168697702D01*
X97441613Y-168704815D01*
X97465999Y-168707217D01*
X97490385Y-168704815D01*
X97513834Y-168697702D01*
X97535445Y-168686151D01*
X97554387Y-168670606D01*
X97569932Y-168651664D01*
X97632009Y-168558760D01*
X97632010Y-168558758D01*
X97708758Y-168482010D01*
X97799004Y-168421710D01*
X97799005Y-168421709D01*
X97899279Y-168380174D01*
X98005730Y-168359000D01*
X98114270Y-168359000D01*
X98220721Y-168380174D01*
X98320995Y-168421709D01*
X98320996Y-168421710D01*
X98411242Y-168482010D01*
X98487990Y-168558758D01*
X98487991Y-168558760D01*
X98548291Y-168649005D01*
X98579516Y-168724389D01*
X98591067Y-168746000D01*
X98606612Y-168764941D01*
X98625554Y-168780487D01*
X98647165Y-168792038D01*
X98670614Y-168799151D01*
X98695000Y-168801553D01*
X98719386Y-168799151D01*
X98742835Y-168792038D01*
X98764446Y-168780487D01*
X98783387Y-168764942D01*
X98798933Y-168746000D01*
X98810484Y-168724389D01*
X98841709Y-168649005D01*
X98902009Y-168558760D01*
X98902010Y-168558758D01*
X98978758Y-168482010D01*
X99069004Y-168421710D01*
X99069005Y-168421709D01*
X99169279Y-168380174D01*
X99275730Y-168359000D01*
X99384270Y-168359000D01*
X99490721Y-168380174D01*
X99590995Y-168421709D01*
X99590996Y-168421710D01*
X99681242Y-168482010D01*
X99757990Y-168558758D01*
X99757991Y-168558760D01*
X99818291Y-168649005D01*
X99849516Y-168724389D01*
X99861067Y-168746000D01*
X99876612Y-168764941D01*
X99895554Y-168780487D01*
X99917165Y-168792038D01*
X99940614Y-168799151D01*
X99965000Y-168801553D01*
X99989386Y-168799151D01*
X100012835Y-168792038D01*
X100034446Y-168780487D01*
X100053387Y-168764942D01*
X100068933Y-168746000D01*
X100080484Y-168724389D01*
X100111709Y-168649005D01*
X100172009Y-168558760D01*
X100172010Y-168558758D01*
X100248758Y-168482010D01*
X100339004Y-168421710D01*
X100339005Y-168421709D01*
X100439279Y-168380174D01*
X100545730Y-168359000D01*
X100654270Y-168359000D01*
X100760721Y-168380174D01*
X100860995Y-168421709D01*
X100860996Y-168421710D01*
X100951242Y-168482010D01*
X101027990Y-168558758D01*
X101027991Y-168558760D01*
X101088291Y-168649005D01*
X101119516Y-168724389D01*
X101131067Y-168746000D01*
X101146612Y-168764941D01*
X101165554Y-168780487D01*
X101187165Y-168792038D01*
X101210614Y-168799151D01*
X101235000Y-168801553D01*
X101259386Y-168799151D01*
X101282835Y-168792038D01*
X101304446Y-168780487D01*
X101323387Y-168764942D01*
X101338933Y-168746000D01*
X101350484Y-168724389D01*
X101381709Y-168649005D01*
X101442009Y-168558760D01*
X101442010Y-168558758D01*
X101518758Y-168482010D01*
X101609004Y-168421710D01*
X101609005Y-168421709D01*
X101709279Y-168380174D01*
X101815730Y-168359000D01*
X101924270Y-168359000D01*
X102030721Y-168380174D01*
X102130995Y-168421709D01*
X102130996Y-168421710D01*
X102221242Y-168482010D01*
X102297990Y-168558758D01*
X102297991Y-168558760D01*
X102358291Y-168649005D01*
X102399826Y-168749279D01*
X102421000Y-168855730D01*
X102421000Y-168964270D01*
X102399826Y-169070721D01*
X102358291Y-169170995D01*
X102358290Y-169170996D01*
X102297990Y-169261242D01*
X102221242Y-169337990D01*
X102175812Y-169368345D01*
X102130995Y-169398291D01*
X102030721Y-169439826D01*
X101924270Y-169461000D01*
X101815730Y-169461000D01*
X101709279Y-169439826D01*
X101609005Y-169398291D01*
X101564188Y-169368345D01*
X101518758Y-169337990D01*
X101442010Y-169261242D01*
X101381710Y-169170996D01*
X101381709Y-169170995D01*
X101350484Y-169095611D01*
X101338933Y-169074000D01*
X101323388Y-169055059D01*
X101304446Y-169039513D01*
X101282835Y-169027962D01*
X101259386Y-169020849D01*
X101235000Y-169018447D01*
X101210614Y-169020849D01*
X101187165Y-169027962D01*
X101165554Y-169039513D01*
X101146613Y-169055058D01*
X101131067Y-169074000D01*
X101119516Y-169095611D01*
X101088291Y-169170995D01*
X101088290Y-169170996D01*
X101027990Y-169261242D01*
X100951242Y-169337990D01*
X100905812Y-169368345D01*
X100860995Y-169398291D01*
X100760721Y-169439826D01*
X100654270Y-169461000D01*
X100545730Y-169461000D01*
X100439279Y-169439826D01*
X100339005Y-169398291D01*
X100294188Y-169368345D01*
X100248758Y-169337990D01*
X100172010Y-169261242D01*
X100111710Y-169170996D01*
X100111709Y-169170995D01*
X100080484Y-169095611D01*
X100068933Y-169074000D01*
X100053388Y-169055059D01*
X100034446Y-169039513D01*
X100012835Y-169027962D01*
X99989386Y-169020849D01*
X99965000Y-169018447D01*
X99940614Y-169020849D01*
X99917165Y-169027962D01*
X99895554Y-169039513D01*
X99876613Y-169055058D01*
X99861067Y-169074000D01*
X99849516Y-169095611D01*
X99818291Y-169170995D01*
X99818290Y-169170996D01*
X99757990Y-169261242D01*
X99681242Y-169337990D01*
X99635812Y-169368345D01*
X99590995Y-169398291D01*
X99490721Y-169439826D01*
X99384270Y-169461000D01*
X99275730Y-169461000D01*
X99169279Y-169439826D01*
X99069005Y-169398291D01*
X99024188Y-169368345D01*
X98978758Y-169337990D01*
X98902010Y-169261242D01*
X98841710Y-169170996D01*
X98841709Y-169170995D01*
X98810484Y-169095611D01*
X98798933Y-169074000D01*
X98783388Y-169055059D01*
X98764446Y-169039513D01*
X98742835Y-169027962D01*
X98719386Y-169020849D01*
X98695000Y-169018447D01*
X98670614Y-169020849D01*
X98647165Y-169027962D01*
X98625554Y-169039513D01*
X98606613Y-169055058D01*
X98591067Y-169074000D01*
X98579516Y-169095611D01*
X98548291Y-169170995D01*
X98548290Y-169170996D01*
X98487990Y-169261242D01*
X98411242Y-169337990D01*
X98365812Y-169368345D01*
X98320995Y-169398291D01*
X98220721Y-169439826D01*
X98114270Y-169461000D01*
X98005730Y-169461000D01*
X97899279Y-169439826D01*
X97799005Y-169398291D01*
X97754188Y-169368345D01*
X97708758Y-169337990D01*
X97632010Y-169261242D01*
X97611012Y-169229816D01*
X97569932Y-169168336D01*
X97554386Y-169149394D01*
X97535444Y-169133849D01*
X97513833Y-169122298D01*
X97490385Y-169115185D01*
X97465998Y-169112783D01*
X97441612Y-169115185D01*
X97418163Y-169122298D01*
X97396553Y-169133849D01*
X97377611Y-169149395D01*
X97362066Y-169168337D01*
X97350515Y-169189948D01*
X97343402Y-169213396D01*
X97341000Y-169237782D01*
X97341000Y-169461000D01*
X96239000Y-169461000D01*
X96239000Y-168359000D01*
X97341000Y-168359000D01*
X97341000Y-168582218D01*
G37*
G36*
X90448228Y-165481703D02*
G01*
X90603100Y-165545853D01*
X90742481Y-165638985D01*
X90861015Y-165757519D01*
X90954147Y-165896900D01*
X91018297Y-166051772D01*
X91051000Y-166216184D01*
X91051000Y-166383816D01*
X91018297Y-166548228D01*
X90954147Y-166703100D01*
X90861015Y-166842481D01*
X90742481Y-166961015D01*
X90603100Y-167054147D01*
X90448228Y-167118297D01*
X90283816Y-167151000D01*
X90116184Y-167151000D01*
X89951772Y-167118297D01*
X89796900Y-167054147D01*
X89657519Y-166961015D01*
X89538985Y-166842481D01*
X89445853Y-166703100D01*
X89381703Y-166548228D01*
X89349000Y-166383816D01*
X89349000Y-166216184D01*
X89381703Y-166051772D01*
X89445853Y-165896900D01*
X89538985Y-165757519D01*
X89657519Y-165638985D01*
X89796900Y-165545853D01*
X89951772Y-165481703D01*
X90116184Y-165449000D01*
X90283816Y-165449000D01*
X90448228Y-165481703D01*
G37*
G36*
X77748228Y-165481703D02*
G01*
X77903100Y-165545853D01*
X78042481Y-165638985D01*
X78161015Y-165757519D01*
X78254147Y-165896900D01*
X78318297Y-166051772D01*
X78351000Y-166216184D01*
X78351000Y-166383816D01*
X78318297Y-166548228D01*
X78254147Y-166703100D01*
X78161015Y-166842481D01*
X78042481Y-166961015D01*
X77903100Y-167054147D01*
X77748228Y-167118297D01*
X77583816Y-167151000D01*
X77416184Y-167151000D01*
X77251772Y-167118297D01*
X77096900Y-167054147D01*
X76957519Y-166961015D01*
X76838985Y-166842481D01*
X76745853Y-166703100D01*
X76681703Y-166548228D01*
X76649000Y-166383816D01*
X76649000Y-166216184D01*
X76681703Y-166051772D01*
X76745853Y-165896900D01*
X76838985Y-165757519D01*
X76957519Y-165638985D01*
X77096900Y-165545853D01*
X77251772Y-165481703D01*
X77416184Y-165449000D01*
X77583816Y-165449000D01*
X77748228Y-165481703D01*
G37*
G36*
X98373000Y-163583000D02*
G01*
X96747000Y-163583000D01*
X96747000Y-161957000D01*
X98373000Y-161957000D01*
X98373000Y-163583000D01*
G37*
G36*
X77748228Y-161731703D02*
G01*
X77903100Y-161795853D01*
X78042481Y-161888985D01*
X78161015Y-162007519D01*
X78254147Y-162146900D01*
X78318297Y-162301772D01*
X78351000Y-162466184D01*
X78351000Y-162633816D01*
X78318297Y-162798228D01*
X78254147Y-162953100D01*
X78161015Y-163092481D01*
X78042481Y-163211015D01*
X77903100Y-163304147D01*
X77748228Y-163368297D01*
X77583816Y-163401000D01*
X77416184Y-163401000D01*
X77251772Y-163368297D01*
X77096900Y-163304147D01*
X76957519Y-163211015D01*
X76838985Y-163092481D01*
X76745853Y-162953100D01*
X76681703Y-162798228D01*
X76649000Y-162633816D01*
X76649000Y-162466184D01*
X76681703Y-162301772D01*
X76745853Y-162146900D01*
X76838985Y-162007519D01*
X76957519Y-161888985D01*
X77096900Y-161795853D01*
X77251772Y-161731703D01*
X77416184Y-161699000D01*
X77583816Y-161699000D01*
X77748228Y-161731703D01*
G37*
G36*
X90448228Y-161731703D02*
G01*
X90603100Y-161795853D01*
X90742481Y-161888985D01*
X90861015Y-162007519D01*
X90954147Y-162146900D01*
X91018297Y-162301772D01*
X91051000Y-162466184D01*
X91051000Y-162633816D01*
X91018297Y-162798228D01*
X90954147Y-162953100D01*
X90861015Y-163092481D01*
X90742481Y-163211015D01*
X90603100Y-163304147D01*
X90448228Y-163368297D01*
X90283816Y-163401000D01*
X90116184Y-163401000D01*
X89951772Y-163368297D01*
X89796900Y-163304147D01*
X89657519Y-163211015D01*
X89538985Y-163092481D01*
X89445853Y-162953100D01*
X89381703Y-162798228D01*
X89349000Y-162633816D01*
X89349000Y-162466184D01*
X89381703Y-162301772D01*
X89445853Y-162146900D01*
X89538985Y-162007519D01*
X89657519Y-161888985D01*
X89796900Y-161795853D01*
X89951772Y-161731703D01*
X90116184Y-161699000D01*
X90283816Y-161699000D01*
X90448228Y-161731703D01*
G37*
G36*
X100337142Y-160718242D02*
G01*
X100485101Y-160779529D01*
X100618255Y-160868499D01*
X100731501Y-160981745D01*
X100820471Y-161114899D01*
X100881758Y-161262858D01*
X100913000Y-161419925D01*
X100913000Y-161580075D01*
X100881758Y-161737142D01*
X100820471Y-161885101D01*
X100731501Y-162018255D01*
X100618255Y-162131501D01*
X100485101Y-162220471D01*
X100337142Y-162281758D01*
X100180075Y-162313000D01*
X100019925Y-162313000D01*
X99862858Y-162281758D01*
X99714899Y-162220471D01*
X99581745Y-162131501D01*
X99468499Y-162018255D01*
X99379529Y-161885101D01*
X99318242Y-161737142D01*
X99287000Y-161580075D01*
X99287000Y-161419925D01*
X99318242Y-161262858D01*
X99379529Y-161114899D01*
X99468499Y-160981745D01*
X99581745Y-160868499D01*
X99714899Y-160779529D01*
X99862858Y-160718242D01*
X100019925Y-160687000D01*
X100180075Y-160687000D01*
X100337142Y-160718242D01*
G37*
G36*
X97797142Y-159448242D02*
G01*
X97945101Y-159509529D01*
X98078255Y-159598499D01*
X98191501Y-159711745D01*
X98280471Y-159844899D01*
X98341758Y-159992858D01*
X98373000Y-160149925D01*
X98373000Y-160310075D01*
X98341758Y-160467142D01*
X98280471Y-160615101D01*
X98191501Y-160748255D01*
X98078255Y-160861501D01*
X97945101Y-160950471D01*
X97797142Y-161011758D01*
X97640075Y-161043000D01*
X97479925Y-161043000D01*
X97322858Y-161011758D01*
X97174899Y-160950471D01*
X97041745Y-160861501D01*
X96928499Y-160748255D01*
X96839529Y-160615101D01*
X96778242Y-160467142D01*
X96747000Y-160310075D01*
X96747000Y-160149925D01*
X96778242Y-159992858D01*
X96839529Y-159844899D01*
X96928499Y-159711745D01*
X97041745Y-159598499D01*
X97174899Y-159509529D01*
X97322858Y-159448242D01*
X97479925Y-159417000D01*
X97640075Y-159417000D01*
X97797142Y-159448242D01*
G37*
G36*
X100337142Y-158178242D02*
G01*
X100485101Y-158239529D01*
X100618255Y-158328499D01*
X100731501Y-158441745D01*
X100820471Y-158574899D01*
X100881758Y-158722858D01*
X100913000Y-158879925D01*
X100913000Y-159040075D01*
X100881758Y-159197142D01*
X100820471Y-159345101D01*
X100731501Y-159478255D01*
X100618255Y-159591501D01*
X100485101Y-159680471D01*
X100337142Y-159741758D01*
X100180075Y-159773000D01*
X100019925Y-159773000D01*
X99862858Y-159741758D01*
X99714899Y-159680471D01*
X99581745Y-159591501D01*
X99468499Y-159478255D01*
X99379529Y-159345101D01*
X99318242Y-159197142D01*
X99287000Y-159040075D01*
X99287000Y-158879925D01*
X99318242Y-158722858D01*
X99379529Y-158574899D01*
X99468499Y-158441745D01*
X99581745Y-158328499D01*
X99714899Y-158239529D01*
X99862858Y-158178242D01*
X100019925Y-158147000D01*
X100180075Y-158147000D01*
X100337142Y-158178242D01*
G37*
G36*
X90448228Y-157981703D02*
G01*
X90603100Y-158045853D01*
X90742481Y-158138985D01*
X90861015Y-158257519D01*
X90954147Y-158396900D01*
X91018297Y-158551772D01*
X91051000Y-158716184D01*
X91051000Y-158883816D01*
X91018297Y-159048228D01*
X90954147Y-159203100D01*
X90861015Y-159342481D01*
X90742481Y-159461015D01*
X90603100Y-159554147D01*
X90448228Y-159618297D01*
X90283816Y-159651000D01*
X90116184Y-159651000D01*
X89951772Y-159618297D01*
X89796900Y-159554147D01*
X89657519Y-159461015D01*
X89538985Y-159342481D01*
X89445853Y-159203100D01*
X89381703Y-159048228D01*
X89349000Y-158883816D01*
X89349000Y-158716184D01*
X89381703Y-158551772D01*
X89445853Y-158396900D01*
X89538985Y-158257519D01*
X89657519Y-158138985D01*
X89796900Y-158045853D01*
X89951772Y-157981703D01*
X90116184Y-157949000D01*
X90283816Y-157949000D01*
X90448228Y-157981703D01*
G37*
G36*
X77748228Y-157981703D02*
G01*
X77903100Y-158045853D01*
X78042481Y-158138985D01*
X78161015Y-158257519D01*
X78254147Y-158396900D01*
X78318297Y-158551772D01*
X78351000Y-158716184D01*
X78351000Y-158883816D01*
X78318297Y-159048228D01*
X78254147Y-159203100D01*
X78161015Y-159342481D01*
X78042481Y-159461015D01*
X77903100Y-159554147D01*
X77748228Y-159618297D01*
X77583816Y-159651000D01*
X77416184Y-159651000D01*
X77251772Y-159618297D01*
X77096900Y-159554147D01*
X76957519Y-159461015D01*
X76838985Y-159342481D01*
X76745853Y-159203100D01*
X76681703Y-159048228D01*
X76649000Y-158883816D01*
X76649000Y-158716184D01*
X76681703Y-158551772D01*
X76745853Y-158396900D01*
X76838985Y-158257519D01*
X76957519Y-158138985D01*
X77096900Y-158045853D01*
X77251772Y-157981703D01*
X77416184Y-157949000D01*
X77583816Y-157949000D01*
X77748228Y-157981703D01*
G37*
G36*
X97797142Y-156908242D02*
G01*
X97945101Y-156969529D01*
X98078255Y-157058499D01*
X98191501Y-157171745D01*
X98280471Y-157304899D01*
X98341758Y-157452858D01*
X98373000Y-157609925D01*
X98373000Y-157770075D01*
X98341758Y-157927142D01*
X98280471Y-158075101D01*
X98191501Y-158208255D01*
X98078255Y-158321501D01*
X97945101Y-158410471D01*
X97797142Y-158471758D01*
X97640075Y-158503000D01*
X97479925Y-158503000D01*
X97322858Y-158471758D01*
X97174899Y-158410471D01*
X97041745Y-158321501D01*
X96928499Y-158208255D01*
X96839529Y-158075101D01*
X96778242Y-157927142D01*
X96747000Y-157770075D01*
X96747000Y-157609925D01*
X96778242Y-157452858D01*
X96839529Y-157304899D01*
X96928499Y-157171745D01*
X97041745Y-157058499D01*
X97174899Y-156969529D01*
X97322858Y-156908242D01*
X97479925Y-156877000D01*
X97640075Y-156877000D01*
X97797142Y-156908242D01*
G37*
G36*
X100337142Y-155638242D02*
G01*
X100485101Y-155699529D01*
X100618255Y-155788499D01*
X100731501Y-155901745D01*
X100820471Y-156034899D01*
X100881758Y-156182858D01*
X100913000Y-156339925D01*
X100913000Y-156500075D01*
X100881758Y-156657142D01*
X100820471Y-156805101D01*
X100731501Y-156938255D01*
X100618255Y-157051501D01*
X100485101Y-157140471D01*
X100337142Y-157201758D01*
X100180075Y-157233000D01*
X100019925Y-157233000D01*
X99862858Y-157201758D01*
X99714899Y-157140471D01*
X99581745Y-157051501D01*
X99468499Y-156938255D01*
X99379529Y-156805101D01*
X99318242Y-156657142D01*
X99287000Y-156500075D01*
X99287000Y-156339925D01*
X99318242Y-156182858D01*
X99379529Y-156034899D01*
X99468499Y-155901745D01*
X99581745Y-155788499D01*
X99714899Y-155699529D01*
X99862858Y-155638242D01*
X100019925Y-155607000D01*
X100180075Y-155607000D01*
X100337142Y-155638242D01*
G37*
G36*
X97797142Y-154368242D02*
G01*
X97945101Y-154429529D01*
X98078255Y-154518499D01*
X98191501Y-154631745D01*
X98280471Y-154764899D01*
X98341758Y-154912858D01*
X98373000Y-155069925D01*
X98373000Y-155230075D01*
X98341758Y-155387142D01*
X98280471Y-155535101D01*
X98191501Y-155668255D01*
X98078255Y-155781501D01*
X97945101Y-155870471D01*
X97797142Y-155931758D01*
X97640075Y-155963000D01*
X97479925Y-155963000D01*
X97322858Y-155931758D01*
X97174899Y-155870471D01*
X97041745Y-155781501D01*
X96928499Y-155668255D01*
X96839529Y-155535101D01*
X96778242Y-155387142D01*
X96747000Y-155230075D01*
X96747000Y-155069925D01*
X96778242Y-154912858D01*
X96839529Y-154764899D01*
X96928499Y-154631745D01*
X97041745Y-154518499D01*
X97174899Y-154429529D01*
X97322858Y-154368242D01*
X97479925Y-154337000D01*
X97640075Y-154337000D01*
X97797142Y-154368242D01*
G37*
G36*
X77748228Y-154231703D02*
G01*
X77903100Y-154295853D01*
X78042481Y-154388985D01*
X78161015Y-154507519D01*
X78254147Y-154646900D01*
X78318297Y-154801772D01*
X78351000Y-154966184D01*
X78351000Y-155133816D01*
X78318297Y-155298228D01*
X78254147Y-155453100D01*
X78161015Y-155592481D01*
X78042481Y-155711015D01*
X77903100Y-155804147D01*
X77748228Y-155868297D01*
X77583816Y-155901000D01*
X77416184Y-155901000D01*
X77251772Y-155868297D01*
X77096900Y-155804147D01*
X76957519Y-155711015D01*
X76838985Y-155592481D01*
X76745853Y-155453100D01*
X76681703Y-155298228D01*
X76649000Y-155133816D01*
X76649000Y-154966184D01*
X76681703Y-154801772D01*
X76745853Y-154646900D01*
X76838985Y-154507519D01*
X76957519Y-154388985D01*
X77096900Y-154295853D01*
X77251772Y-154231703D01*
X77416184Y-154199000D01*
X77583816Y-154199000D01*
X77748228Y-154231703D01*
G37*
G36*
X90448228Y-154231703D02*
G01*
X90603100Y-154295853D01*
X90742481Y-154388985D01*
X90861015Y-154507519D01*
X90954147Y-154646900D01*
X91018297Y-154801772D01*
X91051000Y-154966184D01*
X91051000Y-155133816D01*
X91018297Y-155298228D01*
X90954147Y-155453100D01*
X90861015Y-155592481D01*
X90742481Y-155711015D01*
X90603100Y-155804147D01*
X90448228Y-155868297D01*
X90283816Y-155901000D01*
X90116184Y-155901000D01*
X89951772Y-155868297D01*
X89796900Y-155804147D01*
X89657519Y-155711015D01*
X89538985Y-155592481D01*
X89445853Y-155453100D01*
X89381703Y-155298228D01*
X89349000Y-155133816D01*
X89349000Y-154966184D01*
X89381703Y-154801772D01*
X89445853Y-154646900D01*
X89538985Y-154507519D01*
X89657519Y-154388985D01*
X89796900Y-154295853D01*
X89951772Y-154231703D01*
X90116184Y-154199000D01*
X90283816Y-154199000D01*
X90448228Y-154231703D01*
G37*
G36*
X100337142Y-153098242D02*
G01*
X100485101Y-153159529D01*
X100618255Y-153248499D01*
X100731501Y-153361745D01*
X100820471Y-153494899D01*
X100881758Y-153642858D01*
X100913000Y-153799925D01*
X100913000Y-153960075D01*
X100881758Y-154117142D01*
X100820471Y-154265101D01*
X100731501Y-154398255D01*
X100618255Y-154511501D01*
X100485101Y-154600471D01*
X100337142Y-154661758D01*
X100180075Y-154693000D01*
X100019925Y-154693000D01*
X99862858Y-154661758D01*
X99714899Y-154600471D01*
X99581745Y-154511501D01*
X99468499Y-154398255D01*
X99379529Y-154265101D01*
X99318242Y-154117142D01*
X99287000Y-153960075D01*
X99287000Y-153799925D01*
X99318242Y-153642858D01*
X99379529Y-153494899D01*
X99468499Y-153361745D01*
X99581745Y-153248499D01*
X99714899Y-153159529D01*
X99862858Y-153098242D01*
X100019925Y-153067000D01*
X100180075Y-153067000D01*
X100337142Y-153098242D01*
G37*
G36*
X90448228Y-150481703D02*
G01*
X90603100Y-150545853D01*
X90742481Y-150638985D01*
X90861015Y-150757519D01*
X90954147Y-150896900D01*
X91018297Y-151051772D01*
X91051000Y-151216184D01*
X91051000Y-151383816D01*
X91018297Y-151548228D01*
X90954147Y-151703100D01*
X90861015Y-151842481D01*
X90742481Y-151961015D01*
X90603100Y-152054147D01*
X90448228Y-152118297D01*
X90283816Y-152151000D01*
X90116184Y-152151000D01*
X89951772Y-152118297D01*
X89796900Y-152054147D01*
X89657519Y-151961015D01*
X89538985Y-151842481D01*
X89445853Y-151703100D01*
X89381703Y-151548228D01*
X89349000Y-151383816D01*
X89349000Y-151216184D01*
X89381703Y-151051772D01*
X89445853Y-150896900D01*
X89538985Y-150757519D01*
X89657519Y-150638985D01*
X89796900Y-150545853D01*
X89951772Y-150481703D01*
X90116184Y-150449000D01*
X90283816Y-150449000D01*
X90448228Y-150481703D01*
G37*
G36*
X77748228Y-150481703D02*
G01*
X77903100Y-150545853D01*
X78042481Y-150638985D01*
X78161015Y-150757519D01*
X78254147Y-150896900D01*
X78318297Y-151051772D01*
X78351000Y-151216184D01*
X78351000Y-151383816D01*
X78318297Y-151548228D01*
X78254147Y-151703100D01*
X78161015Y-151842481D01*
X78042481Y-151961015D01*
X77903100Y-152054147D01*
X77748228Y-152118297D01*
X77583816Y-152151000D01*
X77416184Y-152151000D01*
X77251772Y-152118297D01*
X77096900Y-152054147D01*
X76957519Y-151961015D01*
X76838985Y-151842481D01*
X76745853Y-151703100D01*
X76681703Y-151548228D01*
X76649000Y-151383816D01*
X76649000Y-151216184D01*
X76681703Y-151051772D01*
X76745853Y-150896900D01*
X76838985Y-150757519D01*
X76957519Y-150638985D01*
X77096900Y-150545853D01*
X77251772Y-150481703D01*
X77416184Y-150449000D01*
X77583816Y-150449000D01*
X77748228Y-150481703D01*
G37*
G36*
X90448228Y-146731703D02*
G01*
X90603100Y-146795853D01*
X90742481Y-146888985D01*
X90861015Y-147007519D01*
X90954147Y-147146900D01*
X91018297Y-147301772D01*
X91051000Y-147466184D01*
X91051000Y-147633816D01*
X91018297Y-147798228D01*
X90954147Y-147953100D01*
X90861015Y-148092481D01*
X90742481Y-148211015D01*
X90603100Y-148304147D01*
X90448228Y-148368297D01*
X90283816Y-148401000D01*
X90116184Y-148401000D01*
X89951772Y-148368297D01*
X89796900Y-148304147D01*
X89657519Y-148211015D01*
X89538985Y-148092481D01*
X89445853Y-147953100D01*
X89381703Y-147798228D01*
X89349000Y-147633816D01*
X89349000Y-147466184D01*
X89381703Y-147301772D01*
X89445853Y-147146900D01*
X89538985Y-147007519D01*
X89657519Y-146888985D01*
X89796900Y-146795853D01*
X89951772Y-146731703D01*
X90116184Y-146699000D01*
X90283816Y-146699000D01*
X90448228Y-146731703D01*
G37*
G36*
X77748228Y-146731703D02*
G01*
X77903100Y-146795853D01*
X78042481Y-146888985D01*
X78161015Y-147007519D01*
X78254147Y-147146900D01*
X78318297Y-147301772D01*
X78351000Y-147466184D01*
X78351000Y-147633816D01*
X78318297Y-147798228D01*
X78254147Y-147953100D01*
X78161015Y-148092481D01*
X78042481Y-148211015D01*
X77903100Y-148304147D01*
X77748228Y-148368297D01*
X77583816Y-148401000D01*
X77416184Y-148401000D01*
X77251772Y-148368297D01*
X77096900Y-148304147D01*
X76957519Y-148211015D01*
X76838985Y-148092481D01*
X76745853Y-147953100D01*
X76681703Y-147798228D01*
X76649000Y-147633816D01*
X76649000Y-147466184D01*
X76681703Y-147301772D01*
X76745853Y-147146900D01*
X76838985Y-147007519D01*
X76957519Y-146888985D01*
X77096900Y-146795853D01*
X77251772Y-146731703D01*
X77416184Y-146699000D01*
X77583816Y-146699000D01*
X77748228Y-146731703D01*
G37*
G36*
X90448228Y-142981703D02*
G01*
X90603100Y-143045853D01*
X90742481Y-143138985D01*
X90861015Y-143257519D01*
X90954147Y-143396900D01*
X91018297Y-143551772D01*
X91051000Y-143716184D01*
X91051000Y-143883816D01*
X91018297Y-144048228D01*
X90954147Y-144203100D01*
X90861015Y-144342481D01*
X90742481Y-144461015D01*
X90603100Y-144554147D01*
X90448228Y-144618297D01*
X90283816Y-144651000D01*
X90116184Y-144651000D01*
X89951772Y-144618297D01*
X89796900Y-144554147D01*
X89657519Y-144461015D01*
X89538985Y-144342481D01*
X89445853Y-144203100D01*
X89381703Y-144048228D01*
X89349000Y-143883816D01*
X89349000Y-143716184D01*
X89381703Y-143551772D01*
X89445853Y-143396900D01*
X89538985Y-143257519D01*
X89657519Y-143138985D01*
X89796900Y-143045853D01*
X89951772Y-142981703D01*
X90116184Y-142949000D01*
X90283816Y-142949000D01*
X90448228Y-142981703D01*
G37*
G36*
X77748228Y-142981703D02*
G01*
X77903100Y-143045853D01*
X78042481Y-143138985D01*
X78161015Y-143257519D01*
X78254147Y-143396900D01*
X78318297Y-143551772D01*
X78351000Y-143716184D01*
X78351000Y-143883816D01*
X78318297Y-144048228D01*
X78254147Y-144203100D01*
X78161015Y-144342481D01*
X78042481Y-144461015D01*
X77903100Y-144554147D01*
X77748228Y-144618297D01*
X77583816Y-144651000D01*
X77416184Y-144651000D01*
X77251772Y-144618297D01*
X77096900Y-144554147D01*
X76957519Y-144461015D01*
X76838985Y-144342481D01*
X76745853Y-144203100D01*
X76681703Y-144048228D01*
X76649000Y-143883816D01*
X76649000Y-143716184D01*
X76681703Y-143551772D01*
X76745853Y-143396900D01*
X76838985Y-143257519D01*
X76957519Y-143138985D01*
X77096900Y-143045853D01*
X77251772Y-142981703D01*
X77416184Y-142949000D01*
X77583816Y-142949000D01*
X77748228Y-142981703D01*
G37*
G36*
X87951000Y-141051000D02*
G01*
X83849000Y-141051000D01*
X83849000Y-136949000D01*
X87951000Y-136949000D01*
X87951000Y-141051000D01*
G37*
G36*
X82051000Y-141051000D02*
G01*
X77949000Y-141051000D01*
X77949000Y-136949000D01*
X82051000Y-136949000D01*
X82051000Y-141051000D01*
G37*
G36*
X75656000Y-139156000D02*
G01*
X74204000Y-139156000D01*
X74204000Y-137704000D01*
X75656000Y-137704000D01*
X75656000Y-139156000D01*
G37*
G36*
X75141766Y-135731899D02*
G01*
X75273888Y-135786626D01*
X75273890Y-135786627D01*
X75392798Y-135866079D01*
X75493921Y-135967202D01*
X75493922Y-135967204D01*
X75573374Y-136086112D01*
X75628101Y-136218234D01*
X75656000Y-136358494D01*
X75656000Y-136501506D01*
X75628101Y-136641766D01*
X75573374Y-136773888D01*
X75573373Y-136773890D01*
X75493921Y-136892798D01*
X75392798Y-136993921D01*
X75273890Y-137073373D01*
X75273889Y-137073374D01*
X75273888Y-137073374D01*
X75141766Y-137128101D01*
X75001506Y-137156000D01*
X74858494Y-137156000D01*
X74718234Y-137128101D01*
X74586112Y-137073374D01*
X74586111Y-137073374D01*
X74586110Y-137073373D01*
X74467202Y-136993921D01*
X74366079Y-136892798D01*
X74286627Y-136773890D01*
X74286626Y-136773888D01*
X74231899Y-136641766D01*
X74204000Y-136501506D01*
X74204000Y-136358494D01*
X74231899Y-136218234D01*
X74286626Y-136086112D01*
X74366078Y-135967204D01*
X74366079Y-135967202D01*
X74467202Y-135866079D01*
X74586110Y-135786627D01*
X74586112Y-135786626D01*
X74718234Y-135731899D01*
X74858494Y-135704000D01*
X75001506Y-135704000D01*
X75141766Y-135731899D01*
G37*
G36*
X75141766Y-133731899D02*
G01*
X75273888Y-133786626D01*
X75273890Y-133786627D01*
X75392798Y-133866079D01*
X75493921Y-133967202D01*
X75493922Y-133967204D01*
X75573374Y-134086112D01*
X75628101Y-134218234D01*
X75656000Y-134358494D01*
X75656000Y-134501506D01*
X75628101Y-134641766D01*
X75573374Y-134773888D01*
X75573373Y-134773890D01*
X75493921Y-134892798D01*
X75392798Y-134993921D01*
X75273890Y-135073373D01*
X75273889Y-135073374D01*
X75273888Y-135073374D01*
X75141766Y-135128101D01*
X75001506Y-135156000D01*
X74858494Y-135156000D01*
X74718234Y-135128101D01*
X74586112Y-135073374D01*
X74586111Y-135073374D01*
X74586110Y-135073373D01*
X74467202Y-134993921D01*
X74366079Y-134892798D01*
X74286627Y-134773890D01*
X74286626Y-134773888D01*
X74231899Y-134641766D01*
X74204000Y-134501506D01*
X74204000Y-134358494D01*
X74231899Y-134218234D01*
X74286626Y-134086112D01*
X74366078Y-133967204D01*
X74366079Y-133967202D01*
X74467202Y-133866079D01*
X74586110Y-133786627D01*
X74586112Y-133786626D01*
X74718234Y-133731899D01*
X74858494Y-133704000D01*
X75001506Y-133704000D01*
X75141766Y-133731899D01*
G37*
G36*
X104217022Y-129770590D02*
G01*
X104317681Y-129801125D01*
X104368012Y-129816392D01*
X104446649Y-129858425D01*
X104507164Y-129890771D01*
X104629133Y-129990867D01*
X104662214Y-130031177D01*
X104729229Y-130112835D01*
X104803608Y-130251987D01*
X104818875Y-130302318D01*
X104849410Y-130402977D01*
X104861000Y-130520655D01*
X104861000Y-131099345D01*
X104849410Y-131217023D01*
X104818875Y-131317682D01*
X104803608Y-131368013D01*
X104729229Y-131507165D01*
X104629133Y-131629133D01*
X104507165Y-131729229D01*
X104368013Y-131803608D01*
X104317682Y-131818875D01*
X104217023Y-131849410D01*
X104060000Y-131864875D01*
X103902978Y-131849410D01*
X103802319Y-131818875D01*
X103751988Y-131803608D01*
X103612836Y-131729229D01*
X103490868Y-131629133D01*
X103478256Y-131613765D01*
X103390771Y-131507165D01*
X103335607Y-131403961D01*
X103316392Y-131368013D01*
X103301125Y-131317682D01*
X103270590Y-131217023D01*
X103259000Y-131099345D01*
X103259000Y-130520656D01*
X103270590Y-130402978D01*
X103316392Y-130251989D01*
X103316392Y-130251988D01*
X103390771Y-130112836D01*
X103398730Y-130103138D01*
X103490867Y-129990867D01*
X103612835Y-129890771D01*
X103673350Y-129858425D01*
X103751987Y-129816392D01*
X103802318Y-129801125D01*
X103902977Y-129770590D01*
X104060000Y-129755125D01*
X104217022Y-129770590D01*
G37*
G36*
X106717022Y-129770590D02*
G01*
X106817681Y-129801125D01*
X106868012Y-129816392D01*
X106946649Y-129858425D01*
X107007164Y-129890771D01*
X107129133Y-129990867D01*
X107162214Y-130031177D01*
X107229229Y-130112835D01*
X107303608Y-130251987D01*
X107318875Y-130302318D01*
X107349410Y-130402977D01*
X107361000Y-130520655D01*
X107361000Y-131099345D01*
X107349410Y-131217023D01*
X107318875Y-131317682D01*
X107303608Y-131368013D01*
X107229229Y-131507165D01*
X107129133Y-131629133D01*
X107007165Y-131729229D01*
X106868013Y-131803608D01*
X106817682Y-131818875D01*
X106717023Y-131849410D01*
X106560000Y-131864875D01*
X106402978Y-131849410D01*
X106302319Y-131818875D01*
X106251988Y-131803608D01*
X106112836Y-131729229D01*
X105990868Y-131629133D01*
X105978256Y-131613765D01*
X105890771Y-131507165D01*
X105835607Y-131403961D01*
X105816392Y-131368013D01*
X105801125Y-131317682D01*
X105770590Y-131217023D01*
X105759000Y-131099345D01*
X105759000Y-130520656D01*
X105770590Y-130402978D01*
X105816392Y-130251989D01*
X105816392Y-130251988D01*
X105890771Y-130112836D01*
X105898730Y-130103138D01*
X105990867Y-129990867D01*
X106112835Y-129890771D01*
X106173350Y-129858425D01*
X106251987Y-129816392D01*
X106302318Y-129801125D01*
X106402977Y-129770590D01*
X106560000Y-129755125D01*
X106717022Y-129770590D01*
G37*
G36*
X101717022Y-129770590D02*
G01*
X101817681Y-129801125D01*
X101868012Y-129816392D01*
X101946649Y-129858425D01*
X102007164Y-129890771D01*
X102129133Y-129990867D01*
X102162214Y-130031177D01*
X102229229Y-130112835D01*
X102303608Y-130251987D01*
X102318875Y-130302318D01*
X102349410Y-130402977D01*
X102361000Y-130520655D01*
X102361000Y-131099345D01*
X102349410Y-131217023D01*
X102318875Y-131317682D01*
X102303608Y-131368013D01*
X102229229Y-131507165D01*
X102129133Y-131629133D01*
X102007165Y-131729229D01*
X101868013Y-131803608D01*
X101817682Y-131818875D01*
X101717023Y-131849410D01*
X101560000Y-131864875D01*
X101402978Y-131849410D01*
X101302319Y-131818875D01*
X101251988Y-131803608D01*
X101112836Y-131729229D01*
X100990868Y-131629133D01*
X100978256Y-131613765D01*
X100890771Y-131507165D01*
X100835607Y-131403961D01*
X100816392Y-131368013D01*
X100801125Y-131317682D01*
X100770590Y-131217023D01*
X100759000Y-131099345D01*
X100759000Y-130520656D01*
X100770590Y-130402978D01*
X100816392Y-130251989D01*
X100816392Y-130251988D01*
X100890771Y-130112836D01*
X100898730Y-130103138D01*
X100990867Y-129990867D01*
X101112835Y-129890771D01*
X101173350Y-129858425D01*
X101251987Y-129816392D01*
X101302318Y-129801125D01*
X101402977Y-129770590D01*
X101560000Y-129755125D01*
X101717022Y-129770590D01*
G37*
G36*
X99588823Y-129766087D02*
G01*
X99652111Y-129785286D01*
X99710449Y-129816468D01*
X99761575Y-129858425D01*
X99803532Y-129909551D01*
X99834714Y-129967889D01*
X99853913Y-130031177D01*
X99861000Y-130103138D01*
X99861000Y-131516862D01*
X99853913Y-131588823D01*
X99834714Y-131652111D01*
X99803532Y-131710449D01*
X99761575Y-131761575D01*
X99710449Y-131803532D01*
X99652111Y-131834714D01*
X99588823Y-131853913D01*
X99516862Y-131861000D01*
X98603138Y-131861000D01*
X98531177Y-131853913D01*
X98467889Y-131834714D01*
X98409551Y-131803532D01*
X98358425Y-131761575D01*
X98316468Y-131710449D01*
X98285286Y-131652111D01*
X98266087Y-131588823D01*
X98259000Y-131516862D01*
X98259000Y-130103138D01*
X98266087Y-130031177D01*
X98285286Y-129967889D01*
X98316468Y-129909551D01*
X98358425Y-129858425D01*
X98409551Y-129816468D01*
X98467889Y-129785286D01*
X98531177Y-129766087D01*
X98603138Y-129759000D01*
X99516862Y-129759000D01*
X99588823Y-129766087D01*
G37*
G36*
X75648228Y-110741703D02*
G01*
X75803100Y-110805853D01*
X75942481Y-110898985D01*
X76061015Y-111017519D01*
X76154147Y-111156900D01*
X76218297Y-111311772D01*
X76251000Y-111476184D01*
X76251000Y-111643816D01*
X76218297Y-111808228D01*
X76154147Y-111963100D01*
X76061015Y-112102481D01*
X75942481Y-112221015D01*
X75803100Y-112314147D01*
X75648228Y-112378297D01*
X75483816Y-112411000D01*
X75316184Y-112411000D01*
X75151772Y-112378297D01*
X74996900Y-112314147D01*
X74857519Y-112221015D01*
X74738985Y-112102481D01*
X74645853Y-111963100D01*
X74581703Y-111808228D01*
X74549000Y-111643816D01*
X74549000Y-111476184D01*
X74581703Y-111311772D01*
X74645853Y-111156900D01*
X74738985Y-111017519D01*
X74857519Y-110898985D01*
X74996900Y-110805853D01*
X75151772Y-110741703D01*
X75316184Y-110709000D01*
X75483816Y-110709000D01*
X75648228Y-110741703D01*
G37*
G36*
X90888228Y-110741703D02*
G01*
X91043100Y-110805853D01*
X91182481Y-110898985D01*
X91301015Y-111017519D01*
X91394147Y-111156900D01*
X91458297Y-111311772D01*
X91491000Y-111476184D01*
X91491000Y-111643816D01*
X91458297Y-111808228D01*
X91394147Y-111963100D01*
X91301015Y-112102481D01*
X91182481Y-112221015D01*
X91043100Y-112314147D01*
X90888228Y-112378297D01*
X90723816Y-112411000D01*
X90556184Y-112411000D01*
X90391772Y-112378297D01*
X90236900Y-112314147D01*
X90097519Y-112221015D01*
X89978985Y-112102481D01*
X89885853Y-111963100D01*
X89821703Y-111808228D01*
X89789000Y-111643816D01*
X89789000Y-111476184D01*
X89821703Y-111311772D01*
X89885853Y-111156900D01*
X89978985Y-111017519D01*
X90097519Y-110898985D01*
X90236900Y-110805853D01*
X90391772Y-110741703D01*
X90556184Y-110709000D01*
X90723816Y-110709000D01*
X90888228Y-110741703D01*
G37*
G36*
X90888228Y-108201703D02*
G01*
X91043100Y-108265853D01*
X91182481Y-108358985D01*
X91301015Y-108477519D01*
X91394147Y-108616900D01*
X91458297Y-108771772D01*
X91491000Y-108936184D01*
X91491000Y-109103816D01*
X91458297Y-109268228D01*
X91394147Y-109423100D01*
X91301015Y-109562481D01*
X91182481Y-109681015D01*
X91043100Y-109774147D01*
X90888228Y-109838297D01*
X90723816Y-109871000D01*
X90556184Y-109871000D01*
X90391772Y-109838297D01*
X90236900Y-109774147D01*
X90097519Y-109681015D01*
X89978985Y-109562481D01*
X89885853Y-109423100D01*
X89821703Y-109268228D01*
X89789000Y-109103816D01*
X89789000Y-108936184D01*
X89821703Y-108771772D01*
X89885853Y-108616900D01*
X89978985Y-108477519D01*
X90097519Y-108358985D01*
X90236900Y-108265853D01*
X90391772Y-108201703D01*
X90556184Y-108169000D01*
X90723816Y-108169000D01*
X90888228Y-108201703D01*
G37*
G36*
X75648228Y-108201703D02*
G01*
X75803100Y-108265853D01*
X75942481Y-108358985D01*
X76061015Y-108477519D01*
X76154147Y-108616900D01*
X76218297Y-108771772D01*
X76251000Y-108936184D01*
X76251000Y-109103816D01*
X76218297Y-109268228D01*
X76154147Y-109423100D01*
X76061015Y-109562481D01*
X75942481Y-109681015D01*
X75803100Y-109774147D01*
X75648228Y-109838297D01*
X75483816Y-109871000D01*
X75316184Y-109871000D01*
X75151772Y-109838297D01*
X74996900Y-109774147D01*
X74857519Y-109681015D01*
X74738985Y-109562481D01*
X74645853Y-109423100D01*
X74581703Y-109268228D01*
X74549000Y-109103816D01*
X74549000Y-108936184D01*
X74581703Y-108771772D01*
X74645853Y-108616900D01*
X74738985Y-108477519D01*
X74857519Y-108358985D01*
X74996900Y-108265853D01*
X75151772Y-108201703D01*
X75316184Y-108169000D01*
X75483816Y-108169000D01*
X75648228Y-108201703D01*
G37*
G36*
X90888228Y-105661703D02*
G01*
X91043100Y-105725853D01*
X91182481Y-105818985D01*
X91301015Y-105937519D01*
X91394147Y-106076900D01*
X91458297Y-106231772D01*
X91491000Y-106396184D01*
X91491000Y-106563816D01*
X91458297Y-106728228D01*
X91394147Y-106883100D01*
X91301015Y-107022481D01*
X91182481Y-107141015D01*
X91043100Y-107234147D01*
X90888228Y-107298297D01*
X90723816Y-107331000D01*
X90556184Y-107331000D01*
X90391772Y-107298297D01*
X90236900Y-107234147D01*
X90097519Y-107141015D01*
X89978985Y-107022481D01*
X89885853Y-106883100D01*
X89821703Y-106728228D01*
X89789000Y-106563816D01*
X89789000Y-106396184D01*
X89821703Y-106231772D01*
X89885853Y-106076900D01*
X89978985Y-105937519D01*
X90097519Y-105818985D01*
X90236900Y-105725853D01*
X90391772Y-105661703D01*
X90556184Y-105629000D01*
X90723816Y-105629000D01*
X90888228Y-105661703D01*
G37*
G36*
X75648228Y-105661703D02*
G01*
X75803100Y-105725853D01*
X75942481Y-105818985D01*
X76061015Y-105937519D01*
X76154147Y-106076900D01*
X76218297Y-106231772D01*
X76251000Y-106396184D01*
X76251000Y-106563816D01*
X76218297Y-106728228D01*
X76154147Y-106883100D01*
X76061015Y-107022481D01*
X75942481Y-107141015D01*
X75803100Y-107234147D01*
X75648228Y-107298297D01*
X75483816Y-107331000D01*
X75316184Y-107331000D01*
X75151772Y-107298297D01*
X74996900Y-107234147D01*
X74857519Y-107141015D01*
X74738985Y-107022481D01*
X74645853Y-106883100D01*
X74581703Y-106728228D01*
X74549000Y-106563816D01*
X74549000Y-106396184D01*
X74581703Y-106231772D01*
X74645853Y-106076900D01*
X74738985Y-105937519D01*
X74857519Y-105818985D01*
X74996900Y-105725853D01*
X75151772Y-105661703D01*
X75316184Y-105629000D01*
X75483816Y-105629000D01*
X75648228Y-105661703D01*
G37*
G36*
X90888228Y-103121703D02*
G01*
X91043100Y-103185853D01*
X91182481Y-103278985D01*
X91301015Y-103397519D01*
X91394147Y-103536900D01*
X91458297Y-103691772D01*
X91491000Y-103856184D01*
X91491000Y-104023816D01*
X91458297Y-104188228D01*
X91394147Y-104343100D01*
X91301015Y-104482481D01*
X91182481Y-104601015D01*
X91043100Y-104694147D01*
X90888228Y-104758297D01*
X90723816Y-104791000D01*
X90556184Y-104791000D01*
X90391772Y-104758297D01*
X90236900Y-104694147D01*
X90097519Y-104601015D01*
X89978985Y-104482481D01*
X89885853Y-104343100D01*
X89821703Y-104188228D01*
X89789000Y-104023816D01*
X89789000Y-103856184D01*
X89821703Y-103691772D01*
X89885853Y-103536900D01*
X89978985Y-103397519D01*
X90097519Y-103278985D01*
X90236900Y-103185853D01*
X90391772Y-103121703D01*
X90556184Y-103089000D01*
X90723816Y-103089000D01*
X90888228Y-103121703D01*
G37*
G36*
X75648228Y-103121703D02*
G01*
X75803100Y-103185853D01*
X75942481Y-103278985D01*
X76061015Y-103397519D01*
X76154147Y-103536900D01*
X76218297Y-103691772D01*
X76251000Y-103856184D01*
X76251000Y-104023816D01*
X76218297Y-104188228D01*
X76154147Y-104343100D01*
X76061015Y-104482481D01*
X75942481Y-104601015D01*
X75803100Y-104694147D01*
X75648228Y-104758297D01*
X75483816Y-104791000D01*
X75316184Y-104791000D01*
X75151772Y-104758297D01*
X74996900Y-104694147D01*
X74857519Y-104601015D01*
X74738985Y-104482481D01*
X74645853Y-104343100D01*
X74581703Y-104188228D01*
X74549000Y-104023816D01*
X74549000Y-103856184D01*
X74581703Y-103691772D01*
X74645853Y-103536900D01*
X74738985Y-103397519D01*
X74857519Y-103278985D01*
X74996900Y-103185853D01*
X75151772Y-103121703D01*
X75316184Y-103089000D01*
X75483816Y-103089000D01*
X75648228Y-103121703D01*
G37*
G36*
X90888228Y-100581703D02*
G01*
X91043100Y-100645853D01*
X91182481Y-100738985D01*
X91301015Y-100857519D01*
X91394147Y-100996900D01*
X91458297Y-101151772D01*
X91491000Y-101316184D01*
X91491000Y-101483816D01*
X91458297Y-101648228D01*
X91394147Y-101803100D01*
X91301015Y-101942481D01*
X91182481Y-102061015D01*
X91043100Y-102154147D01*
X90888228Y-102218297D01*
X90723816Y-102251000D01*
X90556184Y-102251000D01*
X90391772Y-102218297D01*
X90236900Y-102154147D01*
X90097519Y-102061015D01*
X89978985Y-101942481D01*
X89885853Y-101803100D01*
X89821703Y-101648228D01*
X89789000Y-101483816D01*
X89789000Y-101316184D01*
X89821703Y-101151772D01*
X89885853Y-100996900D01*
X89978985Y-100857519D01*
X90097519Y-100738985D01*
X90236900Y-100645853D01*
X90391772Y-100581703D01*
X90556184Y-100549000D01*
X90723816Y-100549000D01*
X90888228Y-100581703D01*
G37*
G36*
X75648228Y-100581703D02*
G01*
X75803100Y-100645853D01*
X75942481Y-100738985D01*
X76061015Y-100857519D01*
X76154147Y-100996900D01*
X76218297Y-101151772D01*
X76251000Y-101316184D01*
X76251000Y-101483816D01*
X76218297Y-101648228D01*
X76154147Y-101803100D01*
X76061015Y-101942481D01*
X75942481Y-102061015D01*
X75803100Y-102154147D01*
X75648228Y-102218297D01*
X75483816Y-102251000D01*
X75316184Y-102251000D01*
X75151772Y-102218297D01*
X74996900Y-102154147D01*
X74857519Y-102061015D01*
X74738985Y-101942481D01*
X74645853Y-101803100D01*
X74581703Y-101648228D01*
X74549000Y-101483816D01*
X74549000Y-101316184D01*
X74581703Y-101151772D01*
X74645853Y-100996900D01*
X74738985Y-100857519D01*
X74857519Y-100738985D01*
X74996900Y-100645853D01*
X75151772Y-100581703D01*
X75316184Y-100549000D01*
X75483816Y-100549000D01*
X75648228Y-100581703D01*
G37*
G36*
X90888228Y-98041703D02*
G01*
X91043100Y-98105853D01*
X91182481Y-98198985D01*
X91301015Y-98317519D01*
X91394147Y-98456900D01*
X91458297Y-98611772D01*
X91491000Y-98776184D01*
X91491000Y-98943816D01*
X91458297Y-99108228D01*
X91394147Y-99263100D01*
X91301015Y-99402481D01*
X91182481Y-99521015D01*
X91043100Y-99614147D01*
X90888228Y-99678297D01*
X90723816Y-99711000D01*
X90556184Y-99711000D01*
X90391772Y-99678297D01*
X90236900Y-99614147D01*
X90097519Y-99521015D01*
X89978985Y-99402481D01*
X89885853Y-99263100D01*
X89821703Y-99108228D01*
X89789000Y-98943816D01*
X89789000Y-98776184D01*
X89821703Y-98611772D01*
X89885853Y-98456900D01*
X89978985Y-98317519D01*
X90097519Y-98198985D01*
X90236900Y-98105853D01*
X90391772Y-98041703D01*
X90556184Y-98009000D01*
X90723816Y-98009000D01*
X90888228Y-98041703D01*
G37*
G36*
X75648228Y-98041703D02*
G01*
X75803100Y-98105853D01*
X75942481Y-98198985D01*
X76061015Y-98317519D01*
X76154147Y-98456900D01*
X76218297Y-98611772D01*
X76251000Y-98776184D01*
X76251000Y-98943816D01*
X76218297Y-99108228D01*
X76154147Y-99263100D01*
X76061015Y-99402481D01*
X75942481Y-99521015D01*
X75803100Y-99614147D01*
X75648228Y-99678297D01*
X75483816Y-99711000D01*
X75316184Y-99711000D01*
X75151772Y-99678297D01*
X74996900Y-99614147D01*
X74857519Y-99521015D01*
X74738985Y-99402481D01*
X74645853Y-99263100D01*
X74581703Y-99108228D01*
X74549000Y-98943816D01*
X74549000Y-98776184D01*
X74581703Y-98611772D01*
X74645853Y-98456900D01*
X74738985Y-98317519D01*
X74857519Y-98198985D01*
X74996900Y-98105853D01*
X75151772Y-98041703D01*
X75316184Y-98009000D01*
X75483816Y-98009000D01*
X75648228Y-98041703D01*
G37*
G36*
X90888228Y-95501703D02*
G01*
X91043100Y-95565853D01*
X91182481Y-95658985D01*
X91301015Y-95777519D01*
X91394147Y-95916900D01*
X91458297Y-96071772D01*
X91491000Y-96236184D01*
X91491000Y-96403816D01*
X91458297Y-96568228D01*
X91394147Y-96723100D01*
X91301015Y-96862481D01*
X91182481Y-96981015D01*
X91043100Y-97074147D01*
X90888228Y-97138297D01*
X90723816Y-97171000D01*
X90556184Y-97171000D01*
X90391772Y-97138297D01*
X90236900Y-97074147D01*
X90097519Y-96981015D01*
X89978985Y-96862481D01*
X89885853Y-96723100D01*
X89821703Y-96568228D01*
X89789000Y-96403816D01*
X89789000Y-96236184D01*
X89821703Y-96071772D01*
X89885853Y-95916900D01*
X89978985Y-95777519D01*
X90097519Y-95658985D01*
X90236900Y-95565853D01*
X90391772Y-95501703D01*
X90556184Y-95469000D01*
X90723816Y-95469000D01*
X90888228Y-95501703D01*
G37*
G36*
X75648228Y-95501703D02*
G01*
X75803100Y-95565853D01*
X75942481Y-95658985D01*
X76061015Y-95777519D01*
X76154147Y-95916900D01*
X76218297Y-96071772D01*
X76251000Y-96236184D01*
X76251000Y-96403816D01*
X76218297Y-96568228D01*
X76154147Y-96723100D01*
X76061015Y-96862481D01*
X75942481Y-96981015D01*
X75803100Y-97074147D01*
X75648228Y-97138297D01*
X75483816Y-97171000D01*
X75316184Y-97171000D01*
X75151772Y-97138297D01*
X74996900Y-97074147D01*
X74857519Y-96981015D01*
X74738985Y-96862481D01*
X74645853Y-96723100D01*
X74581703Y-96568228D01*
X74549000Y-96403816D01*
X74549000Y-96236184D01*
X74581703Y-96071772D01*
X74645853Y-95916900D01*
X74738985Y-95777519D01*
X74857519Y-95658985D01*
X74996900Y-95565853D01*
X75151772Y-95501703D01*
X75316184Y-95469000D01*
X75483816Y-95469000D01*
X75648228Y-95501703D01*
G37*
G36*
X90888228Y-92961703D02*
G01*
X91043100Y-93025853D01*
X91182481Y-93118985D01*
X91301015Y-93237519D01*
X91394147Y-93376900D01*
X91458297Y-93531772D01*
X91491000Y-93696184D01*
X91491000Y-93863816D01*
X91458297Y-94028228D01*
X91394147Y-94183100D01*
X91301015Y-94322481D01*
X91182481Y-94441015D01*
X91043100Y-94534147D01*
X90888228Y-94598297D01*
X90723816Y-94631000D01*
X90556184Y-94631000D01*
X90391772Y-94598297D01*
X90236900Y-94534147D01*
X90097519Y-94441015D01*
X89978985Y-94322481D01*
X89885853Y-94183100D01*
X89821703Y-94028228D01*
X89789000Y-93863816D01*
X89789000Y-93696184D01*
X89821703Y-93531772D01*
X89885853Y-93376900D01*
X89978985Y-93237519D01*
X90097519Y-93118985D01*
X90236900Y-93025853D01*
X90391772Y-92961703D01*
X90556184Y-92929000D01*
X90723816Y-92929000D01*
X90888228Y-92961703D01*
G37*
G36*
X75648228Y-92961703D02*
G01*
X75803100Y-93025853D01*
X75942481Y-93118985D01*
X76061015Y-93237519D01*
X76154147Y-93376900D01*
X76218297Y-93531772D01*
X76251000Y-93696184D01*
X76251000Y-93863816D01*
X76218297Y-94028228D01*
X76154147Y-94183100D01*
X76061015Y-94322481D01*
X75942481Y-94441015D01*
X75803100Y-94534147D01*
X75648228Y-94598297D01*
X75483816Y-94631000D01*
X75316184Y-94631000D01*
X75151772Y-94598297D01*
X74996900Y-94534147D01*
X74857519Y-94441015D01*
X74738985Y-94322481D01*
X74645853Y-94183100D01*
X74581703Y-94028228D01*
X74549000Y-93863816D01*
X74549000Y-93696184D01*
X74581703Y-93531772D01*
X74645853Y-93376900D01*
X74738985Y-93237519D01*
X74857519Y-93118985D01*
X74996900Y-93025853D01*
X75151772Y-92961703D01*
X75316184Y-92929000D01*
X75483816Y-92929000D01*
X75648228Y-92961703D01*
G37*
G36*
X90888228Y-90421703D02*
G01*
X91043100Y-90485853D01*
X91182481Y-90578985D01*
X91301015Y-90697519D01*
X91394147Y-90836900D01*
X91458297Y-90991772D01*
X91491000Y-91156184D01*
X91491000Y-91323816D01*
X91458297Y-91488228D01*
X91394147Y-91643100D01*
X91301015Y-91782481D01*
X91182481Y-91901015D01*
X91043100Y-91994147D01*
X90888228Y-92058297D01*
X90723816Y-92091000D01*
X90556184Y-92091000D01*
X90391772Y-92058297D01*
X90236900Y-91994147D01*
X90097519Y-91901015D01*
X89978985Y-91782481D01*
X89885853Y-91643100D01*
X89821703Y-91488228D01*
X89789000Y-91323816D01*
X89789000Y-91156184D01*
X89821703Y-90991772D01*
X89885853Y-90836900D01*
X89978985Y-90697519D01*
X90097519Y-90578985D01*
X90236900Y-90485853D01*
X90391772Y-90421703D01*
X90556184Y-90389000D01*
X90723816Y-90389000D01*
X90888228Y-90421703D01*
G37*
G36*
X75648228Y-90421703D02*
G01*
X75803100Y-90485853D01*
X75942481Y-90578985D01*
X76061015Y-90697519D01*
X76154147Y-90836900D01*
X76218297Y-90991772D01*
X76251000Y-91156184D01*
X76251000Y-91323816D01*
X76218297Y-91488228D01*
X76154147Y-91643100D01*
X76061015Y-91782481D01*
X75942481Y-91901015D01*
X75803100Y-91994147D01*
X75648228Y-92058297D01*
X75483816Y-92091000D01*
X75316184Y-92091000D01*
X75151772Y-92058297D01*
X74996900Y-91994147D01*
X74857519Y-91901015D01*
X74738985Y-91782481D01*
X74645853Y-91643100D01*
X74581703Y-91488228D01*
X74549000Y-91323816D01*
X74549000Y-91156184D01*
X74581703Y-90991772D01*
X74645853Y-90836900D01*
X74738985Y-90697519D01*
X74857519Y-90578985D01*
X74996900Y-90485853D01*
X75151772Y-90421703D01*
X75316184Y-90389000D01*
X75483816Y-90389000D01*
X75648228Y-90421703D01*
G37*
G36*
X90888228Y-87881703D02*
G01*
X91043100Y-87945853D01*
X91182481Y-88038985D01*
X91301015Y-88157519D01*
X91394147Y-88296900D01*
X91458297Y-88451772D01*
X91491000Y-88616184D01*
X91491000Y-88783816D01*
X91458297Y-88948228D01*
X91394147Y-89103100D01*
X91301015Y-89242481D01*
X91182481Y-89361015D01*
X91043100Y-89454147D01*
X90888228Y-89518297D01*
X90723816Y-89551000D01*
X90556184Y-89551000D01*
X90391772Y-89518297D01*
X90236900Y-89454147D01*
X90097519Y-89361015D01*
X89978985Y-89242481D01*
X89885853Y-89103100D01*
X89821703Y-88948228D01*
X89789000Y-88783816D01*
X89789000Y-88616184D01*
X89821703Y-88451772D01*
X89885853Y-88296900D01*
X89978985Y-88157519D01*
X90097519Y-88038985D01*
X90236900Y-87945853D01*
X90391772Y-87881703D01*
X90556184Y-87849000D01*
X90723816Y-87849000D01*
X90888228Y-87881703D01*
G37*
G36*
X75648228Y-87881703D02*
G01*
X75803100Y-87945853D01*
X75942481Y-88038985D01*
X76061015Y-88157519D01*
X76154147Y-88296900D01*
X76218297Y-88451772D01*
X76251000Y-88616184D01*
X76251000Y-88783816D01*
X76218297Y-88948228D01*
X76154147Y-89103100D01*
X76061015Y-89242481D01*
X75942481Y-89361015D01*
X75803100Y-89454147D01*
X75648228Y-89518297D01*
X75483816Y-89551000D01*
X75316184Y-89551000D01*
X75151772Y-89518297D01*
X74996900Y-89454147D01*
X74857519Y-89361015D01*
X74738985Y-89242481D01*
X74645853Y-89103100D01*
X74581703Y-88948228D01*
X74549000Y-88783816D01*
X74549000Y-88616184D01*
X74581703Y-88451772D01*
X74645853Y-88296900D01*
X74738985Y-88157519D01*
X74857519Y-88038985D01*
X74996900Y-87945853D01*
X75151772Y-87881703D01*
X75316184Y-87849000D01*
X75483816Y-87849000D01*
X75648228Y-87881703D01*
G37*
G36*
X104018433Y-85434893D02*
G01*
X104108657Y-85452839D01*
X104214267Y-85496585D01*
X104363621Y-85558449D01*
X104363622Y-85558450D01*
X104593086Y-85711772D01*
X104788228Y-85906914D01*
X104890675Y-86060237D01*
X104941551Y-86136379D01*
X104986052Y-86243815D01*
X105047161Y-86391343D01*
X105050520Y-86408229D01*
X105101000Y-86662012D01*
X105101000Y-86937988D01*
X105047161Y-87208656D01*
X104941551Y-87463621D01*
X104941550Y-87463622D01*
X104788228Y-87693086D01*
X104593086Y-87888228D01*
X104439763Y-87990675D01*
X104363621Y-88041551D01*
X104214267Y-88103415D01*
X104108657Y-88147161D01*
X104056583Y-88157519D01*
X103837988Y-88201000D01*
X103562012Y-88201000D01*
X103343417Y-88157519D01*
X103291343Y-88147161D01*
X103185733Y-88103415D01*
X103036379Y-88041551D01*
X102960237Y-87990675D01*
X102806914Y-87888228D01*
X102611772Y-87693086D01*
X102458450Y-87463622D01*
X102458449Y-87463621D01*
X102352839Y-87208656D01*
X102299000Y-86937988D01*
X102299000Y-86662012D01*
X102349480Y-86408229D01*
X102352839Y-86391343D01*
X102413948Y-86243815D01*
X102458449Y-86136379D01*
X102509325Y-86060237D01*
X102611772Y-85906914D01*
X102806914Y-85711772D01*
X103036378Y-85558450D01*
X103036379Y-85558449D01*
X103185733Y-85496585D01*
X103291343Y-85452839D01*
X103381567Y-85434893D01*
X103562012Y-85399000D01*
X103837988Y-85399000D01*
X104018433Y-85434893D01*
G37*
G36*
X90888228Y-85341703D02*
G01*
X91043100Y-85405853D01*
X91182481Y-85498985D01*
X91301015Y-85617519D01*
X91394147Y-85756900D01*
X91458297Y-85911772D01*
X91491000Y-86076184D01*
X91491000Y-86243816D01*
X91458297Y-86408228D01*
X91394147Y-86563100D01*
X91301015Y-86702481D01*
X91182481Y-86821015D01*
X91043100Y-86914147D01*
X90888228Y-86978297D01*
X90723816Y-87011000D01*
X90556184Y-87011000D01*
X90391772Y-86978297D01*
X90236900Y-86914147D01*
X90097519Y-86821015D01*
X89978985Y-86702481D01*
X89885853Y-86563100D01*
X89821703Y-86408228D01*
X89789000Y-86243816D01*
X89789000Y-86076184D01*
X89821703Y-85911772D01*
X89885853Y-85756900D01*
X89978985Y-85617519D01*
X90097519Y-85498985D01*
X90236900Y-85405853D01*
X90391772Y-85341703D01*
X90556184Y-85309000D01*
X90723816Y-85309000D01*
X90888228Y-85341703D01*
G37*
G36*
X75648228Y-85341703D02*
G01*
X75803100Y-85405853D01*
X75942481Y-85498985D01*
X76061015Y-85617519D01*
X76154147Y-85756900D01*
X76218297Y-85911772D01*
X76251000Y-86076184D01*
X76251000Y-86243816D01*
X76218297Y-86408228D01*
X76154147Y-86563100D01*
X76061015Y-86702481D01*
X75942481Y-86821015D01*
X75803100Y-86914147D01*
X75648228Y-86978297D01*
X75483816Y-87011000D01*
X75316184Y-87011000D01*
X75151772Y-86978297D01*
X74996900Y-86914147D01*
X74857519Y-86821015D01*
X74738985Y-86702481D01*
X74645853Y-86563100D01*
X74581703Y-86408228D01*
X74549000Y-86243816D01*
X74549000Y-86076184D01*
X74581703Y-85911772D01*
X74645853Y-85756900D01*
X74738985Y-85617519D01*
X74857519Y-85498985D01*
X74996900Y-85405853D01*
X75151772Y-85341703D01*
X75316184Y-85309000D01*
X75483816Y-85309000D01*
X75648228Y-85341703D01*
G37*
G36*
X75648228Y-82801703D02*
G01*
X75803100Y-82865853D01*
X75942481Y-82958985D01*
X76061015Y-83077519D01*
X76154147Y-83216900D01*
X76218297Y-83371772D01*
X76251000Y-83536184D01*
X76251000Y-83703816D01*
X76218297Y-83868228D01*
X76154147Y-84023100D01*
X76061015Y-84162481D01*
X75942481Y-84281015D01*
X75803100Y-84374147D01*
X75648228Y-84438297D01*
X75483816Y-84471000D01*
X75316184Y-84471000D01*
X75151772Y-84438297D01*
X74996900Y-84374147D01*
X74857519Y-84281015D01*
X74738985Y-84162481D01*
X74645853Y-84023100D01*
X74581703Y-83868228D01*
X74549000Y-83703816D01*
X74549000Y-83536184D01*
X74581703Y-83371772D01*
X74645853Y-83216900D01*
X74738985Y-83077519D01*
X74857519Y-82958985D01*
X74996900Y-82865853D01*
X75151772Y-82801703D01*
X75316184Y-82769000D01*
X75483816Y-82769000D01*
X75648228Y-82801703D01*
G37*
G36*
X90888228Y-82801703D02*
G01*
X91043100Y-82865853D01*
X91182481Y-82958985D01*
X91301015Y-83077519D01*
X91394147Y-83216900D01*
X91458297Y-83371772D01*
X91491000Y-83536184D01*
X91491000Y-83703816D01*
X91458297Y-83868228D01*
X91394147Y-84023100D01*
X91301015Y-84162481D01*
X91182481Y-84281015D01*
X91043100Y-84374147D01*
X90888228Y-84438297D01*
X90723816Y-84471000D01*
X90556184Y-84471000D01*
X90391772Y-84438297D01*
X90236900Y-84374147D01*
X90097519Y-84281015D01*
X89978985Y-84162481D01*
X89885853Y-84023100D01*
X89821703Y-83868228D01*
X89789000Y-83703816D01*
X89789000Y-83536184D01*
X89821703Y-83371772D01*
X89885853Y-83216900D01*
X89978985Y-83077519D01*
X90097519Y-82958985D01*
X90236900Y-82865853D01*
X90391772Y-82801703D01*
X90556184Y-82769000D01*
X90723816Y-82769000D01*
X90888228Y-82801703D01*
G37*
G36*
X104974031Y-80402621D02*
G01*
X105003486Y-80411556D01*
X105030623Y-80426062D01*
X105054414Y-80445586D01*
X105073938Y-80469377D01*
X105088444Y-80496514D01*
X105097379Y-80525969D01*
X105101000Y-80562734D01*
X105101000Y-83037266D01*
X105097379Y-83074031D01*
X105088444Y-83103486D01*
X105073938Y-83130623D01*
X105054414Y-83154414D01*
X105030623Y-83173938D01*
X105003486Y-83188444D01*
X104974031Y-83197379D01*
X104937266Y-83201000D01*
X102462734Y-83201000D01*
X102425969Y-83197379D01*
X102396514Y-83188444D01*
X102369377Y-83173938D01*
X102345586Y-83154414D01*
X102326062Y-83130623D01*
X102311556Y-83103486D01*
X102302621Y-83074031D01*
X102299000Y-83037266D01*
X102299000Y-80562734D01*
X102302621Y-80525969D01*
X102311556Y-80496514D01*
X102326062Y-80469377D01*
X102345586Y-80445586D01*
X102369377Y-80426062D01*
X102396514Y-80411556D01*
X102425969Y-80402621D01*
X102462734Y-80399000D01*
X104937266Y-80399000D01*
X104974031Y-80402621D01*
G37*
G36*
X90888228Y-80261703D02*
G01*
X91043100Y-80325853D01*
X91182481Y-80418985D01*
X91301015Y-80537519D01*
X91394147Y-80676900D01*
X91458297Y-80831772D01*
X91491000Y-80996184D01*
X91491000Y-81163816D01*
X91458297Y-81328228D01*
X91394147Y-81483100D01*
X91301015Y-81622481D01*
X91182481Y-81741015D01*
X91043100Y-81834147D01*
X90888228Y-81898297D01*
X90723816Y-81931000D01*
X90556184Y-81931000D01*
X90391772Y-81898297D01*
X90236900Y-81834147D01*
X90097519Y-81741015D01*
X89978985Y-81622481D01*
X89885853Y-81483100D01*
X89821703Y-81328228D01*
X89789000Y-81163816D01*
X89789000Y-80996184D01*
X89821703Y-80831772D01*
X89885853Y-80676900D01*
X89978985Y-80537519D01*
X90097519Y-80418985D01*
X90236900Y-80325853D01*
X90391772Y-80261703D01*
X90556184Y-80229000D01*
X90723816Y-80229000D01*
X90888228Y-80261703D01*
G37*
G36*
X75648228Y-80261703D02*
G01*
X75803100Y-80325853D01*
X75942481Y-80418985D01*
X76061015Y-80537519D01*
X76154147Y-80676900D01*
X76218297Y-80831772D01*
X76251000Y-80996184D01*
X76251000Y-81163816D01*
X76218297Y-81328228D01*
X76154147Y-81483100D01*
X76061015Y-81622481D01*
X75942481Y-81741015D01*
X75803100Y-81834147D01*
X75648228Y-81898297D01*
X75483816Y-81931000D01*
X75316184Y-81931000D01*
X75151772Y-81898297D01*
X74996900Y-81834147D01*
X74857519Y-81741015D01*
X74738985Y-81622481D01*
X74645853Y-81483100D01*
X74581703Y-81328228D01*
X74549000Y-81163816D01*
X74549000Y-80996184D01*
X74581703Y-80831772D01*
X74645853Y-80676900D01*
X74738985Y-80537519D01*
X74857519Y-80418985D01*
X74996900Y-80325853D01*
X75151772Y-80261703D01*
X75316184Y-80229000D01*
X75483816Y-80229000D01*
X75648228Y-80261703D01*
G37*
G36*
X90888228Y-77721703D02*
G01*
X91043100Y-77785853D01*
X91182481Y-77878985D01*
X91301015Y-77997519D01*
X91394147Y-78136900D01*
X91458297Y-78291772D01*
X91491000Y-78456184D01*
X91491000Y-78623816D01*
X91458297Y-78788228D01*
X91394147Y-78943100D01*
X91301015Y-79082481D01*
X91182481Y-79201015D01*
X91043100Y-79294147D01*
X90888228Y-79358297D01*
X90723816Y-79391000D01*
X90556184Y-79391000D01*
X90391772Y-79358297D01*
X90236900Y-79294147D01*
X90097519Y-79201015D01*
X89978985Y-79082481D01*
X89885853Y-78943100D01*
X89821703Y-78788228D01*
X89789000Y-78623816D01*
X89789000Y-78456184D01*
X89821703Y-78291772D01*
X89885853Y-78136900D01*
X89978985Y-77997519D01*
X90097519Y-77878985D01*
X90236900Y-77785853D01*
X90391772Y-77721703D01*
X90556184Y-77689000D01*
X90723816Y-77689000D01*
X90888228Y-77721703D01*
G37*
G36*
X75648228Y-77721703D02*
G01*
X75803100Y-77785853D01*
X75942481Y-77878985D01*
X76061015Y-77997519D01*
X76154147Y-78136900D01*
X76218297Y-78291772D01*
X76251000Y-78456184D01*
X76251000Y-78623816D01*
X76218297Y-78788228D01*
X76154147Y-78943100D01*
X76061015Y-79082481D01*
X75942481Y-79201015D01*
X75803100Y-79294147D01*
X75648228Y-79358297D01*
X75483816Y-79391000D01*
X75316184Y-79391000D01*
X75151772Y-79358297D01*
X74996900Y-79294147D01*
X74857519Y-79201015D01*
X74738985Y-79082481D01*
X74645853Y-78943100D01*
X74581703Y-78788228D01*
X74549000Y-78623816D01*
X74549000Y-78456184D01*
X74581703Y-78291772D01*
X74645853Y-78136900D01*
X74738985Y-77997519D01*
X74857519Y-77878985D01*
X74996900Y-77785853D01*
X75151772Y-77721703D01*
X75316184Y-77689000D01*
X75483816Y-77689000D01*
X75648228Y-77721703D01*
G37*
G36*
X76251000Y-76851000D02*
G01*
X74549000Y-76851000D01*
X74549000Y-75149000D01*
X76251000Y-75149000D01*
X76251000Y-76851000D01*
G37*
G36*
X90888228Y-75181703D02*
G01*
X91043100Y-75245853D01*
X91182481Y-75338985D01*
X91301015Y-75457519D01*
X91394147Y-75596900D01*
X91458297Y-75751772D01*
X91491000Y-75916184D01*
X91491000Y-76083816D01*
X91458297Y-76248228D01*
X91394147Y-76403100D01*
X91301015Y-76542481D01*
X91182481Y-76661015D01*
X91043100Y-76754147D01*
X90888228Y-76818297D01*
X90723816Y-76851000D01*
X90556184Y-76851000D01*
X90391772Y-76818297D01*
X90236900Y-76754147D01*
X90097519Y-76661015D01*
X89978985Y-76542481D01*
X89885853Y-76403100D01*
X89821703Y-76248228D01*
X89789000Y-76083816D01*
X89789000Y-75916184D01*
X89821703Y-75751772D01*
X89885853Y-75596900D01*
X89978985Y-75457519D01*
X90097519Y-75338985D01*
X90236900Y-75245853D01*
X90391772Y-75181703D01*
X90556184Y-75149000D01*
X90723816Y-75149000D01*
X90888228Y-75181703D01*
G37*
G36*
X104018433Y-73434893D02*
G01*
X104108657Y-73452839D01*
X104214267Y-73496585D01*
X104363621Y-73558449D01*
X104363622Y-73558450D01*
X104593086Y-73711772D01*
X104788228Y-73906914D01*
X104890675Y-74060237D01*
X104941551Y-74136379D01*
X105003415Y-74285733D01*
X105047161Y-74391343D01*
X105101000Y-74662014D01*
X105101000Y-74937986D01*
X105047161Y-75208657D01*
X105003415Y-75314267D01*
X104941551Y-75463621D01*
X104941550Y-75463622D01*
X104788228Y-75693086D01*
X104593086Y-75888228D01*
X104439763Y-75990675D01*
X104363621Y-76041551D01*
X104261584Y-76083816D01*
X104108657Y-76147161D01*
X104018433Y-76165107D01*
X103837988Y-76201000D01*
X103562012Y-76201000D01*
X103381567Y-76165107D01*
X103291343Y-76147161D01*
X103138416Y-76083816D01*
X103036379Y-76041551D01*
X102960237Y-75990675D01*
X102806914Y-75888228D01*
X102611772Y-75693086D01*
X102458450Y-75463622D01*
X102458449Y-75463621D01*
X102396585Y-75314267D01*
X102352839Y-75208657D01*
X102299000Y-74937986D01*
X102299000Y-74662014D01*
X102352839Y-74391343D01*
X102396585Y-74285733D01*
X102458449Y-74136379D01*
X102509325Y-74060237D01*
X102611772Y-73906914D01*
X102806914Y-73711772D01*
X103036378Y-73558450D01*
X103036379Y-73558449D01*
X103185733Y-73496585D01*
X103291343Y-73452839D01*
X103381567Y-73434893D01*
X103562012Y-73399000D01*
X103837988Y-73399000D01*
X104018433Y-73434893D01*
G37*
G36*
X104974031Y-68402621D02*
G01*
X105003486Y-68411556D01*
X105030623Y-68426062D01*
X105054414Y-68445586D01*
X105073938Y-68469377D01*
X105088444Y-68496514D01*
X105097379Y-68525969D01*
X105101000Y-68562734D01*
X105101000Y-71037266D01*
X105097379Y-71074031D01*
X105088444Y-71103486D01*
X105073938Y-71130623D01*
X105054414Y-71154414D01*
X105030623Y-71173938D01*
X105003486Y-71188444D01*
X104974031Y-71197379D01*
X104937266Y-71201000D01*
X102462734Y-71201000D01*
X102425969Y-71197379D01*
X102396514Y-71188444D01*
X102369377Y-71173938D01*
X102345586Y-71154414D01*
X102326062Y-71130623D01*
X102311556Y-71103486D01*
X102302621Y-71074031D01*
X102299000Y-71037266D01*
X102299000Y-68562734D01*
X102302621Y-68525969D01*
X102311556Y-68496514D01*
X102326062Y-68469377D01*
X102345586Y-68445586D01*
X102369377Y-68426062D01*
X102396514Y-68411556D01*
X102425969Y-68402621D01*
X102462734Y-68399000D01*
X104937266Y-68399000D01*
X104974031Y-68402621D01*
G37*
G36*
X77338843Y-69642292D02*
G01*
X77389588Y-69663311D01*
X77425470Y-69678174D01*
X77503432Y-69730267D01*
X77510613Y-69737448D01*
X77529555Y-69752993D01*
X77551166Y-69764544D01*
X77574615Y-69771657D01*
X77599001Y-69774059D01*
X77623387Y-69771657D01*
X77646836Y-69764544D01*
X77668447Y-69752993D01*
X77687389Y-69737448D01*
X77702934Y-69718506D01*
X77714485Y-69696895D01*
X77721598Y-69673446D01*
X77724000Y-69649060D01*
X77724000Y-69624000D01*
X78676000Y-69624000D01*
X78676000Y-70576000D01*
X77724000Y-70576000D01*
X77724000Y-70550940D01*
X77721598Y-70526554D01*
X77714485Y-70503105D01*
X77702934Y-70481494D01*
X77687389Y-70462552D01*
X77668447Y-70447007D01*
X77646836Y-70435456D01*
X77623387Y-70428343D01*
X77599001Y-70425941D01*
X77574615Y-70428343D01*
X77551166Y-70435456D01*
X77529555Y-70447007D01*
X77510613Y-70462552D01*
X77503432Y-70469733D01*
X77425470Y-70521826D01*
X77414055Y-70526554D01*
X77338843Y-70557708D01*
X77246883Y-70576000D01*
X77153117Y-70576000D01*
X77061157Y-70557708D01*
X76985945Y-70526554D01*
X76974530Y-70521826D01*
X76896568Y-70469733D01*
X76830267Y-70403432D01*
X76778174Y-70325470D01*
X76763311Y-70289588D01*
X76742292Y-70238843D01*
X76724000Y-70146883D01*
X76724000Y-70053117D01*
X76742292Y-69961157D01*
X76778174Y-69874531D01*
X76778174Y-69874530D01*
X76830267Y-69796568D01*
X76896568Y-69730267D01*
X76974530Y-69678174D01*
X77010412Y-69663311D01*
X77061157Y-69642292D01*
X77153117Y-69624000D01*
X77246883Y-69624000D01*
X77338843Y-69642292D01*
G37*
G36*
X82138843Y-66042292D02*
G01*
X82189588Y-66063311D01*
X82225470Y-66078174D01*
X82303432Y-66130267D01*
X82369735Y-66196570D01*
X82396067Y-66235979D01*
X82411612Y-66254921D01*
X82430554Y-66270466D01*
X82452164Y-66282018D01*
X82475613Y-66289131D01*
X82499999Y-66291533D01*
X82524385Y-66289131D01*
X82547834Y-66282018D01*
X82569445Y-66270467D01*
X82588387Y-66254922D01*
X82603933Y-66235979D01*
X82630265Y-66196570D01*
X82696568Y-66130267D01*
X82774530Y-66078174D01*
X82810412Y-66063311D01*
X82861157Y-66042292D01*
X82953117Y-66024000D01*
X83046883Y-66024000D01*
X83138843Y-66042292D01*
X83189588Y-66063311D01*
X83225470Y-66078174D01*
X83303432Y-66130267D01*
X83369735Y-66196570D01*
X83396067Y-66235979D01*
X83411612Y-66254921D01*
X83430554Y-66270466D01*
X83452164Y-66282018D01*
X83475613Y-66289131D01*
X83499999Y-66291533D01*
X83524385Y-66289131D01*
X83547834Y-66282018D01*
X83569445Y-66270467D01*
X83588387Y-66254922D01*
X83603933Y-66235979D01*
X83630265Y-66196570D01*
X83696568Y-66130267D01*
X83774530Y-66078174D01*
X83810412Y-66063311D01*
X83861157Y-66042292D01*
X83953117Y-66024000D01*
X84046883Y-66024000D01*
X84138843Y-66042292D01*
X84189588Y-66063311D01*
X84225470Y-66078174D01*
X84303432Y-66130267D01*
X84369735Y-66196570D01*
X84396067Y-66235979D01*
X84411612Y-66254921D01*
X84430554Y-66270466D01*
X84452164Y-66282018D01*
X84475613Y-66289131D01*
X84499999Y-66291533D01*
X84524385Y-66289131D01*
X84547834Y-66282018D01*
X84569445Y-66270467D01*
X84588387Y-66254922D01*
X84603933Y-66235979D01*
X84630265Y-66196570D01*
X84696568Y-66130267D01*
X84774530Y-66078174D01*
X84810412Y-66063311D01*
X84861157Y-66042292D01*
X84953117Y-66024000D01*
X85046883Y-66024000D01*
X85138843Y-66042292D01*
X85189588Y-66063311D01*
X85225470Y-66078174D01*
X85303432Y-66130267D01*
X85369735Y-66196570D01*
X85396067Y-66235979D01*
X85411612Y-66254921D01*
X85430554Y-66270466D01*
X85452164Y-66282018D01*
X85475613Y-66289131D01*
X85499999Y-66291533D01*
X85524385Y-66289131D01*
X85547834Y-66282018D01*
X85569445Y-66270467D01*
X85588387Y-66254922D01*
X85603933Y-66235979D01*
X85630265Y-66196570D01*
X85696568Y-66130267D01*
X85774530Y-66078174D01*
X85810412Y-66063311D01*
X85861157Y-66042292D01*
X85953117Y-66024000D01*
X86046883Y-66024000D01*
X86138843Y-66042292D01*
X86189588Y-66063311D01*
X86225470Y-66078174D01*
X86303432Y-66130267D01*
X86369735Y-66196570D01*
X86396067Y-66235979D01*
X86411612Y-66254921D01*
X86430554Y-66270466D01*
X86452164Y-66282018D01*
X86475613Y-66289131D01*
X86499999Y-66291533D01*
X86524385Y-66289131D01*
X86547834Y-66282018D01*
X86569445Y-66270467D01*
X86588387Y-66254922D01*
X86603933Y-66235979D01*
X86630265Y-66196570D01*
X86696568Y-66130267D01*
X86774530Y-66078174D01*
X86810412Y-66063311D01*
X86861157Y-66042292D01*
X86953117Y-66024000D01*
X87046883Y-66024000D01*
X87138843Y-66042292D01*
X87189588Y-66063311D01*
X87225470Y-66078174D01*
X87303432Y-66130267D01*
X87369735Y-66196570D01*
X87396067Y-66235979D01*
X87411612Y-66254921D01*
X87430554Y-66270466D01*
X87452164Y-66282018D01*
X87475613Y-66289131D01*
X87499999Y-66291533D01*
X87524385Y-66289131D01*
X87547834Y-66282018D01*
X87569445Y-66270467D01*
X87588387Y-66254922D01*
X87603933Y-66235979D01*
X87630265Y-66196570D01*
X87696568Y-66130267D01*
X87774530Y-66078174D01*
X87810412Y-66063311D01*
X87861157Y-66042292D01*
X87953117Y-66024000D01*
X88046883Y-66024000D01*
X88138843Y-66042292D01*
X88189588Y-66063311D01*
X88225470Y-66078174D01*
X88303432Y-66130267D01*
X88369735Y-66196570D01*
X88396067Y-66235979D01*
X88411612Y-66254921D01*
X88430554Y-66270466D01*
X88452164Y-66282018D01*
X88475613Y-66289131D01*
X88499999Y-66291533D01*
X88524385Y-66289131D01*
X88547834Y-66282018D01*
X88569445Y-66270467D01*
X88588387Y-66254922D01*
X88603933Y-66235979D01*
X88630265Y-66196570D01*
X88696568Y-66130267D01*
X88774530Y-66078174D01*
X88810412Y-66063311D01*
X88861157Y-66042292D01*
X88953117Y-66024000D01*
X89046883Y-66024000D01*
X89138843Y-66042292D01*
X89189588Y-66063311D01*
X89225470Y-66078174D01*
X89303432Y-66130267D01*
X89369735Y-66196570D01*
X89396067Y-66235979D01*
X89411612Y-66254921D01*
X89430554Y-66270466D01*
X89452164Y-66282018D01*
X89475613Y-66289131D01*
X89499999Y-66291533D01*
X89524385Y-66289131D01*
X89547834Y-66282018D01*
X89569445Y-66270467D01*
X89588387Y-66254922D01*
X89603933Y-66235979D01*
X89630265Y-66196570D01*
X89696568Y-66130267D01*
X89774530Y-66078174D01*
X89810412Y-66063311D01*
X89861157Y-66042292D01*
X89953117Y-66024000D01*
X90046883Y-66024000D01*
X90138843Y-66042292D01*
X90189588Y-66063311D01*
X90225470Y-66078174D01*
X90303432Y-66130267D01*
X90369735Y-66196570D01*
X90396067Y-66235979D01*
X90411612Y-66254921D01*
X90430554Y-66270466D01*
X90452164Y-66282018D01*
X90475613Y-66289131D01*
X90499999Y-66291533D01*
X90524385Y-66289131D01*
X90547834Y-66282018D01*
X90569445Y-66270467D01*
X90588387Y-66254922D01*
X90603933Y-66235979D01*
X90630265Y-66196570D01*
X90696568Y-66130267D01*
X90774530Y-66078174D01*
X90810412Y-66063311D01*
X90861157Y-66042292D01*
X90953117Y-66024000D01*
X91046883Y-66024000D01*
X91138843Y-66042292D01*
X91189588Y-66063311D01*
X91225470Y-66078174D01*
X91303432Y-66130267D01*
X91369735Y-66196570D01*
X91396067Y-66235979D01*
X91411612Y-66254921D01*
X91430554Y-66270466D01*
X91452164Y-66282018D01*
X91475613Y-66289131D01*
X91499999Y-66291533D01*
X91524385Y-66289131D01*
X91547834Y-66282018D01*
X91569445Y-66270467D01*
X91588387Y-66254922D01*
X91603933Y-66235979D01*
X91630265Y-66196570D01*
X91696568Y-66130267D01*
X91774530Y-66078174D01*
X91810412Y-66063311D01*
X91861157Y-66042292D01*
X91953117Y-66024000D01*
X92046883Y-66024000D01*
X92138843Y-66042292D01*
X92189588Y-66063311D01*
X92225470Y-66078174D01*
X92303432Y-66130267D01*
X92369735Y-66196570D01*
X92396067Y-66235979D01*
X92411612Y-66254921D01*
X92430554Y-66270466D01*
X92452164Y-66282018D01*
X92475613Y-66289131D01*
X92499999Y-66291533D01*
X92524385Y-66289131D01*
X92547834Y-66282018D01*
X92569445Y-66270467D01*
X92588387Y-66254922D01*
X92603933Y-66235979D01*
X92630265Y-66196570D01*
X92696568Y-66130267D01*
X92774530Y-66078174D01*
X92810412Y-66063311D01*
X92861157Y-66042292D01*
X92953117Y-66024000D01*
X93046883Y-66024000D01*
X93138843Y-66042292D01*
X93189588Y-66063311D01*
X93225470Y-66078174D01*
X93303432Y-66130267D01*
X93369735Y-66196570D01*
X93396067Y-66235979D01*
X93411612Y-66254921D01*
X93430554Y-66270466D01*
X93452164Y-66282018D01*
X93475613Y-66289131D01*
X93499999Y-66291533D01*
X93524385Y-66289131D01*
X93547834Y-66282018D01*
X93569445Y-66270467D01*
X93588387Y-66254922D01*
X93603933Y-66235979D01*
X93630265Y-66196570D01*
X93696568Y-66130267D01*
X93774530Y-66078174D01*
X93810412Y-66063311D01*
X93861157Y-66042292D01*
X93953117Y-66024000D01*
X94046883Y-66024000D01*
X94138843Y-66042292D01*
X94189588Y-66063311D01*
X94225470Y-66078174D01*
X94303432Y-66130267D01*
X94369735Y-66196570D01*
X94396067Y-66235979D01*
X94411612Y-66254921D01*
X94430554Y-66270466D01*
X94452164Y-66282018D01*
X94475613Y-66289131D01*
X94499999Y-66291533D01*
X94524385Y-66289131D01*
X94547834Y-66282018D01*
X94569445Y-66270467D01*
X94588387Y-66254922D01*
X94603933Y-66235979D01*
X94630265Y-66196570D01*
X94696568Y-66130267D01*
X94774530Y-66078174D01*
X94810412Y-66063311D01*
X94861157Y-66042292D01*
X94953117Y-66024000D01*
X95046883Y-66024000D01*
X95138843Y-66042292D01*
X95189588Y-66063311D01*
X95225470Y-66078174D01*
X95303432Y-66130267D01*
X95369735Y-66196570D01*
X95396067Y-66235979D01*
X95411612Y-66254921D01*
X95430554Y-66270466D01*
X95452164Y-66282018D01*
X95475613Y-66289131D01*
X95499999Y-66291533D01*
X95524385Y-66289131D01*
X95547834Y-66282018D01*
X95569445Y-66270467D01*
X95588387Y-66254922D01*
X95603933Y-66235979D01*
X95630265Y-66196570D01*
X95696568Y-66130267D01*
X95774530Y-66078174D01*
X95810412Y-66063311D01*
X95861157Y-66042292D01*
X95953117Y-66024000D01*
X96046883Y-66024000D01*
X96138843Y-66042292D01*
X96189588Y-66063311D01*
X96225470Y-66078174D01*
X96303432Y-66130267D01*
X96310613Y-66137448D01*
X96329555Y-66152993D01*
X96351166Y-66164544D01*
X96374615Y-66171657D01*
X96399001Y-66174059D01*
X96423387Y-66171657D01*
X96446836Y-66164544D01*
X96468447Y-66152993D01*
X96487389Y-66137448D01*
X96502934Y-66118506D01*
X96514485Y-66096895D01*
X96521598Y-66073446D01*
X96524000Y-66049060D01*
X96524000Y-66024000D01*
X97476000Y-66024000D01*
X97476000Y-66976000D01*
X96524000Y-66976000D01*
X96524000Y-66950940D01*
X96521598Y-66926554D01*
X96514485Y-66903105D01*
X96502934Y-66881494D01*
X96487389Y-66862552D01*
X96468447Y-66847007D01*
X96446836Y-66835456D01*
X96423387Y-66828343D01*
X96399001Y-66825941D01*
X96374615Y-66828343D01*
X96351166Y-66835456D01*
X96329555Y-66847007D01*
X96310613Y-66862552D01*
X96303432Y-66869733D01*
X96225470Y-66921826D01*
X96214055Y-66926554D01*
X96138843Y-66957708D01*
X96046883Y-66976000D01*
X95953117Y-66976000D01*
X95861157Y-66957708D01*
X95785945Y-66926554D01*
X95774530Y-66921826D01*
X95696568Y-66869733D01*
X95630265Y-66803430D01*
X95603933Y-66764021D01*
X95588388Y-66745079D01*
X95569446Y-66729534D01*
X95547836Y-66717982D01*
X95524387Y-66710869D01*
X95500001Y-66708467D01*
X95475615Y-66710869D01*
X95452166Y-66717982D01*
X95430555Y-66729533D01*
X95411613Y-66745078D01*
X95396067Y-66764021D01*
X95369735Y-66803430D01*
X95303432Y-66869733D01*
X95225470Y-66921826D01*
X95214055Y-66926554D01*
X95138843Y-66957708D01*
X95046883Y-66976000D01*
X94953117Y-66976000D01*
X94861157Y-66957708D01*
X94785945Y-66926554D01*
X94774530Y-66921826D01*
X94696568Y-66869733D01*
X94630265Y-66803430D01*
X94603933Y-66764021D01*
X94588388Y-66745079D01*
X94569446Y-66729534D01*
X94547836Y-66717982D01*
X94524387Y-66710869D01*
X94500001Y-66708467D01*
X94475615Y-66710869D01*
X94452166Y-66717982D01*
X94430555Y-66729533D01*
X94411613Y-66745078D01*
X94396067Y-66764021D01*
X94369735Y-66803430D01*
X94303432Y-66869733D01*
X94225470Y-66921826D01*
X94214055Y-66926554D01*
X94138843Y-66957708D01*
X94046883Y-66976000D01*
X93953117Y-66976000D01*
X93861157Y-66957708D01*
X93785945Y-66926554D01*
X93774530Y-66921826D01*
X93696568Y-66869733D01*
X93630265Y-66803430D01*
X93603933Y-66764021D01*
X93588388Y-66745079D01*
X93569446Y-66729534D01*
X93547836Y-66717982D01*
X93524387Y-66710869D01*
X93500001Y-66708467D01*
X93475615Y-66710869D01*
X93452166Y-66717982D01*
X93430555Y-66729533D01*
X93411613Y-66745078D01*
X93396067Y-66764021D01*
X93369735Y-66803430D01*
X93303432Y-66869733D01*
X93225470Y-66921826D01*
X93214055Y-66926554D01*
X93138843Y-66957708D01*
X93046883Y-66976000D01*
X92953117Y-66976000D01*
X92861157Y-66957708D01*
X92785945Y-66926554D01*
X92774530Y-66921826D01*
X92696568Y-66869733D01*
X92630265Y-66803430D01*
X92603933Y-66764021D01*
X92588388Y-66745079D01*
X92569446Y-66729534D01*
X92547836Y-66717982D01*
X92524387Y-66710869D01*
X92500001Y-66708467D01*
X92475615Y-66710869D01*
X92452166Y-66717982D01*
X92430555Y-66729533D01*
X92411613Y-66745078D01*
X92396067Y-66764021D01*
X92369735Y-66803430D01*
X92303432Y-66869733D01*
X92225470Y-66921826D01*
X92214055Y-66926554D01*
X92138843Y-66957708D01*
X92046883Y-66976000D01*
X91953117Y-66976000D01*
X91861157Y-66957708D01*
X91785945Y-66926554D01*
X91774530Y-66921826D01*
X91696568Y-66869733D01*
X91630265Y-66803430D01*
X91603933Y-66764021D01*
X91588388Y-66745079D01*
X91569446Y-66729534D01*
X91547836Y-66717982D01*
X91524387Y-66710869D01*
X91500001Y-66708467D01*
X91475615Y-66710869D01*
X91452166Y-66717982D01*
X91430555Y-66729533D01*
X91411613Y-66745078D01*
X91396067Y-66764021D01*
X91369735Y-66803430D01*
X91303432Y-66869733D01*
X91225470Y-66921826D01*
X91214055Y-66926554D01*
X91138843Y-66957708D01*
X91046883Y-66976000D01*
X90953117Y-66976000D01*
X90861157Y-66957708D01*
X90785945Y-66926554D01*
X90774530Y-66921826D01*
X90696568Y-66869733D01*
X90630265Y-66803430D01*
X90603933Y-66764021D01*
X90588388Y-66745079D01*
X90569446Y-66729534D01*
X90547836Y-66717982D01*
X90524387Y-66710869D01*
X90500001Y-66708467D01*
X90475615Y-66710869D01*
X90452166Y-66717982D01*
X90430555Y-66729533D01*
X90411613Y-66745078D01*
X90396067Y-66764021D01*
X90369735Y-66803430D01*
X90303432Y-66869733D01*
X90225470Y-66921826D01*
X90214055Y-66926554D01*
X90138843Y-66957708D01*
X90046883Y-66976000D01*
X89953117Y-66976000D01*
X89861157Y-66957708D01*
X89785945Y-66926554D01*
X89774530Y-66921826D01*
X89696568Y-66869733D01*
X89630265Y-66803430D01*
X89603933Y-66764021D01*
X89588388Y-66745079D01*
X89569446Y-66729534D01*
X89547836Y-66717982D01*
X89524387Y-66710869D01*
X89500001Y-66708467D01*
X89475615Y-66710869D01*
X89452166Y-66717982D01*
X89430555Y-66729533D01*
X89411613Y-66745078D01*
X89396067Y-66764021D01*
X89369735Y-66803430D01*
X89303432Y-66869733D01*
X89225470Y-66921826D01*
X89214055Y-66926554D01*
X89138843Y-66957708D01*
X89046883Y-66976000D01*
X88953117Y-66976000D01*
X88861157Y-66957708D01*
X88785945Y-66926554D01*
X88774530Y-66921826D01*
X88696568Y-66869733D01*
X88630265Y-66803430D01*
X88603933Y-66764021D01*
X88588388Y-66745079D01*
X88569446Y-66729534D01*
X88547836Y-66717982D01*
X88524387Y-66710869D01*
X88500001Y-66708467D01*
X88475615Y-66710869D01*
X88452166Y-66717982D01*
X88430555Y-66729533D01*
X88411613Y-66745078D01*
X88396067Y-66764021D01*
X88369735Y-66803430D01*
X88303432Y-66869733D01*
X88225470Y-66921826D01*
X88214055Y-66926554D01*
X88138843Y-66957708D01*
X88046883Y-66976000D01*
X87953117Y-66976000D01*
X87861157Y-66957708D01*
X87785945Y-66926554D01*
X87774530Y-66921826D01*
X87696568Y-66869733D01*
X87630265Y-66803430D01*
X87603933Y-66764021D01*
X87588388Y-66745079D01*
X87569446Y-66729534D01*
X87547836Y-66717982D01*
X87524387Y-66710869D01*
X87500001Y-66708467D01*
X87475615Y-66710869D01*
X87452166Y-66717982D01*
X87430555Y-66729533D01*
X87411613Y-66745078D01*
X87396067Y-66764021D01*
X87369735Y-66803430D01*
X87303432Y-66869733D01*
X87225470Y-66921826D01*
X87214055Y-66926554D01*
X87138843Y-66957708D01*
X87046883Y-66976000D01*
X86953117Y-66976000D01*
X86861157Y-66957708D01*
X86785945Y-66926554D01*
X86774530Y-66921826D01*
X86696568Y-66869733D01*
X86630265Y-66803430D01*
X86603933Y-66764021D01*
X86588388Y-66745079D01*
X86569446Y-66729534D01*
X86547836Y-66717982D01*
X86524387Y-66710869D01*
X86500001Y-66708467D01*
X86475615Y-66710869D01*
X86452166Y-66717982D01*
X86430555Y-66729533D01*
X86411613Y-66745078D01*
X86396067Y-66764021D01*
X86369735Y-66803430D01*
X86303432Y-66869733D01*
X86225470Y-66921826D01*
X86214055Y-66926554D01*
X86138843Y-66957708D01*
X86046883Y-66976000D01*
X85953117Y-66976000D01*
X85861157Y-66957708D01*
X85785945Y-66926554D01*
X85774530Y-66921826D01*
X85696568Y-66869733D01*
X85630265Y-66803430D01*
X85603933Y-66764021D01*
X85588388Y-66745079D01*
X85569446Y-66729534D01*
X85547836Y-66717982D01*
X85524387Y-66710869D01*
X85500001Y-66708467D01*
X85475615Y-66710869D01*
X85452166Y-66717982D01*
X85430555Y-66729533D01*
X85411613Y-66745078D01*
X85396067Y-66764021D01*
X85369735Y-66803430D01*
X85303432Y-66869733D01*
X85225470Y-66921826D01*
X85214055Y-66926554D01*
X85138843Y-66957708D01*
X85046883Y-66976000D01*
X84953117Y-66976000D01*
X84861157Y-66957708D01*
X84785945Y-66926554D01*
X84774530Y-66921826D01*
X84696568Y-66869733D01*
X84630265Y-66803430D01*
X84603933Y-66764021D01*
X84588388Y-66745079D01*
X84569446Y-66729534D01*
X84547836Y-66717982D01*
X84524387Y-66710869D01*
X84500001Y-66708467D01*
X84475615Y-66710869D01*
X84452166Y-66717982D01*
X84430555Y-66729533D01*
X84411613Y-66745078D01*
X84396067Y-66764021D01*
X84369735Y-66803430D01*
X84303432Y-66869733D01*
X84225470Y-66921826D01*
X84214055Y-66926554D01*
X84138843Y-66957708D01*
X84046883Y-66976000D01*
X83953117Y-66976000D01*
X83861157Y-66957708D01*
X83785945Y-66926554D01*
X83774530Y-66921826D01*
X83696568Y-66869733D01*
X83630265Y-66803430D01*
X83603933Y-66764021D01*
X83588388Y-66745079D01*
X83569446Y-66729534D01*
X83547836Y-66717982D01*
X83524387Y-66710869D01*
X83500001Y-66708467D01*
X83475615Y-66710869D01*
X83452166Y-66717982D01*
X83430555Y-66729533D01*
X83411613Y-66745078D01*
X83396067Y-66764021D01*
X83369735Y-66803430D01*
X83303432Y-66869733D01*
X83225470Y-66921826D01*
X83214055Y-66926554D01*
X83138843Y-66957708D01*
X83046883Y-66976000D01*
X82953117Y-66976000D01*
X82861157Y-66957708D01*
X82785945Y-66926554D01*
X82774530Y-66921826D01*
X82696568Y-66869733D01*
X82630265Y-66803430D01*
X82603933Y-66764021D01*
X82588388Y-66745079D01*
X82569446Y-66729534D01*
X82547836Y-66717982D01*
X82524387Y-66710869D01*
X82500001Y-66708467D01*
X82475615Y-66710869D01*
X82452166Y-66717982D01*
X82430555Y-66729533D01*
X82411613Y-66745078D01*
X82396067Y-66764021D01*
X82369735Y-66803430D01*
X82303432Y-66869733D01*
X82225470Y-66921826D01*
X82214055Y-66926554D01*
X82138843Y-66957708D01*
X82046883Y-66976000D01*
X81953117Y-66976000D01*
X81861157Y-66957708D01*
X81785945Y-66926554D01*
X81774530Y-66921826D01*
X81696568Y-66869733D01*
X81630267Y-66803432D01*
X81578174Y-66725470D01*
X81563311Y-66689588D01*
X81542292Y-66638843D01*
X81524000Y-66546883D01*
X81524000Y-66453117D01*
X81542292Y-66361157D01*
X81572126Y-66289131D01*
X81578174Y-66274530D01*
X81630267Y-66196568D01*
X81696568Y-66130267D01*
X81774530Y-66078174D01*
X81810412Y-66063311D01*
X81861157Y-66042292D01*
X81953117Y-66024000D01*
X82046883Y-66024000D01*
X82138843Y-66042292D01*
G37*
M02*
