%FSLAX45Y45*%
G04 Gerber Fmt 4.5, Leading zero omitted, Abs format (unit mm)*
G04 Created by KiCad (PCBNEW 5.1.5) date 2019-11-29 13:28:31*
%MOMM*%
%LPD*%
G04 APERTURE LIST*
%TA.AperFunction,Profile*%
%ADD10C,0.050000*%
%TD*%
%ADD11C,0.200000*%
%ADD12C,0.300000*%
G04 APERTURE END LIST*
D10*
X7310000Y-17070000D02*
X7310000Y-6550000D01*
X10870000Y-17070000D02*
X7310000Y-17070000D01*
X10870000Y-14920000D02*
X10870000Y-17070000D01*
X11000000Y-14920000D02*
X10870000Y-14920000D01*
X11000000Y-9740000D02*
X11000000Y-14920000D01*
X10390000Y-9740000D02*
X11000000Y-9740000D01*
X10390000Y-9000000D02*
X10390000Y-9740000D01*
X10760000Y-9000000D02*
X10390000Y-9000000D01*
X10760000Y-6550000D02*
X10760000Y-9000000D01*
X7310000Y-6550000D02*
X10760000Y-6550000D01*
D11*
X8175000Y-6625000D02*
X8225000Y-6675000D01*
X8225000Y-6625000D02*
X8175000Y-6675000D01*
X8275000Y-6625000D02*
X8325000Y-6675000D01*
X8325000Y-6625000D02*
X8275000Y-6675000D01*
X8375000Y-6625000D02*
X8425000Y-6675000D01*
X8425000Y-6625000D02*
X8375000Y-6675000D01*
X8475000Y-6625000D02*
X8525000Y-6675000D01*
X8525000Y-6625000D02*
X8475000Y-6675000D01*
X8575000Y-6625000D02*
X8625000Y-6675000D01*
X8625000Y-6625000D02*
X8575000Y-6675000D01*
X8675000Y-6625000D02*
X8725000Y-6675000D01*
X8725000Y-6625000D02*
X8675000Y-6675000D01*
X8775000Y-6625000D02*
X8825000Y-6675000D01*
X8825000Y-6625000D02*
X8775000Y-6675000D01*
X8875000Y-6625000D02*
X8925000Y-6675000D01*
X8925000Y-6625000D02*
X8875000Y-6675000D01*
X8975000Y-6625000D02*
X9025000Y-6675000D01*
X9025000Y-6625000D02*
X8975000Y-6675000D01*
X9075000Y-6625000D02*
X9125000Y-6675000D01*
X9125000Y-6625000D02*
X9075000Y-6675000D01*
X9175000Y-6625000D02*
X9225000Y-6675000D01*
X9225000Y-6625000D02*
X9175000Y-6675000D01*
X9275000Y-6625000D02*
X9325000Y-6675000D01*
X9325000Y-6625000D02*
X9275000Y-6675000D01*
X9375000Y-6625000D02*
X9425000Y-6675000D01*
X9425000Y-6625000D02*
X9375000Y-6675000D01*
X9475000Y-6625000D02*
X9525000Y-6675000D01*
X9525000Y-6625000D02*
X9475000Y-6675000D01*
X9575000Y-6625000D02*
X9625000Y-6675000D01*
X9625000Y-6625000D02*
X9575000Y-6675000D01*
X9675000Y-6625000D02*
X9725000Y-6675000D01*
X9725000Y-6625000D02*
X9675000Y-6675000D01*
X7695000Y-6985000D02*
X7745000Y-7035000D01*
X7745000Y-6985000D02*
X7695000Y-7035000D01*
X7795000Y-6985000D02*
X7845000Y-7035000D01*
X7845000Y-6985000D02*
X7795000Y-7035000D01*
X9711500Y-16891000D02*
G75*
G03X9711500Y-16891000I-32500J0D01*
G01*
X9838500Y-16891000D02*
G75*
G03X9838500Y-16891000I-32500J0D01*
G01*
X9965500Y-16891000D02*
G75*
G03X9965500Y-16891000I-32500J0D01*
G01*
X10092500Y-16891000D02*
G75*
G03X10092500Y-16891000I-32500J0D01*
G01*
X10219500Y-16891000D02*
G75*
G03X10219500Y-16891000I-32500J0D01*
G01*
X9756000Y-15476900D02*
X9756000Y-15553100D01*
X9717900Y-15515000D02*
X9794100Y-15515000D01*
X9756000Y-15730900D02*
X9756000Y-15807100D01*
X9717900Y-15769000D02*
X9794100Y-15769000D01*
X9756000Y-15984900D02*
X9756000Y-16061100D01*
X9717900Y-16023000D02*
X9794100Y-16023000D01*
X9756000Y-16238900D02*
X9756000Y-16315100D01*
X9717900Y-16277000D02*
X9794100Y-16277000D01*
X10010000Y-15349900D02*
X10010000Y-15426100D01*
X9971900Y-15388000D02*
X10048100Y-15388000D01*
X10010000Y-15603900D02*
X10010000Y-15680100D01*
X9971900Y-15642000D02*
X10048100Y-15642000D01*
X10010000Y-15857900D02*
X10010000Y-15934100D01*
X9971900Y-15896000D02*
X10048100Y-15896000D01*
X10010000Y-16111900D02*
X10010000Y-16188100D01*
X9971900Y-16150000D02*
X10048100Y-16150000D01*
X7778284Y-16283284D02*
X7778284Y-16226715D01*
X7721715Y-16226715D01*
X7721715Y-16283284D01*
X7778284Y-16283284D01*
X9048285Y-16283284D02*
X9048285Y-16226715D01*
X8991716Y-16226715D01*
X8991716Y-16283284D01*
X9048285Y-16283284D01*
X7778284Y-15908284D02*
X7778284Y-15851715D01*
X7721715Y-15851715D01*
X7721715Y-15908284D01*
X7778284Y-15908284D01*
X9048285Y-15908284D02*
X9048285Y-15851715D01*
X8991716Y-15851715D01*
X8991716Y-15908284D01*
X9048285Y-15908284D01*
X7778284Y-15158284D02*
X7778284Y-15101715D01*
X7721715Y-15101715D01*
X7721715Y-15158284D01*
X7778284Y-15158284D01*
X9048285Y-15158284D02*
X9048285Y-15101715D01*
X8991716Y-15101715D01*
X8991716Y-15158284D01*
X9048285Y-15158284D01*
X7568284Y-7628284D02*
X7568284Y-7571715D01*
X7511715Y-7571715D01*
X7511715Y-7628284D01*
X7568284Y-7628284D01*
X7568284Y-7882284D02*
X7568284Y-7825715D01*
X7511715Y-7825715D01*
X7511715Y-7882284D01*
X7568284Y-7882284D01*
X7568284Y-8136284D02*
X7568284Y-8079715D01*
X7511715Y-8079715D01*
X7511715Y-8136284D01*
X7568284Y-8136284D01*
X7568284Y-8390285D02*
X7568284Y-8333715D01*
X7511715Y-8333715D01*
X7511715Y-8390285D01*
X7568284Y-8390285D01*
X7568284Y-8644285D02*
X7568284Y-8587716D01*
X7511715Y-8587716D01*
X7511715Y-8644285D01*
X7568284Y-8644285D01*
X7568284Y-8898285D02*
X7568284Y-8841716D01*
X7511715Y-8841716D01*
X7511715Y-8898285D01*
X7568284Y-8898285D01*
X7568284Y-9152285D02*
X7568284Y-9095716D01*
X7511715Y-9095716D01*
X7511715Y-9152285D01*
X7568284Y-9152285D01*
X7568284Y-9406285D02*
X7568284Y-9349716D01*
X7511715Y-9349716D01*
X7511715Y-9406285D01*
X7568284Y-9406285D01*
X7568284Y-9660285D02*
X7568284Y-9603716D01*
X7511715Y-9603716D01*
X7511715Y-9660285D01*
X7568284Y-9660285D01*
X7568284Y-9914285D02*
X7568284Y-9857716D01*
X7511715Y-9857716D01*
X7511715Y-9914285D01*
X7568284Y-9914285D01*
X7568284Y-10168285D02*
X7568284Y-10111716D01*
X7511715Y-10111716D01*
X7511715Y-10168285D01*
X7568284Y-10168285D01*
X7568284Y-10422285D02*
X7568284Y-10365716D01*
X7511715Y-10365716D01*
X7511715Y-10422285D01*
X7568284Y-10422285D01*
X7568284Y-10676285D02*
X7568284Y-10619716D01*
X7511715Y-10619716D01*
X7511715Y-10676285D01*
X7568284Y-10676285D01*
X7568284Y-10930285D02*
X7568284Y-10873716D01*
X7511715Y-10873716D01*
X7511715Y-10930285D01*
X7568284Y-10930285D01*
X7568284Y-11184285D02*
X7568284Y-11127716D01*
X7511715Y-11127716D01*
X7511715Y-11184285D01*
X7568284Y-11184285D01*
X9092285Y-7628284D02*
X9092285Y-7571715D01*
X9035716Y-7571715D01*
X9035716Y-7628284D01*
X9092285Y-7628284D01*
X9092285Y-7882284D02*
X9092285Y-7825715D01*
X9035716Y-7825715D01*
X9035716Y-7882284D01*
X9092285Y-7882284D01*
X9092285Y-8136284D02*
X9092285Y-8079715D01*
X9035716Y-8079715D01*
X9035716Y-8136284D01*
X9092285Y-8136284D01*
X9092285Y-8390285D02*
X9092285Y-8333715D01*
X9035716Y-8333715D01*
X9035716Y-8390285D01*
X9092285Y-8390285D01*
X9092285Y-8644285D02*
X9092285Y-8587716D01*
X9035716Y-8587716D01*
X9035716Y-8644285D01*
X9092285Y-8644285D01*
X9092285Y-8898285D02*
X9092285Y-8841716D01*
X9035716Y-8841716D01*
X9035716Y-8898285D01*
X9092285Y-8898285D01*
X9092285Y-9152285D02*
X9092285Y-9095716D01*
X9035716Y-9095716D01*
X9035716Y-9152285D01*
X9092285Y-9152285D01*
X9092285Y-9406285D02*
X9092285Y-9349716D01*
X9035716Y-9349716D01*
X9035716Y-9406285D01*
X9092285Y-9406285D01*
X9092285Y-9660285D02*
X9092285Y-9603716D01*
X9035716Y-9603716D01*
X9035716Y-9660285D01*
X9092285Y-9660285D01*
X9092285Y-9914285D02*
X9092285Y-9857716D01*
X9035716Y-9857716D01*
X9035716Y-9914285D01*
X9092285Y-9914285D01*
X9092285Y-10168285D02*
X9092285Y-10111716D01*
X9035716Y-10111716D01*
X9035716Y-10168285D01*
X9092285Y-10168285D01*
X9092285Y-10422285D02*
X9092285Y-10365716D01*
X9035716Y-10365716D01*
X9035716Y-10422285D01*
X9092285Y-10422285D01*
X9092285Y-10676285D02*
X9092285Y-10619716D01*
X9035716Y-10619716D01*
X9035716Y-10676285D01*
X9092285Y-10676285D01*
X9092285Y-10930285D02*
X9092285Y-10873716D01*
X9035716Y-10873716D01*
X9035716Y-10930285D01*
X9092285Y-10930285D01*
X9092285Y-11184285D02*
X9092285Y-11127716D01*
X9035716Y-11127716D01*
X9035716Y-11184285D01*
X9092285Y-11184285D01*
X7521284Y-13471284D02*
X7521284Y-13414715D01*
X7464715Y-13414715D01*
X7464715Y-13471284D01*
X7521284Y-13471284D01*
X7521284Y-13671284D02*
X7521284Y-13614715D01*
X7464715Y-13614715D01*
X7464715Y-13671284D01*
X7521284Y-13671284D01*
X7521284Y-13871284D02*
X7521284Y-13814715D01*
X7464715Y-13814715D01*
X7464715Y-13871284D01*
X7521284Y-13871284D01*
X7778284Y-14783284D02*
X7778284Y-14726715D01*
X7721715Y-14726715D01*
X7721715Y-14783284D01*
X7778284Y-14783284D01*
X9048285Y-14783284D02*
X9048285Y-14726715D01*
X8991716Y-14726715D01*
X8991716Y-14783284D01*
X9048285Y-14783284D01*
X7778284Y-15533284D02*
X7778284Y-15476715D01*
X7721715Y-15476715D01*
X7721715Y-15533284D01*
X7778284Y-15533284D01*
X9048285Y-15533284D02*
X9048285Y-15476715D01*
X8991716Y-15476715D01*
X8991716Y-15533284D01*
X9048285Y-15533284D01*
X7778284Y-14408284D02*
X7778284Y-14351715D01*
X7721715Y-14351715D01*
X7721715Y-14408284D01*
X7778284Y-14408284D01*
X9048285Y-14408284D02*
X9048285Y-14351715D01*
X8991716Y-14351715D01*
X8991716Y-14408284D01*
X9048285Y-14408284D01*
X7778284Y-16658284D02*
X7778284Y-16601715D01*
X7721715Y-16601715D01*
X7721715Y-16658284D01*
X7778284Y-16658284D01*
X9048285Y-16658284D02*
X9048285Y-16601715D01*
X8991716Y-16601715D01*
X8991716Y-16658284D01*
X9048285Y-16658284D01*
X9906000Y-13131000D02*
X9956000Y-13081000D01*
X9906000Y-13031000D01*
X9856000Y-13081000D01*
X9906000Y-13131000D01*
X10156000Y-13131000D02*
X10206000Y-13081000D01*
X10156000Y-13031000D01*
X10106000Y-13081000D01*
X10156000Y-13131000D01*
X10406000Y-13131000D02*
X10456000Y-13081000D01*
X10406000Y-13031000D01*
X10356000Y-13081000D01*
X10406000Y-13131000D01*
X10656000Y-13131000D02*
X10706000Y-13081000D01*
X10656000Y-13031000D01*
X10606000Y-13081000D01*
X10656000Y-13131000D01*
X10285000Y-6895000D02*
X10455000Y-7065000D01*
X10455000Y-6895000D02*
X10285000Y-7065000D01*
X10455000Y-6980000D02*
G75*
G03X10455000Y-6980000I-85000J0D01*
G01*
X10285000Y-7395000D02*
X10455000Y-7565000D01*
X10455000Y-7395000D02*
X10285000Y-7565000D01*
X10455000Y-7480000D02*
G75*
G03X10455000Y-7480000I-85000J0D01*
G01*
X10285000Y-8095000D02*
X10455000Y-8265000D01*
X10455000Y-8095000D02*
X10285000Y-8265000D01*
X10455000Y-8180000D02*
G75*
G03X10455000Y-8180000I-85000J0D01*
G01*
X10285000Y-8595000D02*
X10455000Y-8765000D01*
X10455000Y-8595000D02*
X10285000Y-8765000D01*
X10455000Y-8680000D02*
G75*
G03X10455000Y-8680000I-85000J0D01*
G01*
D12*
X7593928Y-17538214D02*
X7593928Y-17238214D01*
X7665357Y-17238214D01*
X7708214Y-17252500D01*
X7736786Y-17281072D01*
X7751071Y-17309643D01*
X7765357Y-17366786D01*
X7765357Y-17409643D01*
X7751071Y-17466786D01*
X7736786Y-17495357D01*
X7708214Y-17523929D01*
X7665357Y-17538214D01*
X7593928Y-17538214D01*
X7893928Y-17538214D02*
X7893928Y-17338214D01*
X7893928Y-17395357D02*
X7908214Y-17366786D01*
X7922500Y-17352500D01*
X7951071Y-17338214D01*
X7979643Y-17338214D01*
X8079643Y-17538214D02*
X8079643Y-17338214D01*
X8079643Y-17238214D02*
X8065357Y-17252500D01*
X8079643Y-17266786D01*
X8093928Y-17252500D01*
X8079643Y-17238214D01*
X8079643Y-17266786D01*
X8265357Y-17538214D02*
X8236786Y-17523929D01*
X8222500Y-17495357D01*
X8222500Y-17238214D01*
X8422500Y-17538214D02*
X8393928Y-17523929D01*
X8379643Y-17495357D01*
X8379643Y-17238214D01*
X8765357Y-17538214D02*
X8765357Y-17238214D01*
X8865357Y-17452500D01*
X8965357Y-17238214D01*
X8965357Y-17538214D01*
X9236786Y-17538214D02*
X9236786Y-17381072D01*
X9222500Y-17352500D01*
X9193928Y-17338214D01*
X9136786Y-17338214D01*
X9108214Y-17352500D01*
X9236786Y-17523929D02*
X9208214Y-17538214D01*
X9136786Y-17538214D01*
X9108214Y-17523929D01*
X9093928Y-17495357D01*
X9093928Y-17466786D01*
X9108214Y-17438214D01*
X9136786Y-17423929D01*
X9208214Y-17423929D01*
X9236786Y-17409643D01*
X9379643Y-17338214D02*
X9379643Y-17638214D01*
X9379643Y-17352500D02*
X9408214Y-17338214D01*
X9465357Y-17338214D01*
X9493928Y-17352500D01*
X9508214Y-17366786D01*
X9522500Y-17395357D01*
X9522500Y-17481072D01*
X9508214Y-17509643D01*
X9493928Y-17523929D01*
X9465357Y-17538214D01*
X9408214Y-17538214D01*
X9379643Y-17523929D01*
X9651071Y-17509643D02*
X9665357Y-17523929D01*
X9651071Y-17538214D01*
X9636786Y-17523929D01*
X9651071Y-17509643D01*
X9651071Y-17538214D01*
X9651071Y-17352500D02*
X9665357Y-17366786D01*
X9651071Y-17381072D01*
X9636786Y-17366786D01*
X9651071Y-17352500D01*
X9651071Y-17381072D01*
X7257500Y-18007500D02*
X7307500Y-18057500D01*
X7307500Y-18007500D02*
X7257500Y-18057500D01*
X7651071Y-17868214D02*
X7679643Y-17868214D01*
X7708214Y-17882500D01*
X7722500Y-17896786D01*
X7736786Y-17925357D01*
X7751071Y-17982500D01*
X7751071Y-18053929D01*
X7736786Y-18111072D01*
X7722500Y-18139643D01*
X7708214Y-18153929D01*
X7679643Y-18168214D01*
X7651071Y-18168214D01*
X7622500Y-18153929D01*
X7608214Y-18139643D01*
X7593928Y-18111072D01*
X7579643Y-18053929D01*
X7579643Y-17982500D01*
X7593928Y-17925357D01*
X7608214Y-17896786D01*
X7622500Y-17882500D01*
X7651071Y-17868214D01*
X7879643Y-18139643D02*
X7893928Y-18153929D01*
X7879643Y-18168214D01*
X7865357Y-18153929D01*
X7879643Y-18139643D01*
X7879643Y-18168214D01*
X8165357Y-17868214D02*
X8022500Y-17868214D01*
X8008214Y-18011072D01*
X8022500Y-17996786D01*
X8051071Y-17982500D01*
X8122500Y-17982500D01*
X8151071Y-17996786D01*
X8165357Y-18011072D01*
X8179643Y-18039643D01*
X8179643Y-18111072D01*
X8165357Y-18139643D01*
X8151071Y-18153929D01*
X8122500Y-18168214D01*
X8051071Y-18168214D01*
X8022500Y-18153929D01*
X8008214Y-18139643D01*
X8365357Y-17868214D02*
X8393928Y-17868214D01*
X8422500Y-17882500D01*
X8436786Y-17896786D01*
X8451071Y-17925357D01*
X8465357Y-17982500D01*
X8465357Y-18053929D01*
X8451071Y-18111072D01*
X8436786Y-18139643D01*
X8422500Y-18153929D01*
X8393928Y-18168214D01*
X8365357Y-18168214D01*
X8336786Y-18153929D01*
X8322500Y-18139643D01*
X8308214Y-18111072D01*
X8293928Y-18053929D01*
X8293928Y-17982500D01*
X8308214Y-17925357D01*
X8322500Y-17896786D01*
X8336786Y-17882500D01*
X8365357Y-17868214D01*
X8593928Y-18168214D02*
X8593928Y-17968214D01*
X8593928Y-17996786D02*
X8608214Y-17982500D01*
X8636786Y-17968214D01*
X8679643Y-17968214D01*
X8708214Y-17982500D01*
X8722500Y-18011072D01*
X8722500Y-18168214D01*
X8722500Y-18011072D02*
X8736786Y-17982500D01*
X8765357Y-17968214D01*
X8808214Y-17968214D01*
X8836786Y-17982500D01*
X8851071Y-18011072D01*
X8851071Y-18168214D01*
X8993928Y-18168214D02*
X8993928Y-17968214D01*
X8993928Y-17996786D02*
X9008214Y-17982500D01*
X9036786Y-17968214D01*
X9079643Y-17968214D01*
X9108214Y-17982500D01*
X9122500Y-18011072D01*
X9122500Y-18168214D01*
X9122500Y-18011072D02*
X9136786Y-17982500D01*
X9165357Y-17968214D01*
X9208214Y-17968214D01*
X9236786Y-17982500D01*
X9251071Y-18011072D01*
X9251071Y-18168214D01*
X9836786Y-17853929D02*
X9579643Y-18239643D01*
X10222500Y-17868214D02*
X10251071Y-17868214D01*
X10279643Y-17882500D01*
X10293928Y-17896786D01*
X10308214Y-17925357D01*
X10322500Y-17982500D01*
X10322500Y-18053929D01*
X10308214Y-18111072D01*
X10293928Y-18139643D01*
X10279643Y-18153929D01*
X10251071Y-18168214D01*
X10222500Y-18168214D01*
X10193928Y-18153929D01*
X10179643Y-18139643D01*
X10165357Y-18111072D01*
X10151071Y-18053929D01*
X10151071Y-17982500D01*
X10165357Y-17925357D01*
X10179643Y-17896786D01*
X10193928Y-17882500D01*
X10222500Y-17868214D01*
X10451071Y-18139643D02*
X10465357Y-18153929D01*
X10451071Y-18168214D01*
X10436786Y-18153929D01*
X10451071Y-18139643D01*
X10451071Y-18168214D01*
X10651071Y-17868214D02*
X10679643Y-17868214D01*
X10708214Y-17882500D01*
X10722500Y-17896786D01*
X10736786Y-17925357D01*
X10751071Y-17982500D01*
X10751071Y-18053929D01*
X10736786Y-18111072D01*
X10722500Y-18139643D01*
X10708214Y-18153929D01*
X10679643Y-18168214D01*
X10651071Y-18168214D01*
X10622500Y-18153929D01*
X10608214Y-18139643D01*
X10593928Y-18111072D01*
X10579643Y-18053929D01*
X10579643Y-17982500D01*
X10593928Y-17925357D01*
X10608214Y-17896786D01*
X10622500Y-17882500D01*
X10651071Y-17868214D01*
X10865357Y-17896786D02*
X10879643Y-17882500D01*
X10908214Y-17868214D01*
X10979643Y-17868214D01*
X11008214Y-17882500D01*
X11022500Y-17896786D01*
X11036786Y-17925357D01*
X11036786Y-17953929D01*
X11022500Y-17996786D01*
X10851071Y-18168214D01*
X11036786Y-18168214D01*
X11222500Y-17868214D02*
X11251071Y-17868214D01*
X11279643Y-17882500D01*
X11293928Y-17896786D01*
X11308214Y-17925357D01*
X11322500Y-17982500D01*
X11322500Y-18053929D01*
X11308214Y-18111072D01*
X11293928Y-18139643D01*
X11279643Y-18153929D01*
X11251071Y-18168214D01*
X11222500Y-18168214D01*
X11193928Y-18153929D01*
X11179643Y-18139643D01*
X11165357Y-18111072D01*
X11151071Y-18053929D01*
X11151071Y-17982500D01*
X11165357Y-17925357D01*
X11179643Y-17896786D01*
X11193928Y-17882500D01*
X11222500Y-17868214D01*
X11436786Y-17868214D02*
X11436786Y-17925357D01*
X11551071Y-17868214D02*
X11551071Y-17925357D01*
X11993928Y-18282500D02*
X11979643Y-18268214D01*
X11951071Y-18225357D01*
X11936786Y-18196786D01*
X11922500Y-18153929D01*
X11908214Y-18082500D01*
X11908214Y-18025357D01*
X11922500Y-17953929D01*
X11936786Y-17911072D01*
X11951071Y-17882500D01*
X11979643Y-17839643D01*
X11993928Y-17825357D01*
X12265357Y-18168214D02*
X12093928Y-18168214D01*
X12179643Y-18168214D02*
X12179643Y-17868214D01*
X12151071Y-17911072D01*
X12122500Y-17939643D01*
X12093928Y-17953929D01*
X12436786Y-17996786D02*
X12408214Y-17982500D01*
X12393928Y-17968214D01*
X12379643Y-17939643D01*
X12379643Y-17925357D01*
X12393928Y-17896786D01*
X12408214Y-17882500D01*
X12436786Y-17868214D01*
X12493928Y-17868214D01*
X12522500Y-17882500D01*
X12536786Y-17896786D01*
X12551071Y-17925357D01*
X12551071Y-17939643D01*
X12536786Y-17968214D01*
X12522500Y-17982500D01*
X12493928Y-17996786D01*
X12436786Y-17996786D01*
X12408214Y-18011072D01*
X12393928Y-18025357D01*
X12379643Y-18053929D01*
X12379643Y-18111072D01*
X12393928Y-18139643D01*
X12408214Y-18153929D01*
X12436786Y-18168214D01*
X12493928Y-18168214D01*
X12522500Y-18153929D01*
X12536786Y-18139643D01*
X12551071Y-18111072D01*
X12551071Y-18053929D01*
X12536786Y-18025357D01*
X12522500Y-18011072D01*
X12493928Y-17996786D01*
X12908214Y-18168214D02*
X12908214Y-17868214D01*
X13036786Y-18168214D02*
X13036786Y-18011072D01*
X13022500Y-17982500D01*
X12993928Y-17968214D01*
X12951071Y-17968214D01*
X12922500Y-17982500D01*
X12908214Y-17996786D01*
X13222500Y-18168214D02*
X13193928Y-18153929D01*
X13179643Y-18139643D01*
X13165357Y-18111072D01*
X13165357Y-18025357D01*
X13179643Y-17996786D01*
X13193928Y-17982500D01*
X13222500Y-17968214D01*
X13265357Y-17968214D01*
X13293928Y-17982500D01*
X13308214Y-17996786D01*
X13322500Y-18025357D01*
X13322500Y-18111072D01*
X13308214Y-18139643D01*
X13293928Y-18153929D01*
X13265357Y-18168214D01*
X13222500Y-18168214D01*
X13493928Y-18168214D02*
X13465357Y-18153929D01*
X13451071Y-18125357D01*
X13451071Y-17868214D01*
X13722500Y-18153929D02*
X13693928Y-18168214D01*
X13636786Y-18168214D01*
X13608214Y-18153929D01*
X13593928Y-18125357D01*
X13593928Y-18011072D01*
X13608214Y-17982500D01*
X13636786Y-17968214D01*
X13693928Y-17968214D01*
X13722500Y-17982500D01*
X13736786Y-18011072D01*
X13736786Y-18039643D01*
X13593928Y-18068214D01*
X13851071Y-18153929D02*
X13879643Y-18168214D01*
X13936786Y-18168214D01*
X13965357Y-18153929D01*
X13979643Y-18125357D01*
X13979643Y-18111072D01*
X13965357Y-18082500D01*
X13936786Y-18068214D01*
X13893928Y-18068214D01*
X13865357Y-18053929D01*
X13851071Y-18025357D01*
X13851071Y-18011072D01*
X13865357Y-17982500D01*
X13893928Y-17968214D01*
X13936786Y-17968214D01*
X13965357Y-17982500D01*
X14079643Y-18282500D02*
X14093928Y-18268214D01*
X14122500Y-18225357D01*
X14136786Y-18196786D01*
X14151071Y-18153929D01*
X14165357Y-18082500D01*
X14165357Y-18025357D01*
X14151071Y-17953929D01*
X14136786Y-17911072D01*
X14122500Y-17882500D01*
X14093928Y-17839643D01*
X14079643Y-17825357D01*
X7307500Y-18428500D02*
G75*
G03X7307500Y-18428500I-32500J0D01*
G01*
X7651071Y-18264214D02*
X7679643Y-18264214D01*
X7708214Y-18278500D01*
X7722500Y-18292786D01*
X7736786Y-18321357D01*
X7751071Y-18378500D01*
X7751071Y-18449929D01*
X7736786Y-18507072D01*
X7722500Y-18535643D01*
X7708214Y-18549929D01*
X7679643Y-18564214D01*
X7651071Y-18564214D01*
X7622500Y-18549929D01*
X7608214Y-18535643D01*
X7593928Y-18507072D01*
X7579643Y-18449929D01*
X7579643Y-18378500D01*
X7593928Y-18321357D01*
X7608214Y-18292786D01*
X7622500Y-18278500D01*
X7651071Y-18264214D01*
X7879643Y-18535643D02*
X7893928Y-18549929D01*
X7879643Y-18564214D01*
X7865357Y-18549929D01*
X7879643Y-18535643D01*
X7879643Y-18564214D01*
X8151071Y-18264214D02*
X8093928Y-18264214D01*
X8065357Y-18278500D01*
X8051071Y-18292786D01*
X8022500Y-18335643D01*
X8008214Y-18392786D01*
X8008214Y-18507072D01*
X8022500Y-18535643D01*
X8036786Y-18549929D01*
X8065357Y-18564214D01*
X8122500Y-18564214D01*
X8151071Y-18549929D01*
X8165357Y-18535643D01*
X8179643Y-18507072D01*
X8179643Y-18435643D01*
X8165357Y-18407072D01*
X8151071Y-18392786D01*
X8122500Y-18378500D01*
X8065357Y-18378500D01*
X8036786Y-18392786D01*
X8022500Y-18407072D01*
X8008214Y-18435643D01*
X8451071Y-18264214D02*
X8308214Y-18264214D01*
X8293928Y-18407072D01*
X8308214Y-18392786D01*
X8336786Y-18378500D01*
X8408214Y-18378500D01*
X8436786Y-18392786D01*
X8451071Y-18407072D01*
X8465357Y-18435643D01*
X8465357Y-18507072D01*
X8451071Y-18535643D01*
X8436786Y-18549929D01*
X8408214Y-18564214D01*
X8336786Y-18564214D01*
X8308214Y-18549929D01*
X8293928Y-18535643D01*
X8593928Y-18564214D02*
X8593928Y-18364214D01*
X8593928Y-18392786D02*
X8608214Y-18378500D01*
X8636786Y-18364214D01*
X8679643Y-18364214D01*
X8708214Y-18378500D01*
X8722500Y-18407072D01*
X8722500Y-18564214D01*
X8722500Y-18407072D02*
X8736786Y-18378500D01*
X8765357Y-18364214D01*
X8808214Y-18364214D01*
X8836786Y-18378500D01*
X8851071Y-18407072D01*
X8851071Y-18564214D01*
X8993928Y-18564214D02*
X8993928Y-18364214D01*
X8993928Y-18392786D02*
X9008214Y-18378500D01*
X9036786Y-18364214D01*
X9079643Y-18364214D01*
X9108214Y-18378500D01*
X9122500Y-18407072D01*
X9122500Y-18564214D01*
X9122500Y-18407072D02*
X9136786Y-18378500D01*
X9165357Y-18364214D01*
X9208214Y-18364214D01*
X9236786Y-18378500D01*
X9251071Y-18407072D01*
X9251071Y-18564214D01*
X9836786Y-18249929D02*
X9579643Y-18635643D01*
X10222500Y-18264214D02*
X10251071Y-18264214D01*
X10279643Y-18278500D01*
X10293928Y-18292786D01*
X10308214Y-18321357D01*
X10322500Y-18378500D01*
X10322500Y-18449929D01*
X10308214Y-18507072D01*
X10293928Y-18535643D01*
X10279643Y-18549929D01*
X10251071Y-18564214D01*
X10222500Y-18564214D01*
X10193928Y-18549929D01*
X10179643Y-18535643D01*
X10165357Y-18507072D01*
X10151071Y-18449929D01*
X10151071Y-18378500D01*
X10165357Y-18321357D01*
X10179643Y-18292786D01*
X10193928Y-18278500D01*
X10222500Y-18264214D01*
X10451071Y-18535643D02*
X10465357Y-18549929D01*
X10451071Y-18564214D01*
X10436786Y-18549929D01*
X10451071Y-18535643D01*
X10451071Y-18564214D01*
X10651071Y-18264214D02*
X10679643Y-18264214D01*
X10708214Y-18278500D01*
X10722500Y-18292786D01*
X10736786Y-18321357D01*
X10751071Y-18378500D01*
X10751071Y-18449929D01*
X10736786Y-18507072D01*
X10722500Y-18535643D01*
X10708214Y-18549929D01*
X10679643Y-18564214D01*
X10651071Y-18564214D01*
X10622500Y-18549929D01*
X10608214Y-18535643D01*
X10593928Y-18507072D01*
X10579643Y-18449929D01*
X10579643Y-18378500D01*
X10593928Y-18321357D01*
X10608214Y-18292786D01*
X10622500Y-18278500D01*
X10651071Y-18264214D01*
X10865357Y-18292786D02*
X10879643Y-18278500D01*
X10908214Y-18264214D01*
X10979643Y-18264214D01*
X11008214Y-18278500D01*
X11022500Y-18292786D01*
X11036786Y-18321357D01*
X11036786Y-18349929D01*
X11022500Y-18392786D01*
X10851071Y-18564214D01*
X11036786Y-18564214D01*
X11293928Y-18264214D02*
X11236786Y-18264214D01*
X11208214Y-18278500D01*
X11193928Y-18292786D01*
X11165357Y-18335643D01*
X11151071Y-18392786D01*
X11151071Y-18507072D01*
X11165357Y-18535643D01*
X11179643Y-18549929D01*
X11208214Y-18564214D01*
X11265357Y-18564214D01*
X11293928Y-18549929D01*
X11308214Y-18535643D01*
X11322500Y-18507072D01*
X11322500Y-18435643D01*
X11308214Y-18407072D01*
X11293928Y-18392786D01*
X11265357Y-18378500D01*
X11208214Y-18378500D01*
X11179643Y-18392786D01*
X11165357Y-18407072D01*
X11151071Y-18435643D01*
X11436786Y-18264214D02*
X11436786Y-18321357D01*
X11551071Y-18264214D02*
X11551071Y-18321357D01*
X11993928Y-18678500D02*
X11979643Y-18664214D01*
X11951071Y-18621357D01*
X11936786Y-18592786D01*
X11922500Y-18549929D01*
X11908214Y-18478500D01*
X11908214Y-18421357D01*
X11922500Y-18349929D01*
X11936786Y-18307072D01*
X11951071Y-18278500D01*
X11979643Y-18235643D01*
X11993928Y-18221357D01*
X12251071Y-18264214D02*
X12108214Y-18264214D01*
X12093928Y-18407072D01*
X12108214Y-18392786D01*
X12136786Y-18378500D01*
X12208214Y-18378500D01*
X12236786Y-18392786D01*
X12251071Y-18407072D01*
X12265357Y-18435643D01*
X12265357Y-18507072D01*
X12251071Y-18535643D01*
X12236786Y-18549929D01*
X12208214Y-18564214D01*
X12136786Y-18564214D01*
X12108214Y-18549929D01*
X12093928Y-18535643D01*
X12622500Y-18564214D02*
X12622500Y-18264214D01*
X12751071Y-18564214D02*
X12751071Y-18407072D01*
X12736786Y-18378500D01*
X12708214Y-18364214D01*
X12665357Y-18364214D01*
X12636786Y-18378500D01*
X12622500Y-18392786D01*
X12936786Y-18564214D02*
X12908214Y-18549929D01*
X12893928Y-18535643D01*
X12879643Y-18507072D01*
X12879643Y-18421357D01*
X12893928Y-18392786D01*
X12908214Y-18378500D01*
X12936786Y-18364214D01*
X12979643Y-18364214D01*
X13008214Y-18378500D01*
X13022500Y-18392786D01*
X13036786Y-18421357D01*
X13036786Y-18507072D01*
X13022500Y-18535643D01*
X13008214Y-18549929D01*
X12979643Y-18564214D01*
X12936786Y-18564214D01*
X13208214Y-18564214D02*
X13179643Y-18549929D01*
X13165357Y-18521357D01*
X13165357Y-18264214D01*
X13436786Y-18549929D02*
X13408214Y-18564214D01*
X13351071Y-18564214D01*
X13322500Y-18549929D01*
X13308214Y-18521357D01*
X13308214Y-18407072D01*
X13322500Y-18378500D01*
X13351071Y-18364214D01*
X13408214Y-18364214D01*
X13436786Y-18378500D01*
X13451071Y-18407072D01*
X13451071Y-18435643D01*
X13308214Y-18464214D01*
X13565357Y-18549929D02*
X13593928Y-18564214D01*
X13651071Y-18564214D01*
X13679643Y-18549929D01*
X13693928Y-18521357D01*
X13693928Y-18507072D01*
X13679643Y-18478500D01*
X13651071Y-18464214D01*
X13608214Y-18464214D01*
X13579643Y-18449929D01*
X13565357Y-18421357D01*
X13565357Y-18407072D01*
X13579643Y-18378500D01*
X13608214Y-18364214D01*
X13651071Y-18364214D01*
X13679643Y-18378500D01*
X13793928Y-18678500D02*
X13808214Y-18664214D01*
X13836786Y-18621357D01*
X13851071Y-18592786D01*
X13865357Y-18549929D01*
X13879643Y-18478500D01*
X13879643Y-18421357D01*
X13865357Y-18349929D01*
X13851071Y-18307072D01*
X13836786Y-18278500D01*
X13808214Y-18235643D01*
X13793928Y-18221357D01*
X7269400Y-18786400D02*
X7269400Y-18862600D01*
X7231300Y-18824500D02*
X7307500Y-18824500D01*
X7651071Y-18660214D02*
X7679643Y-18660214D01*
X7708214Y-18674500D01*
X7722500Y-18688786D01*
X7736786Y-18717357D01*
X7751071Y-18774500D01*
X7751071Y-18845929D01*
X7736786Y-18903072D01*
X7722500Y-18931643D01*
X7708214Y-18945929D01*
X7679643Y-18960214D01*
X7651071Y-18960214D01*
X7622500Y-18945929D01*
X7608214Y-18931643D01*
X7593928Y-18903072D01*
X7579643Y-18845929D01*
X7579643Y-18774500D01*
X7593928Y-18717357D01*
X7608214Y-18688786D01*
X7622500Y-18674500D01*
X7651071Y-18660214D01*
X7879643Y-18931643D02*
X7893928Y-18945929D01*
X7879643Y-18960214D01*
X7865357Y-18945929D01*
X7879643Y-18931643D01*
X7879643Y-18960214D01*
X7993928Y-18660214D02*
X8193928Y-18660214D01*
X8065357Y-18960214D01*
X8436786Y-18660214D02*
X8379643Y-18660214D01*
X8351071Y-18674500D01*
X8336786Y-18688786D01*
X8308214Y-18731643D01*
X8293928Y-18788786D01*
X8293928Y-18903072D01*
X8308214Y-18931643D01*
X8322500Y-18945929D01*
X8351071Y-18960214D01*
X8408214Y-18960214D01*
X8436786Y-18945929D01*
X8451071Y-18931643D01*
X8465357Y-18903072D01*
X8465357Y-18831643D01*
X8451071Y-18803072D01*
X8436786Y-18788786D01*
X8408214Y-18774500D01*
X8351071Y-18774500D01*
X8322500Y-18788786D01*
X8308214Y-18803072D01*
X8293928Y-18831643D01*
X8593928Y-18960214D02*
X8593928Y-18760214D01*
X8593928Y-18788786D02*
X8608214Y-18774500D01*
X8636786Y-18760214D01*
X8679643Y-18760214D01*
X8708214Y-18774500D01*
X8722500Y-18803072D01*
X8722500Y-18960214D01*
X8722500Y-18803072D02*
X8736786Y-18774500D01*
X8765357Y-18760214D01*
X8808214Y-18760214D01*
X8836786Y-18774500D01*
X8851071Y-18803072D01*
X8851071Y-18960214D01*
X8993928Y-18960214D02*
X8993928Y-18760214D01*
X8993928Y-18788786D02*
X9008214Y-18774500D01*
X9036786Y-18760214D01*
X9079643Y-18760214D01*
X9108214Y-18774500D01*
X9122500Y-18803072D01*
X9122500Y-18960214D01*
X9122500Y-18803072D02*
X9136786Y-18774500D01*
X9165357Y-18760214D01*
X9208214Y-18760214D01*
X9236786Y-18774500D01*
X9251071Y-18803072D01*
X9251071Y-18960214D01*
X9836786Y-18645929D02*
X9579643Y-19031643D01*
X10222500Y-18660214D02*
X10251071Y-18660214D01*
X10279643Y-18674500D01*
X10293928Y-18688786D01*
X10308214Y-18717357D01*
X10322500Y-18774500D01*
X10322500Y-18845929D01*
X10308214Y-18903072D01*
X10293928Y-18931643D01*
X10279643Y-18945929D01*
X10251071Y-18960214D01*
X10222500Y-18960214D01*
X10193928Y-18945929D01*
X10179643Y-18931643D01*
X10165357Y-18903072D01*
X10151071Y-18845929D01*
X10151071Y-18774500D01*
X10165357Y-18717357D01*
X10179643Y-18688786D01*
X10193928Y-18674500D01*
X10222500Y-18660214D01*
X10451071Y-18931643D02*
X10465357Y-18945929D01*
X10451071Y-18960214D01*
X10436786Y-18945929D01*
X10451071Y-18931643D01*
X10451071Y-18960214D01*
X10651071Y-18660214D02*
X10679643Y-18660214D01*
X10708214Y-18674500D01*
X10722500Y-18688786D01*
X10736786Y-18717357D01*
X10751071Y-18774500D01*
X10751071Y-18845929D01*
X10736786Y-18903072D01*
X10722500Y-18931643D01*
X10708214Y-18945929D01*
X10679643Y-18960214D01*
X10651071Y-18960214D01*
X10622500Y-18945929D01*
X10608214Y-18931643D01*
X10593928Y-18903072D01*
X10579643Y-18845929D01*
X10579643Y-18774500D01*
X10593928Y-18717357D01*
X10608214Y-18688786D01*
X10622500Y-18674500D01*
X10651071Y-18660214D01*
X10851071Y-18660214D02*
X11036786Y-18660214D01*
X10936786Y-18774500D01*
X10979643Y-18774500D01*
X11008214Y-18788786D01*
X11022500Y-18803072D01*
X11036786Y-18831643D01*
X11036786Y-18903072D01*
X11022500Y-18931643D01*
X11008214Y-18945929D01*
X10979643Y-18960214D01*
X10893928Y-18960214D01*
X10865357Y-18945929D01*
X10851071Y-18931643D01*
X11222500Y-18660214D02*
X11251071Y-18660214D01*
X11279643Y-18674500D01*
X11293928Y-18688786D01*
X11308214Y-18717357D01*
X11322500Y-18774500D01*
X11322500Y-18845929D01*
X11308214Y-18903072D01*
X11293928Y-18931643D01*
X11279643Y-18945929D01*
X11251071Y-18960214D01*
X11222500Y-18960214D01*
X11193928Y-18945929D01*
X11179643Y-18931643D01*
X11165357Y-18903072D01*
X11151071Y-18845929D01*
X11151071Y-18774500D01*
X11165357Y-18717357D01*
X11179643Y-18688786D01*
X11193928Y-18674500D01*
X11222500Y-18660214D01*
X11436786Y-18660214D02*
X11436786Y-18717357D01*
X11551071Y-18660214D02*
X11551071Y-18717357D01*
X11993928Y-19074500D02*
X11979643Y-19060214D01*
X11951071Y-19017357D01*
X11936786Y-18988786D01*
X11922500Y-18945929D01*
X11908214Y-18874500D01*
X11908214Y-18817357D01*
X11922500Y-18745929D01*
X11936786Y-18703072D01*
X11951071Y-18674500D01*
X11979643Y-18631643D01*
X11993928Y-18617357D01*
X12151071Y-18788786D02*
X12122500Y-18774500D01*
X12108214Y-18760214D01*
X12093928Y-18731643D01*
X12093928Y-18717357D01*
X12108214Y-18688786D01*
X12122500Y-18674500D01*
X12151071Y-18660214D01*
X12208214Y-18660214D01*
X12236786Y-18674500D01*
X12251071Y-18688786D01*
X12265357Y-18717357D01*
X12265357Y-18731643D01*
X12251071Y-18760214D01*
X12236786Y-18774500D01*
X12208214Y-18788786D01*
X12151071Y-18788786D01*
X12122500Y-18803072D01*
X12108214Y-18817357D01*
X12093928Y-18845929D01*
X12093928Y-18903072D01*
X12108214Y-18931643D01*
X12122500Y-18945929D01*
X12151071Y-18960214D01*
X12208214Y-18960214D01*
X12236786Y-18945929D01*
X12251071Y-18931643D01*
X12265357Y-18903072D01*
X12265357Y-18845929D01*
X12251071Y-18817357D01*
X12236786Y-18803072D01*
X12208214Y-18788786D01*
X12622500Y-18960214D02*
X12622500Y-18660214D01*
X12751071Y-18960214D02*
X12751071Y-18803072D01*
X12736786Y-18774500D01*
X12708214Y-18760214D01*
X12665357Y-18760214D01*
X12636786Y-18774500D01*
X12622500Y-18788786D01*
X12936786Y-18960214D02*
X12908214Y-18945929D01*
X12893928Y-18931643D01*
X12879643Y-18903072D01*
X12879643Y-18817357D01*
X12893928Y-18788786D01*
X12908214Y-18774500D01*
X12936786Y-18760214D01*
X12979643Y-18760214D01*
X13008214Y-18774500D01*
X13022500Y-18788786D01*
X13036786Y-18817357D01*
X13036786Y-18903072D01*
X13022500Y-18931643D01*
X13008214Y-18945929D01*
X12979643Y-18960214D01*
X12936786Y-18960214D01*
X13208214Y-18960214D02*
X13179643Y-18945929D01*
X13165357Y-18917357D01*
X13165357Y-18660214D01*
X13436786Y-18945929D02*
X13408214Y-18960214D01*
X13351071Y-18960214D01*
X13322500Y-18945929D01*
X13308214Y-18917357D01*
X13308214Y-18803072D01*
X13322500Y-18774500D01*
X13351071Y-18760214D01*
X13408214Y-18760214D01*
X13436786Y-18774500D01*
X13451071Y-18803072D01*
X13451071Y-18831643D01*
X13308214Y-18860214D01*
X13565357Y-18945929D02*
X13593928Y-18960214D01*
X13651071Y-18960214D01*
X13679643Y-18945929D01*
X13693928Y-18917357D01*
X13693928Y-18903072D01*
X13679643Y-18874500D01*
X13651071Y-18860214D01*
X13608214Y-18860214D01*
X13579643Y-18845929D01*
X13565357Y-18817357D01*
X13565357Y-18803072D01*
X13579643Y-18774500D01*
X13608214Y-18760214D01*
X13651071Y-18760214D01*
X13679643Y-18774500D01*
X13793928Y-19074500D02*
X13808214Y-19060214D01*
X13836786Y-19017357D01*
X13851071Y-18988786D01*
X13865357Y-18945929D01*
X13879643Y-18874500D01*
X13879643Y-18817357D01*
X13865357Y-18745929D01*
X13851071Y-18703072D01*
X13836786Y-18674500D01*
X13808214Y-18631643D01*
X13793928Y-18617357D01*
X7295784Y-19248785D02*
X7295784Y-19192216D01*
X7239215Y-19192216D01*
X7239215Y-19248785D01*
X7295784Y-19248785D01*
X7651071Y-19056214D02*
X7679643Y-19056214D01*
X7708214Y-19070500D01*
X7722500Y-19084786D01*
X7736786Y-19113357D01*
X7751071Y-19170500D01*
X7751071Y-19241929D01*
X7736786Y-19299072D01*
X7722500Y-19327643D01*
X7708214Y-19341929D01*
X7679643Y-19356214D01*
X7651071Y-19356214D01*
X7622500Y-19341929D01*
X7608214Y-19327643D01*
X7593928Y-19299072D01*
X7579643Y-19241929D01*
X7579643Y-19170500D01*
X7593928Y-19113357D01*
X7608214Y-19084786D01*
X7622500Y-19070500D01*
X7651071Y-19056214D01*
X7879643Y-19327643D02*
X7893928Y-19341929D01*
X7879643Y-19356214D01*
X7865357Y-19341929D01*
X7879643Y-19327643D01*
X7879643Y-19356214D01*
X8065357Y-19184786D02*
X8036786Y-19170500D01*
X8022500Y-19156214D01*
X8008214Y-19127643D01*
X8008214Y-19113357D01*
X8022500Y-19084786D01*
X8036786Y-19070500D01*
X8065357Y-19056214D01*
X8122500Y-19056214D01*
X8151071Y-19070500D01*
X8165357Y-19084786D01*
X8179643Y-19113357D01*
X8179643Y-19127643D01*
X8165357Y-19156214D01*
X8151071Y-19170500D01*
X8122500Y-19184786D01*
X8065357Y-19184786D01*
X8036786Y-19199072D01*
X8022500Y-19213357D01*
X8008214Y-19241929D01*
X8008214Y-19299072D01*
X8022500Y-19327643D01*
X8036786Y-19341929D01*
X8065357Y-19356214D01*
X8122500Y-19356214D01*
X8151071Y-19341929D01*
X8165357Y-19327643D01*
X8179643Y-19299072D01*
X8179643Y-19241929D01*
X8165357Y-19213357D01*
X8151071Y-19199072D01*
X8122500Y-19184786D01*
X8365357Y-19056214D02*
X8393928Y-19056214D01*
X8422500Y-19070500D01*
X8436786Y-19084786D01*
X8451071Y-19113357D01*
X8465357Y-19170500D01*
X8465357Y-19241929D01*
X8451071Y-19299072D01*
X8436786Y-19327643D01*
X8422500Y-19341929D01*
X8393928Y-19356214D01*
X8365357Y-19356214D01*
X8336786Y-19341929D01*
X8322500Y-19327643D01*
X8308214Y-19299072D01*
X8293928Y-19241929D01*
X8293928Y-19170500D01*
X8308214Y-19113357D01*
X8322500Y-19084786D01*
X8336786Y-19070500D01*
X8365357Y-19056214D01*
X8593928Y-19356214D02*
X8593928Y-19156214D01*
X8593928Y-19184786D02*
X8608214Y-19170500D01*
X8636786Y-19156214D01*
X8679643Y-19156214D01*
X8708214Y-19170500D01*
X8722500Y-19199072D01*
X8722500Y-19356214D01*
X8722500Y-19199072D02*
X8736786Y-19170500D01*
X8765357Y-19156214D01*
X8808214Y-19156214D01*
X8836786Y-19170500D01*
X8851071Y-19199072D01*
X8851071Y-19356214D01*
X8993928Y-19356214D02*
X8993928Y-19156214D01*
X8993928Y-19184786D02*
X9008214Y-19170500D01*
X9036786Y-19156214D01*
X9079643Y-19156214D01*
X9108214Y-19170500D01*
X9122500Y-19199072D01*
X9122500Y-19356214D01*
X9122500Y-19199072D02*
X9136786Y-19170500D01*
X9165357Y-19156214D01*
X9208214Y-19156214D01*
X9236786Y-19170500D01*
X9251071Y-19199072D01*
X9251071Y-19356214D01*
X9836786Y-19041929D02*
X9579643Y-19427643D01*
X10222500Y-19056214D02*
X10251071Y-19056214D01*
X10279643Y-19070500D01*
X10293928Y-19084786D01*
X10308214Y-19113357D01*
X10322500Y-19170500D01*
X10322500Y-19241929D01*
X10308214Y-19299072D01*
X10293928Y-19327643D01*
X10279643Y-19341929D01*
X10251071Y-19356214D01*
X10222500Y-19356214D01*
X10193928Y-19341929D01*
X10179643Y-19327643D01*
X10165357Y-19299072D01*
X10151071Y-19241929D01*
X10151071Y-19170500D01*
X10165357Y-19113357D01*
X10179643Y-19084786D01*
X10193928Y-19070500D01*
X10222500Y-19056214D01*
X10451071Y-19327643D02*
X10465357Y-19341929D01*
X10451071Y-19356214D01*
X10436786Y-19341929D01*
X10451071Y-19327643D01*
X10451071Y-19356214D01*
X10651071Y-19056214D02*
X10679643Y-19056214D01*
X10708214Y-19070500D01*
X10722500Y-19084786D01*
X10736786Y-19113357D01*
X10751071Y-19170500D01*
X10751071Y-19241929D01*
X10736786Y-19299072D01*
X10722500Y-19327643D01*
X10708214Y-19341929D01*
X10679643Y-19356214D01*
X10651071Y-19356214D01*
X10622500Y-19341929D01*
X10608214Y-19327643D01*
X10593928Y-19299072D01*
X10579643Y-19241929D01*
X10579643Y-19170500D01*
X10593928Y-19113357D01*
X10608214Y-19084786D01*
X10622500Y-19070500D01*
X10651071Y-19056214D01*
X10851071Y-19056214D02*
X11036786Y-19056214D01*
X10936786Y-19170500D01*
X10979643Y-19170500D01*
X11008214Y-19184786D01*
X11022500Y-19199072D01*
X11036786Y-19227643D01*
X11036786Y-19299072D01*
X11022500Y-19327643D01*
X11008214Y-19341929D01*
X10979643Y-19356214D01*
X10893928Y-19356214D01*
X10865357Y-19341929D01*
X10851071Y-19327643D01*
X11322500Y-19356214D02*
X11151071Y-19356214D01*
X11236786Y-19356214D02*
X11236786Y-19056214D01*
X11208214Y-19099072D01*
X11179643Y-19127643D01*
X11151071Y-19141929D01*
X11436786Y-19056214D02*
X11436786Y-19113357D01*
X11551071Y-19056214D02*
X11551071Y-19113357D01*
X11993928Y-19470500D02*
X11979643Y-19456214D01*
X11951071Y-19413357D01*
X11936786Y-19384786D01*
X11922500Y-19341929D01*
X11908214Y-19270500D01*
X11908214Y-19213357D01*
X11922500Y-19141929D01*
X11936786Y-19099072D01*
X11951071Y-19070500D01*
X11979643Y-19027643D01*
X11993928Y-19013357D01*
X12236786Y-19156214D02*
X12236786Y-19356214D01*
X12165357Y-19041929D02*
X12093928Y-19256214D01*
X12279643Y-19256214D01*
X12365357Y-19056214D02*
X12565357Y-19056214D01*
X12436786Y-19356214D01*
X12908214Y-19356214D02*
X12908214Y-19056214D01*
X13036786Y-19356214D02*
X13036786Y-19199072D01*
X13022500Y-19170500D01*
X12993928Y-19156214D01*
X12951071Y-19156214D01*
X12922500Y-19170500D01*
X12908214Y-19184786D01*
X13222500Y-19356214D02*
X13193928Y-19341929D01*
X13179643Y-19327643D01*
X13165357Y-19299072D01*
X13165357Y-19213357D01*
X13179643Y-19184786D01*
X13193928Y-19170500D01*
X13222500Y-19156214D01*
X13265357Y-19156214D01*
X13293928Y-19170500D01*
X13308214Y-19184786D01*
X13322500Y-19213357D01*
X13322500Y-19299072D01*
X13308214Y-19327643D01*
X13293928Y-19341929D01*
X13265357Y-19356214D01*
X13222500Y-19356214D01*
X13493928Y-19356214D02*
X13465357Y-19341929D01*
X13451071Y-19313357D01*
X13451071Y-19056214D01*
X13722500Y-19341929D02*
X13693928Y-19356214D01*
X13636786Y-19356214D01*
X13608214Y-19341929D01*
X13593928Y-19313357D01*
X13593928Y-19199072D01*
X13608214Y-19170500D01*
X13636786Y-19156214D01*
X13693928Y-19156214D01*
X13722500Y-19170500D01*
X13736786Y-19199072D01*
X13736786Y-19227643D01*
X13593928Y-19256214D01*
X13851071Y-19341929D02*
X13879643Y-19356214D01*
X13936786Y-19356214D01*
X13965357Y-19341929D01*
X13979643Y-19313357D01*
X13979643Y-19299072D01*
X13965357Y-19270500D01*
X13936786Y-19256214D01*
X13893928Y-19256214D01*
X13865357Y-19241929D01*
X13851071Y-19213357D01*
X13851071Y-19199072D01*
X13865357Y-19170500D01*
X13893928Y-19156214D01*
X13936786Y-19156214D01*
X13965357Y-19170500D01*
X14079643Y-19470500D02*
X14093928Y-19456214D01*
X14122500Y-19413357D01*
X14136786Y-19384786D01*
X14151071Y-19341929D01*
X14165357Y-19270500D01*
X14165357Y-19213357D01*
X14151071Y-19141929D01*
X14136786Y-19099072D01*
X14122500Y-19070500D01*
X14093928Y-19027643D01*
X14079643Y-19013357D01*
X7257500Y-19666500D02*
X7307500Y-19616500D01*
X7257500Y-19566500D01*
X7207500Y-19616500D01*
X7257500Y-19666500D01*
X7751071Y-19752214D02*
X7579643Y-19752214D01*
X7665357Y-19752214D02*
X7665357Y-19452214D01*
X7636786Y-19495072D01*
X7608214Y-19523643D01*
X7579643Y-19537929D01*
X7879643Y-19723643D02*
X7893928Y-19737929D01*
X7879643Y-19752214D01*
X7865357Y-19737929D01*
X7879643Y-19723643D01*
X7879643Y-19752214D01*
X8079643Y-19452214D02*
X8108214Y-19452214D01*
X8136786Y-19466500D01*
X8151071Y-19480786D01*
X8165357Y-19509357D01*
X8179643Y-19566500D01*
X8179643Y-19637929D01*
X8165357Y-19695072D01*
X8151071Y-19723643D01*
X8136786Y-19737929D01*
X8108214Y-19752214D01*
X8079643Y-19752214D01*
X8051071Y-19737929D01*
X8036786Y-19723643D01*
X8022500Y-19695072D01*
X8008214Y-19637929D01*
X8008214Y-19566500D01*
X8022500Y-19509357D01*
X8036786Y-19480786D01*
X8051071Y-19466500D01*
X8079643Y-19452214D01*
X8365357Y-19452214D02*
X8393928Y-19452214D01*
X8422500Y-19466500D01*
X8436786Y-19480786D01*
X8451071Y-19509357D01*
X8465357Y-19566500D01*
X8465357Y-19637929D01*
X8451071Y-19695072D01*
X8436786Y-19723643D01*
X8422500Y-19737929D01*
X8393928Y-19752214D01*
X8365357Y-19752214D01*
X8336786Y-19737929D01*
X8322500Y-19723643D01*
X8308214Y-19695072D01*
X8293928Y-19637929D01*
X8293928Y-19566500D01*
X8308214Y-19509357D01*
X8322500Y-19480786D01*
X8336786Y-19466500D01*
X8365357Y-19452214D01*
X8593928Y-19752214D02*
X8593928Y-19552214D01*
X8593928Y-19580786D02*
X8608214Y-19566500D01*
X8636786Y-19552214D01*
X8679643Y-19552214D01*
X8708214Y-19566500D01*
X8722500Y-19595072D01*
X8722500Y-19752214D01*
X8722500Y-19595072D02*
X8736786Y-19566500D01*
X8765357Y-19552214D01*
X8808214Y-19552214D01*
X8836786Y-19566500D01*
X8851071Y-19595072D01*
X8851071Y-19752214D01*
X8993928Y-19752214D02*
X8993928Y-19552214D01*
X8993928Y-19580786D02*
X9008214Y-19566500D01*
X9036786Y-19552214D01*
X9079643Y-19552214D01*
X9108214Y-19566500D01*
X9122500Y-19595072D01*
X9122500Y-19752214D01*
X9122500Y-19595072D02*
X9136786Y-19566500D01*
X9165357Y-19552214D01*
X9208214Y-19552214D01*
X9236786Y-19566500D01*
X9251071Y-19595072D01*
X9251071Y-19752214D01*
X9836786Y-19437929D02*
X9579643Y-19823643D01*
X10222500Y-19452214D02*
X10251071Y-19452214D01*
X10279643Y-19466500D01*
X10293928Y-19480786D01*
X10308214Y-19509357D01*
X10322500Y-19566500D01*
X10322500Y-19637929D01*
X10308214Y-19695072D01*
X10293928Y-19723643D01*
X10279643Y-19737929D01*
X10251071Y-19752214D01*
X10222500Y-19752214D01*
X10193928Y-19737929D01*
X10179643Y-19723643D01*
X10165357Y-19695072D01*
X10151071Y-19637929D01*
X10151071Y-19566500D01*
X10165357Y-19509357D01*
X10179643Y-19480786D01*
X10193928Y-19466500D01*
X10222500Y-19452214D01*
X10451071Y-19723643D02*
X10465357Y-19737929D01*
X10451071Y-19752214D01*
X10436786Y-19737929D01*
X10451071Y-19723643D01*
X10451071Y-19752214D01*
X10651071Y-19452214D02*
X10679643Y-19452214D01*
X10708214Y-19466500D01*
X10722500Y-19480786D01*
X10736786Y-19509357D01*
X10751071Y-19566500D01*
X10751071Y-19637929D01*
X10736786Y-19695072D01*
X10722500Y-19723643D01*
X10708214Y-19737929D01*
X10679643Y-19752214D01*
X10651071Y-19752214D01*
X10622500Y-19737929D01*
X10608214Y-19723643D01*
X10593928Y-19695072D01*
X10579643Y-19637929D01*
X10579643Y-19566500D01*
X10593928Y-19509357D01*
X10608214Y-19480786D01*
X10622500Y-19466500D01*
X10651071Y-19452214D01*
X10851071Y-19452214D02*
X11036786Y-19452214D01*
X10936786Y-19566500D01*
X10979643Y-19566500D01*
X11008214Y-19580786D01*
X11022500Y-19595072D01*
X11036786Y-19623643D01*
X11036786Y-19695072D01*
X11022500Y-19723643D01*
X11008214Y-19737929D01*
X10979643Y-19752214D01*
X10893928Y-19752214D01*
X10865357Y-19737929D01*
X10851071Y-19723643D01*
X11179643Y-19752214D02*
X11236786Y-19752214D01*
X11265357Y-19737929D01*
X11279643Y-19723643D01*
X11308214Y-19680786D01*
X11322500Y-19623643D01*
X11322500Y-19509357D01*
X11308214Y-19480786D01*
X11293928Y-19466500D01*
X11265357Y-19452214D01*
X11208214Y-19452214D01*
X11179643Y-19466500D01*
X11165357Y-19480786D01*
X11151071Y-19509357D01*
X11151071Y-19580786D01*
X11165357Y-19609357D01*
X11179643Y-19623643D01*
X11208214Y-19637929D01*
X11265357Y-19637929D01*
X11293928Y-19623643D01*
X11308214Y-19609357D01*
X11322500Y-19580786D01*
X11436786Y-19452214D02*
X11436786Y-19509357D01*
X11551071Y-19452214D02*
X11551071Y-19509357D01*
X11993928Y-19866500D02*
X11979643Y-19852214D01*
X11951071Y-19809357D01*
X11936786Y-19780786D01*
X11922500Y-19737929D01*
X11908214Y-19666500D01*
X11908214Y-19609357D01*
X11922500Y-19537929D01*
X11936786Y-19495072D01*
X11951071Y-19466500D01*
X11979643Y-19423643D01*
X11993928Y-19409357D01*
X12236786Y-19552214D02*
X12236786Y-19752214D01*
X12165357Y-19437929D02*
X12093928Y-19652214D01*
X12279643Y-19652214D01*
X12622500Y-19752214D02*
X12622500Y-19452214D01*
X12751071Y-19752214D02*
X12751071Y-19595072D01*
X12736786Y-19566500D01*
X12708214Y-19552214D01*
X12665357Y-19552214D01*
X12636786Y-19566500D01*
X12622500Y-19580786D01*
X12936786Y-19752214D02*
X12908214Y-19737929D01*
X12893928Y-19723643D01*
X12879643Y-19695072D01*
X12879643Y-19609357D01*
X12893928Y-19580786D01*
X12908214Y-19566500D01*
X12936786Y-19552214D01*
X12979643Y-19552214D01*
X13008214Y-19566500D01*
X13022500Y-19580786D01*
X13036786Y-19609357D01*
X13036786Y-19695072D01*
X13022500Y-19723643D01*
X13008214Y-19737929D01*
X12979643Y-19752214D01*
X12936786Y-19752214D01*
X13208214Y-19752214D02*
X13179643Y-19737929D01*
X13165357Y-19709357D01*
X13165357Y-19452214D01*
X13436786Y-19737929D02*
X13408214Y-19752214D01*
X13351071Y-19752214D01*
X13322500Y-19737929D01*
X13308214Y-19709357D01*
X13308214Y-19595072D01*
X13322500Y-19566500D01*
X13351071Y-19552214D01*
X13408214Y-19552214D01*
X13436786Y-19566500D01*
X13451071Y-19595072D01*
X13451071Y-19623643D01*
X13308214Y-19652214D01*
X13565357Y-19737929D02*
X13593928Y-19752214D01*
X13651071Y-19752214D01*
X13679643Y-19737929D01*
X13693928Y-19709357D01*
X13693928Y-19695072D01*
X13679643Y-19666500D01*
X13651071Y-19652214D01*
X13608214Y-19652214D01*
X13579643Y-19637929D01*
X13565357Y-19609357D01*
X13565357Y-19595072D01*
X13579643Y-19566500D01*
X13608214Y-19552214D01*
X13651071Y-19552214D01*
X13679643Y-19566500D01*
X13793928Y-19866500D02*
X13808214Y-19852214D01*
X13836786Y-19809357D01*
X13851071Y-19780786D01*
X13865357Y-19737929D01*
X13879643Y-19666500D01*
X13879643Y-19609357D01*
X13865357Y-19537929D01*
X13851071Y-19495072D01*
X13836786Y-19466500D01*
X13808214Y-19423643D01*
X13793928Y-19409357D01*
X7137500Y-19927500D02*
X7307500Y-20097500D01*
X7307500Y-19927500D02*
X7137500Y-20097500D01*
X7307500Y-20012500D02*
G75*
G03X7307500Y-20012500I-85000J0D01*
G01*
X7751071Y-20148214D02*
X7579643Y-20148214D01*
X7665357Y-20148214D02*
X7665357Y-19848214D01*
X7636786Y-19891072D01*
X7608214Y-19919643D01*
X7579643Y-19933929D01*
X7879643Y-20119643D02*
X7893928Y-20133929D01*
X7879643Y-20148214D01*
X7865357Y-20133929D01*
X7879643Y-20119643D01*
X7879643Y-20148214D01*
X7993928Y-19848214D02*
X8193928Y-19848214D01*
X8065357Y-20148214D01*
X8365357Y-19848214D02*
X8393928Y-19848214D01*
X8422500Y-19862500D01*
X8436786Y-19876786D01*
X8451071Y-19905357D01*
X8465357Y-19962500D01*
X8465357Y-20033929D01*
X8451071Y-20091072D01*
X8436786Y-20119643D01*
X8422500Y-20133929D01*
X8393928Y-20148214D01*
X8365357Y-20148214D01*
X8336786Y-20133929D01*
X8322500Y-20119643D01*
X8308214Y-20091072D01*
X8293928Y-20033929D01*
X8293928Y-19962500D01*
X8308214Y-19905357D01*
X8322500Y-19876786D01*
X8336786Y-19862500D01*
X8365357Y-19848214D01*
X8593928Y-20148214D02*
X8593928Y-19948214D01*
X8593928Y-19976786D02*
X8608214Y-19962500D01*
X8636786Y-19948214D01*
X8679643Y-19948214D01*
X8708214Y-19962500D01*
X8722500Y-19991072D01*
X8722500Y-20148214D01*
X8722500Y-19991072D02*
X8736786Y-19962500D01*
X8765357Y-19948214D01*
X8808214Y-19948214D01*
X8836786Y-19962500D01*
X8851071Y-19991072D01*
X8851071Y-20148214D01*
X8993928Y-20148214D02*
X8993928Y-19948214D01*
X8993928Y-19976786D02*
X9008214Y-19962500D01*
X9036786Y-19948214D01*
X9079643Y-19948214D01*
X9108214Y-19962500D01*
X9122500Y-19991072D01*
X9122500Y-20148214D01*
X9122500Y-19991072D02*
X9136786Y-19962500D01*
X9165357Y-19948214D01*
X9208214Y-19948214D01*
X9236786Y-19962500D01*
X9251071Y-19991072D01*
X9251071Y-20148214D01*
X9836786Y-19833929D02*
X9579643Y-20219643D01*
X10222500Y-19848214D02*
X10251071Y-19848214D01*
X10279643Y-19862500D01*
X10293928Y-19876786D01*
X10308214Y-19905357D01*
X10322500Y-19962500D01*
X10322500Y-20033929D01*
X10308214Y-20091072D01*
X10293928Y-20119643D01*
X10279643Y-20133929D01*
X10251071Y-20148214D01*
X10222500Y-20148214D01*
X10193928Y-20133929D01*
X10179643Y-20119643D01*
X10165357Y-20091072D01*
X10151071Y-20033929D01*
X10151071Y-19962500D01*
X10165357Y-19905357D01*
X10179643Y-19876786D01*
X10193928Y-19862500D01*
X10222500Y-19848214D01*
X10451071Y-20119643D02*
X10465357Y-20133929D01*
X10451071Y-20148214D01*
X10436786Y-20133929D01*
X10451071Y-20119643D01*
X10451071Y-20148214D01*
X10651071Y-19848214D02*
X10679643Y-19848214D01*
X10708214Y-19862500D01*
X10722500Y-19876786D01*
X10736786Y-19905357D01*
X10751071Y-19962500D01*
X10751071Y-20033929D01*
X10736786Y-20091072D01*
X10722500Y-20119643D01*
X10708214Y-20133929D01*
X10679643Y-20148214D01*
X10651071Y-20148214D01*
X10622500Y-20133929D01*
X10608214Y-20119643D01*
X10593928Y-20091072D01*
X10579643Y-20033929D01*
X10579643Y-19962500D01*
X10593928Y-19905357D01*
X10608214Y-19876786D01*
X10622500Y-19862500D01*
X10651071Y-19848214D01*
X11008214Y-19848214D02*
X10951071Y-19848214D01*
X10922500Y-19862500D01*
X10908214Y-19876786D01*
X10879643Y-19919643D01*
X10865357Y-19976786D01*
X10865357Y-20091072D01*
X10879643Y-20119643D01*
X10893928Y-20133929D01*
X10922500Y-20148214D01*
X10979643Y-20148214D01*
X11008214Y-20133929D01*
X11022500Y-20119643D01*
X11036786Y-20091072D01*
X11036786Y-20019643D01*
X11022500Y-19991072D01*
X11008214Y-19976786D01*
X10979643Y-19962500D01*
X10922500Y-19962500D01*
X10893928Y-19976786D01*
X10879643Y-19991072D01*
X10865357Y-20019643D01*
X11136786Y-19848214D02*
X11336786Y-19848214D01*
X11208214Y-20148214D01*
X11436786Y-19848214D02*
X11436786Y-19905357D01*
X11551071Y-19848214D02*
X11551071Y-19905357D01*
X11993928Y-20262500D02*
X11979643Y-20248214D01*
X11951071Y-20205357D01*
X11936786Y-20176786D01*
X11922500Y-20133929D01*
X11908214Y-20062500D01*
X11908214Y-20005357D01*
X11922500Y-19933929D01*
X11936786Y-19891072D01*
X11951071Y-19862500D01*
X11979643Y-19819643D01*
X11993928Y-19805357D01*
X12236786Y-19948214D02*
X12236786Y-20148214D01*
X12165357Y-19833929D02*
X12093928Y-20048214D01*
X12279643Y-20048214D01*
X12622500Y-20148214D02*
X12622500Y-19848214D01*
X12751071Y-20148214D02*
X12751071Y-19991072D01*
X12736786Y-19962500D01*
X12708214Y-19948214D01*
X12665357Y-19948214D01*
X12636786Y-19962500D01*
X12622500Y-19976786D01*
X12936786Y-20148214D02*
X12908214Y-20133929D01*
X12893928Y-20119643D01*
X12879643Y-20091072D01*
X12879643Y-20005357D01*
X12893928Y-19976786D01*
X12908214Y-19962500D01*
X12936786Y-19948214D01*
X12979643Y-19948214D01*
X13008214Y-19962500D01*
X13022500Y-19976786D01*
X13036786Y-20005357D01*
X13036786Y-20091072D01*
X13022500Y-20119643D01*
X13008214Y-20133929D01*
X12979643Y-20148214D01*
X12936786Y-20148214D01*
X13208214Y-20148214D02*
X13179643Y-20133929D01*
X13165357Y-20105357D01*
X13165357Y-19848214D01*
X13436786Y-20133929D02*
X13408214Y-20148214D01*
X13351071Y-20148214D01*
X13322500Y-20133929D01*
X13308214Y-20105357D01*
X13308214Y-19991072D01*
X13322500Y-19962500D01*
X13351071Y-19948214D01*
X13408214Y-19948214D01*
X13436786Y-19962500D01*
X13451071Y-19991072D01*
X13451071Y-20019643D01*
X13308214Y-20048214D01*
X13565357Y-20133929D02*
X13593928Y-20148214D01*
X13651071Y-20148214D01*
X13679643Y-20133929D01*
X13693928Y-20105357D01*
X13693928Y-20091072D01*
X13679643Y-20062500D01*
X13651071Y-20048214D01*
X13608214Y-20048214D01*
X13579643Y-20033929D01*
X13565357Y-20005357D01*
X13565357Y-19991072D01*
X13579643Y-19962500D01*
X13608214Y-19948214D01*
X13651071Y-19948214D01*
X13679643Y-19962500D01*
X13793928Y-20262500D02*
X13808214Y-20248214D01*
X13836786Y-20205357D01*
X13851071Y-20176786D01*
X13865357Y-20133929D01*
X13879643Y-20062500D01*
X13879643Y-20005357D01*
X13865357Y-19933929D01*
X13851071Y-19891072D01*
X13836786Y-19862500D01*
X13808214Y-19819643D01*
X13793928Y-19805357D01*
M02*
