%FSLAX45Y45*%
G04 Gerber Fmt 4.5, Leading zero omitted, Abs format (unit mm)*
G04 Created by KiCad (PCBNEW 5.1.5) date 2019-11-29 13:28:31*
%MOMM*%
%LPD*%
G04 APERTURE LIST*
%TA.AperFunction,Profile*%
%ADD10C,0.050000*%
%TD*%
%ADD11C,0.200000*%
%ADD12C,0.300000*%
G04 APERTURE END LIST*
D10*
X7310000Y-17070000D02*
X7310000Y-6550000D01*
X10870000Y-17070000D02*
X7310000Y-17070000D01*
X10870000Y-14920000D02*
X10870000Y-17070000D01*
X11000000Y-14920000D02*
X10870000Y-14920000D01*
X11000000Y-9740000D02*
X11000000Y-14920000D01*
X10390000Y-9740000D02*
X11000000Y-9740000D01*
X10390000Y-9000000D02*
X10390000Y-9740000D01*
X10760000Y-9000000D02*
X10390000Y-9000000D01*
X10760000Y-6550000D02*
X10760000Y-9000000D01*
X7310000Y-6550000D02*
X10760000Y-6550000D01*
D11*
D12*
X7593928Y-17538214D02*
X7593928Y-17238214D01*
X7665357Y-17238214D01*
X7708214Y-17252500D01*
X7736786Y-17281072D01*
X7751071Y-17309643D01*
X7765357Y-17366786D01*
X7765357Y-17409643D01*
X7751071Y-17466786D01*
X7736786Y-17495357D01*
X7708214Y-17523929D01*
X7665357Y-17538214D01*
X7593928Y-17538214D01*
X7893928Y-17538214D02*
X7893928Y-17338214D01*
X7893928Y-17395357D02*
X7908214Y-17366786D01*
X7922500Y-17352500D01*
X7951071Y-17338214D01*
X7979643Y-17338214D01*
X8079643Y-17538214D02*
X8079643Y-17338214D01*
X8079643Y-17238214D02*
X8065357Y-17252500D01*
X8079643Y-17266786D01*
X8093928Y-17252500D01*
X8079643Y-17238214D01*
X8079643Y-17266786D01*
X8265357Y-17538214D02*
X8236786Y-17523929D01*
X8222500Y-17495357D01*
X8222500Y-17238214D01*
X8422500Y-17538214D02*
X8393928Y-17523929D01*
X8379643Y-17495357D01*
X8379643Y-17238214D01*
X8765357Y-17538214D02*
X8765357Y-17238214D01*
X8865357Y-17452500D01*
X8965357Y-17238214D01*
X8965357Y-17538214D01*
X9236786Y-17538214D02*
X9236786Y-17381072D01*
X9222500Y-17352500D01*
X9193928Y-17338214D01*
X9136786Y-17338214D01*
X9108214Y-17352500D01*
X9236786Y-17523929D02*
X9208214Y-17538214D01*
X9136786Y-17538214D01*
X9108214Y-17523929D01*
X9093928Y-17495357D01*
X9093928Y-17466786D01*
X9108214Y-17438214D01*
X9136786Y-17423929D01*
X9208214Y-17423929D01*
X9236786Y-17409643D01*
X9379643Y-17338214D02*
X9379643Y-17638214D01*
X9379643Y-17352500D02*
X9408214Y-17338214D01*
X9465357Y-17338214D01*
X9493928Y-17352500D01*
X9508214Y-17366786D01*
X9522500Y-17395357D01*
X9522500Y-17481072D01*
X9508214Y-17509643D01*
X9493928Y-17523929D01*
X9465357Y-17538214D01*
X9408214Y-17538214D01*
X9379643Y-17523929D01*
X9651071Y-17509643D02*
X9665357Y-17523929D01*
X9651071Y-17538214D01*
X9636786Y-17523929D01*
X9651071Y-17509643D01*
X9651071Y-17538214D01*
X9651071Y-17352500D02*
X9665357Y-17366786D01*
X9651071Y-17381072D01*
X9636786Y-17366786D01*
X9651071Y-17352500D01*
X9651071Y-17381072D01*
M02*
