G04 #@! TF.GenerationSoftware,KiCad,Pcbnew,5.1.5*
G04 #@! TF.CreationDate,2019-11-29T13:32:31+01:00*
G04 #@! TF.ProjectId,derverbinder,64657276-6572-4626-996e-6465722e6b69,rev?*
G04 #@! TF.SameCoordinates,Original*
G04 #@! TF.FileFunction,Legend,Top*
G04 #@! TF.FilePolarity,Positive*
%FSLAX46Y46*%
G04 Gerber Fmt 4.6, Leading zero omitted, Abs format (unit mm)*
G04 Created by KiCad (PCBNEW 5.1.5) date 2019-11-29 13:32:31*
%MOMM*%
%LPD*%
G04 APERTURE LIST*
%ADD10C,0.100000*%
%ADD11C,0.150000*%
%ADD12C,0.300000*%
%ADD13C,0.400000*%
%ADD14C,0.120000*%
G04 APERTURE END LIST*
D10*
D11*
X177002200Y-166007200D02*
X177002200Y-198007200D01*
X285002200Y-198007200D01*
X285002200Y-166007200D01*
X177002200Y-166007200D01*
D10*
D11*
X10000000Y-10000000D02*
X10000000Y-200007200D01*
X287002200Y-200007200D01*
X287002200Y-10000000D01*
X10000000Y-10000000D01*
D10*
D11*
X12000000Y-12000000D02*
X12000000Y-198007200D01*
X285002200Y-198007200D01*
X285002200Y-12000000D01*
X12000000Y-12000000D01*
D10*
D11*
X60000000Y-12000000D02*
X60000000Y-10000000D01*
D10*
D11*
X110000000Y-12000000D02*
X110000000Y-10000000D01*
D10*
D11*
X160000000Y-12000000D02*
X160000000Y-10000000D01*
D10*
D11*
X210000000Y-12000000D02*
X210000000Y-10000000D01*
D10*
D11*
X260000000Y-12000000D02*
X260000000Y-10000000D01*
D10*
D11*
X36065476Y-11588095D02*
X35322619Y-11588095D01*
X35694047Y-11588095D02*
X35694047Y-10288095D01*
X35570238Y-10473809D01*
X35446428Y-10597619D01*
X35322619Y-10659523D01*
D10*
D11*
X85322619Y-10411904D02*
X85384523Y-10350000D01*
X85508333Y-10288095D01*
X85817857Y-10288095D01*
X85941666Y-10350000D01*
X86003571Y-10411904D01*
X86065476Y-10535714D01*
X86065476Y-10659523D01*
X86003571Y-10845238D01*
X85260714Y-11588095D01*
X86065476Y-11588095D01*
D10*
D11*
X135260714Y-10288095D02*
X136065476Y-10288095D01*
X135632142Y-10783333D01*
X135817857Y-10783333D01*
X135941666Y-10845238D01*
X136003571Y-10907142D01*
X136065476Y-11030952D01*
X136065476Y-11340476D01*
X136003571Y-11464285D01*
X135941666Y-11526190D01*
X135817857Y-11588095D01*
X135446428Y-11588095D01*
X135322619Y-11526190D01*
X135260714Y-11464285D01*
D10*
D11*
X185941666Y-10721428D02*
X185941666Y-11588095D01*
X185632142Y-10226190D02*
X185322619Y-11154761D01*
X186127380Y-11154761D01*
D10*
D11*
X236003571Y-10288095D02*
X235384523Y-10288095D01*
X235322619Y-10907142D01*
X235384523Y-10845238D01*
X235508333Y-10783333D01*
X235817857Y-10783333D01*
X235941666Y-10845238D01*
X236003571Y-10907142D01*
X236065476Y-11030952D01*
X236065476Y-11340476D01*
X236003571Y-11464285D01*
X235941666Y-11526190D01*
X235817857Y-11588095D01*
X235508333Y-11588095D01*
X235384523Y-11526190D01*
X235322619Y-11464285D01*
D10*
D11*
X285941666Y-10288095D02*
X285694047Y-10288095D01*
X285570238Y-10350000D01*
X285508333Y-10411904D01*
X285384523Y-10597619D01*
X285322619Y-10845238D01*
X285322619Y-11340476D01*
X285384523Y-11464285D01*
X285446428Y-11526190D01*
X285570238Y-11588095D01*
X285817857Y-11588095D01*
X285941666Y-11526190D01*
X286003571Y-11464285D01*
X286065476Y-11340476D01*
X286065476Y-11030952D01*
X286003571Y-10907142D01*
X285941666Y-10845238D01*
X285817857Y-10783333D01*
X285570238Y-10783333D01*
X285446428Y-10845238D01*
X285384523Y-10907142D01*
X285322619Y-11030952D01*
D10*
D11*
X60000000Y-198007200D02*
X60000000Y-200007200D01*
D10*
D11*
X110000000Y-198007200D02*
X110000000Y-200007200D01*
D10*
D11*
X160000000Y-198007200D02*
X160000000Y-200007200D01*
D10*
D11*
X210000000Y-198007200D02*
X210000000Y-200007200D01*
D10*
D11*
X260000000Y-198007200D02*
X260000000Y-200007200D01*
D10*
D11*
X36065476Y-199595295D02*
X35322619Y-199595295D01*
X35694047Y-199595295D02*
X35694047Y-198295295D01*
X35570238Y-198481009D01*
X35446428Y-198604819D01*
X35322619Y-198666723D01*
D10*
D11*
X85322619Y-198419104D02*
X85384523Y-198357200D01*
X85508333Y-198295295D01*
X85817857Y-198295295D01*
X85941666Y-198357200D01*
X86003571Y-198419104D01*
X86065476Y-198542914D01*
X86065476Y-198666723D01*
X86003571Y-198852438D01*
X85260714Y-199595295D01*
X86065476Y-199595295D01*
D10*
D11*
X135260714Y-198295295D02*
X136065476Y-198295295D01*
X135632142Y-198790533D01*
X135817857Y-198790533D01*
X135941666Y-198852438D01*
X136003571Y-198914342D01*
X136065476Y-199038152D01*
X136065476Y-199347676D01*
X136003571Y-199471485D01*
X135941666Y-199533390D01*
X135817857Y-199595295D01*
X135446428Y-199595295D01*
X135322619Y-199533390D01*
X135260714Y-199471485D01*
D10*
D11*
X185941666Y-198728628D02*
X185941666Y-199595295D01*
X185632142Y-198233390D02*
X185322619Y-199161961D01*
X186127380Y-199161961D01*
D10*
D11*
X236003571Y-198295295D02*
X235384523Y-198295295D01*
X235322619Y-198914342D01*
X235384523Y-198852438D01*
X235508333Y-198790533D01*
X235817857Y-198790533D01*
X235941666Y-198852438D01*
X236003571Y-198914342D01*
X236065476Y-199038152D01*
X236065476Y-199347676D01*
X236003571Y-199471485D01*
X235941666Y-199533390D01*
X235817857Y-199595295D01*
X235508333Y-199595295D01*
X235384523Y-199533390D01*
X235322619Y-199471485D01*
D10*
D11*
X285941666Y-198295295D02*
X285694047Y-198295295D01*
X285570238Y-198357200D01*
X285508333Y-198419104D01*
X285384523Y-198604819D01*
X285322619Y-198852438D01*
X285322619Y-199347676D01*
X285384523Y-199471485D01*
X285446428Y-199533390D01*
X285570238Y-199595295D01*
X285817857Y-199595295D01*
X285941666Y-199533390D01*
X286003571Y-199471485D01*
X286065476Y-199347676D01*
X286065476Y-199038152D01*
X286003571Y-198914342D01*
X285941666Y-198852438D01*
X285817857Y-198790533D01*
X285570238Y-198790533D01*
X285446428Y-198852438D01*
X285384523Y-198914342D01*
X285322619Y-199038152D01*
D10*
D11*
X10000000Y-60000000D02*
X12000000Y-60000000D01*
D10*
D11*
X10000000Y-110000000D02*
X12000000Y-110000000D01*
D10*
D11*
X10000000Y-160000000D02*
X12000000Y-160000000D01*
D10*
D11*
X10690476Y-35216666D02*
X11309523Y-35216666D01*
X10566666Y-35588095D02*
X11000000Y-34288095D01*
X11433333Y-35588095D01*
D10*
D11*
X11092857Y-84907142D02*
X11278571Y-84969047D01*
X11340476Y-85030952D01*
X11402380Y-85154761D01*
X11402380Y-85340476D01*
X11340476Y-85464285D01*
X11278571Y-85526190D01*
X11154761Y-85588095D01*
X10659523Y-85588095D01*
X10659523Y-84288095D01*
X11092857Y-84288095D01*
X11216666Y-84350000D01*
X11278571Y-84411904D01*
X11340476Y-84535714D01*
X11340476Y-84659523D01*
X11278571Y-84783333D01*
X11216666Y-84845238D01*
X11092857Y-84907142D01*
X10659523Y-84907142D01*
D10*
D11*
X11402380Y-135464285D02*
X11340476Y-135526190D01*
X11154761Y-135588095D01*
X11030952Y-135588095D01*
X10845238Y-135526190D01*
X10721428Y-135402380D01*
X10659523Y-135278571D01*
X10597619Y-135030952D01*
X10597619Y-134845238D01*
X10659523Y-134597619D01*
X10721428Y-134473809D01*
X10845238Y-134350000D01*
X11030952Y-134288095D01*
X11154761Y-134288095D01*
X11340476Y-134350000D01*
X11402380Y-134411904D01*
D10*
D11*
X10659523Y-185588095D02*
X10659523Y-184288095D01*
X10969047Y-184288095D01*
X11154761Y-184350000D01*
X11278571Y-184473809D01*
X11340476Y-184597619D01*
X11402380Y-184845238D01*
X11402380Y-185030952D01*
X11340476Y-185278571D01*
X11278571Y-185402380D01*
X11154761Y-185526190D01*
X10969047Y-185588095D01*
X10659523Y-185588095D01*
D10*
D11*
X287002200Y-60000000D02*
X285002200Y-60000000D01*
D10*
D11*
X287002200Y-110000000D02*
X285002200Y-110000000D01*
D10*
D11*
X287002200Y-160000000D02*
X285002200Y-160000000D01*
D10*
D11*
X285692676Y-35216666D02*
X286311723Y-35216666D01*
X285568866Y-35588095D02*
X286002200Y-34288095D01*
X286435533Y-35588095D01*
D10*
D11*
X286095057Y-84907142D02*
X286280771Y-84969047D01*
X286342676Y-85030952D01*
X286404580Y-85154761D01*
X286404580Y-85340476D01*
X286342676Y-85464285D01*
X286280771Y-85526190D01*
X286156961Y-85588095D01*
X285661723Y-85588095D01*
X285661723Y-84288095D01*
X286095057Y-84288095D01*
X286218866Y-84350000D01*
X286280771Y-84411904D01*
X286342676Y-84535714D01*
X286342676Y-84659523D01*
X286280771Y-84783333D01*
X286218866Y-84845238D01*
X286095057Y-84907142D01*
X285661723Y-84907142D01*
D10*
D11*
X286404580Y-135464285D02*
X286342676Y-135526190D01*
X286156961Y-135588095D01*
X286033152Y-135588095D01*
X285847438Y-135526190D01*
X285723628Y-135402380D01*
X285661723Y-135278571D01*
X285599819Y-135030952D01*
X285599819Y-134845238D01*
X285661723Y-134597619D01*
X285723628Y-134473809D01*
X285847438Y-134350000D01*
X286033152Y-134288095D01*
X286156961Y-134288095D01*
X286342676Y-134350000D01*
X286404580Y-134411904D01*
D10*
D11*
X285661723Y-185588095D02*
X285661723Y-184288095D01*
X285971247Y-184288095D01*
X286156961Y-184350000D01*
X286280771Y-184473809D01*
X286342676Y-184597619D01*
X286404580Y-184845238D01*
X286404580Y-185030952D01*
X286342676Y-185278571D01*
X286280771Y-185402380D01*
X286156961Y-185526190D01*
X285971247Y-185588095D01*
X285661723Y-185588095D01*
D10*
D11*
X200434342Y-193785771D02*
X200434342Y-192285771D01*
X200791485Y-192285771D01*
X201005771Y-192357200D01*
X201148628Y-192500057D01*
X201220057Y-192642914D01*
X201291485Y-192928628D01*
X201291485Y-193142914D01*
X201220057Y-193428628D01*
X201148628Y-193571485D01*
X201005771Y-193714342D01*
X200791485Y-193785771D01*
X200434342Y-193785771D01*
X202577200Y-193785771D02*
X202577200Y-193000057D01*
X202505771Y-192857200D01*
X202362914Y-192785771D01*
X202077200Y-192785771D01*
X201934342Y-192857200D01*
X202577200Y-193714342D02*
X202434342Y-193785771D01*
X202077200Y-193785771D01*
X201934342Y-193714342D01*
X201862914Y-193571485D01*
X201862914Y-193428628D01*
X201934342Y-193285771D01*
X202077200Y-193214342D01*
X202434342Y-193214342D01*
X202577200Y-193142914D01*
X203077200Y-192785771D02*
X203648628Y-192785771D01*
X203291485Y-192285771D02*
X203291485Y-193571485D01*
X203362914Y-193714342D01*
X203505771Y-193785771D01*
X203648628Y-193785771D01*
X204720057Y-193714342D02*
X204577200Y-193785771D01*
X204291485Y-193785771D01*
X204148628Y-193714342D01*
X204077200Y-193571485D01*
X204077200Y-193000057D01*
X204148628Y-192857200D01*
X204291485Y-192785771D01*
X204577200Y-192785771D01*
X204720057Y-192857200D01*
X204791485Y-193000057D01*
X204791485Y-193142914D01*
X204077200Y-193285771D01*
X205434342Y-193642914D02*
X205505771Y-193714342D01*
X205434342Y-193785771D01*
X205362914Y-193714342D01*
X205434342Y-193642914D01*
X205434342Y-193785771D01*
X205434342Y-192857200D02*
X205505771Y-192928628D01*
X205434342Y-193000057D01*
X205362914Y-192928628D01*
X205434342Y-192857200D01*
X205434342Y-193000057D01*
D10*
D11*
X177002200Y-194507200D02*
X285002200Y-194507200D01*
D10*
D11*
X178434342Y-196585771D02*
X178434342Y-195085771D01*
X179291485Y-196585771D02*
X178648628Y-195728628D01*
X179291485Y-195085771D02*
X178434342Y-195942914D01*
X179934342Y-196585771D02*
X179934342Y-195585771D01*
X179934342Y-195085771D02*
X179862914Y-195157200D01*
X179934342Y-195228628D01*
X180005771Y-195157200D01*
X179934342Y-195085771D01*
X179934342Y-195228628D01*
X181505771Y-196442914D02*
X181434342Y-196514342D01*
X181220057Y-196585771D01*
X181077200Y-196585771D01*
X180862914Y-196514342D01*
X180720057Y-196371485D01*
X180648628Y-196228628D01*
X180577200Y-195942914D01*
X180577200Y-195728628D01*
X180648628Y-195442914D01*
X180720057Y-195300057D01*
X180862914Y-195157200D01*
X181077200Y-195085771D01*
X181220057Y-195085771D01*
X181434342Y-195157200D01*
X181505771Y-195228628D01*
X182791485Y-196585771D02*
X182791485Y-195800057D01*
X182720057Y-195657200D01*
X182577200Y-195585771D01*
X182291485Y-195585771D01*
X182148628Y-195657200D01*
X182791485Y-196514342D02*
X182648628Y-196585771D01*
X182291485Y-196585771D01*
X182148628Y-196514342D01*
X182077200Y-196371485D01*
X182077200Y-196228628D01*
X182148628Y-196085771D01*
X182291485Y-196014342D01*
X182648628Y-196014342D01*
X182791485Y-195942914D01*
X184148628Y-196585771D02*
X184148628Y-195085771D01*
X184148628Y-196514342D02*
X184005771Y-196585771D01*
X183720057Y-196585771D01*
X183577200Y-196514342D01*
X183505771Y-196442914D01*
X183434342Y-196300057D01*
X183434342Y-195871485D01*
X183505771Y-195728628D01*
X183577200Y-195657200D01*
X183720057Y-195585771D01*
X184005771Y-195585771D01*
X184148628Y-195657200D01*
X186005771Y-195800057D02*
X186505771Y-195800057D01*
X186720057Y-196585771D02*
X186005771Y-196585771D01*
X186005771Y-195085771D01*
X186720057Y-195085771D01*
X187362914Y-196442914D02*
X187434342Y-196514342D01*
X187362914Y-196585771D01*
X187291485Y-196514342D01*
X187362914Y-196442914D01*
X187362914Y-196585771D01*
X188077200Y-196585771D02*
X188077200Y-195085771D01*
X188434342Y-195085771D01*
X188648628Y-195157200D01*
X188791485Y-195300057D01*
X188862914Y-195442914D01*
X188934342Y-195728628D01*
X188934342Y-195942914D01*
X188862914Y-196228628D01*
X188791485Y-196371485D01*
X188648628Y-196514342D01*
X188434342Y-196585771D01*
X188077200Y-196585771D01*
X189577200Y-196442914D02*
X189648628Y-196514342D01*
X189577200Y-196585771D01*
X189505771Y-196514342D01*
X189577200Y-196442914D01*
X189577200Y-196585771D01*
X190220057Y-196157200D02*
X190934342Y-196157200D01*
X190077200Y-196585771D02*
X190577200Y-195085771D01*
X191077200Y-196585771D01*
X191577200Y-196442914D02*
X191648628Y-196514342D01*
X191577200Y-196585771D01*
X191505771Y-196514342D01*
X191577200Y-196442914D01*
X191577200Y-196585771D01*
X194577200Y-195585771D02*
X194577200Y-197085771D01*
X194577200Y-195657200D02*
X194720057Y-195585771D01*
X195005771Y-195585771D01*
X195148628Y-195657200D01*
X195220057Y-195728628D01*
X195291485Y-195871485D01*
X195291485Y-196300057D01*
X195220057Y-196442914D01*
X195148628Y-196514342D01*
X195005771Y-196585771D01*
X194720057Y-196585771D01*
X194577200Y-196514342D01*
X196577200Y-196514342D02*
X196434342Y-196585771D01*
X196148628Y-196585771D01*
X196005771Y-196514342D01*
X195934342Y-196442914D01*
X195862914Y-196300057D01*
X195862914Y-195871485D01*
X195934342Y-195728628D01*
X196005771Y-195657200D01*
X196148628Y-195585771D01*
X196434342Y-195585771D01*
X196577200Y-195657200D01*
X197220057Y-196585771D02*
X197220057Y-195085771D01*
X197220057Y-195657200D02*
X197362914Y-195585771D01*
X197648628Y-195585771D01*
X197791485Y-195657200D01*
X197862914Y-195728628D01*
X197934342Y-195871485D01*
X197934342Y-196300057D01*
X197862914Y-196442914D01*
X197791485Y-196514342D01*
X197648628Y-196585771D01*
X197362914Y-196585771D01*
X197220057Y-196514342D01*
X198577200Y-195585771D02*
X198577200Y-196585771D01*
X198577200Y-195728628D02*
X198648628Y-195657200D01*
X198791485Y-195585771D01*
X199005771Y-195585771D01*
X199148628Y-195657200D01*
X199220057Y-195800057D01*
X199220057Y-196585771D01*
X200505771Y-196514342D02*
X200362914Y-196585771D01*
X200077200Y-196585771D01*
X199934342Y-196514342D01*
X199862914Y-196371485D01*
X199862914Y-195800057D01*
X199934342Y-195657200D01*
X200077200Y-195585771D01*
X200362914Y-195585771D01*
X200505771Y-195657200D01*
X200577200Y-195800057D01*
X200577200Y-195942914D01*
X199862914Y-196085771D01*
X201077200Y-195585771D02*
X201362914Y-196585771D01*
X201648628Y-195871485D01*
X201934342Y-196585771D01*
X202220057Y-195585771D01*
X204648628Y-195085771D02*
X203934342Y-195085771D01*
X203862914Y-195800057D01*
X203934342Y-195728628D01*
X204077200Y-195657200D01*
X204434342Y-195657200D01*
X204577200Y-195728628D01*
X204648628Y-195800057D01*
X204720057Y-195942914D01*
X204720057Y-196300057D01*
X204648628Y-196442914D01*
X204577200Y-196514342D01*
X204434342Y-196585771D01*
X204077200Y-196585771D01*
X203934342Y-196514342D01*
X203862914Y-196442914D01*
X205362914Y-196442914D02*
X205434342Y-196514342D01*
X205362914Y-196585771D01*
X205291485Y-196514342D01*
X205362914Y-196442914D01*
X205362914Y-196585771D01*
X206862914Y-196585771D02*
X206005771Y-196585771D01*
X206434342Y-196585771D02*
X206434342Y-195085771D01*
X206291485Y-195300057D01*
X206148628Y-195442914D01*
X206005771Y-195514342D01*
X207505771Y-196442914D02*
X207577200Y-196514342D01*
X207505771Y-196585771D01*
X207434342Y-196514342D01*
X207505771Y-196442914D01*
X207505771Y-196585771D01*
X208934342Y-195085771D02*
X208220057Y-195085771D01*
X208148628Y-195800057D01*
X208220057Y-195728628D01*
X208362914Y-195657200D01*
X208720057Y-195657200D01*
X208862914Y-195728628D01*
X208934342Y-195800057D01*
X209005771Y-195942914D01*
X209005771Y-196300057D01*
X208934342Y-196442914D01*
X208862914Y-196514342D01*
X208720057Y-196585771D01*
X208362914Y-196585771D01*
X208220057Y-196514342D01*
X208148628Y-196442914D01*
D10*
D11*
X177002200Y-191507200D02*
X285002200Y-191507200D01*
D10*
D12*
X264411485Y-193785771D02*
X263911485Y-193071485D01*
X263554342Y-193785771D02*
X263554342Y-192285771D01*
X264125771Y-192285771D01*
X264268628Y-192357200D01*
X264340057Y-192428628D01*
X264411485Y-192571485D01*
X264411485Y-192785771D01*
X264340057Y-192928628D01*
X264268628Y-193000057D01*
X264125771Y-193071485D01*
X263554342Y-193071485D01*
X265625771Y-193714342D02*
X265482914Y-193785771D01*
X265197200Y-193785771D01*
X265054342Y-193714342D01*
X264982914Y-193571485D01*
X264982914Y-193000057D01*
X265054342Y-192857200D01*
X265197200Y-192785771D01*
X265482914Y-192785771D01*
X265625771Y-192857200D01*
X265697200Y-193000057D01*
X265697200Y-193142914D01*
X264982914Y-193285771D01*
X266197200Y-192785771D02*
X266554342Y-193785771D01*
X266911485Y-192785771D01*
X267482914Y-193642914D02*
X267554342Y-193714342D01*
X267482914Y-193785771D01*
X267411485Y-193714342D01*
X267482914Y-193642914D01*
X267482914Y-193785771D01*
X267482914Y-192857200D02*
X267554342Y-192928628D01*
X267482914Y-193000057D01*
X267411485Y-192928628D01*
X267482914Y-192857200D01*
X267482914Y-193000057D01*
D10*
D11*
X178362914Y-193714342D02*
X178577200Y-193785771D01*
X178934342Y-193785771D01*
X179077200Y-193714342D01*
X179148628Y-193642914D01*
X179220057Y-193500057D01*
X179220057Y-193357200D01*
X179148628Y-193214342D01*
X179077200Y-193142914D01*
X178934342Y-193071485D01*
X178648628Y-193000057D01*
X178505771Y-192928628D01*
X178434342Y-192857200D01*
X178362914Y-192714342D01*
X178362914Y-192571485D01*
X178434342Y-192428628D01*
X178505771Y-192357200D01*
X178648628Y-192285771D01*
X179005771Y-192285771D01*
X179220057Y-192357200D01*
X179862914Y-193785771D02*
X179862914Y-192785771D01*
X179862914Y-192285771D02*
X179791485Y-192357200D01*
X179862914Y-192428628D01*
X179934342Y-192357200D01*
X179862914Y-192285771D01*
X179862914Y-192428628D01*
X180434342Y-192785771D02*
X181220057Y-192785771D01*
X180434342Y-193785771D01*
X181220057Y-193785771D01*
X182362914Y-193714342D02*
X182220057Y-193785771D01*
X181934342Y-193785771D01*
X181791485Y-193714342D01*
X181720057Y-193571485D01*
X181720057Y-193000057D01*
X181791485Y-192857200D01*
X181934342Y-192785771D01*
X182220057Y-192785771D01*
X182362914Y-192857200D01*
X182434342Y-193000057D01*
X182434342Y-193142914D01*
X181720057Y-193285771D01*
X183077200Y-193642914D02*
X183148628Y-193714342D01*
X183077200Y-193785771D01*
X183005771Y-193714342D01*
X183077200Y-193642914D01*
X183077200Y-193785771D01*
X183077200Y-192857200D02*
X183148628Y-192928628D01*
X183077200Y-193000057D01*
X183005771Y-192928628D01*
X183077200Y-192857200D01*
X183077200Y-193000057D01*
X184862914Y-193357200D02*
X185577200Y-193357200D01*
X184720057Y-193785771D02*
X185220057Y-192285771D01*
X185720057Y-193785771D01*
X186862914Y-192785771D02*
X186862914Y-193785771D01*
X186505771Y-192214342D02*
X186148628Y-193285771D01*
X187077200Y-193285771D01*
D10*
D11*
X263434342Y-196585771D02*
X263434342Y-195085771D01*
X264791485Y-196585771D02*
X264791485Y-195085771D01*
X264791485Y-196514342D02*
X264648628Y-196585771D01*
X264362914Y-196585771D01*
X264220057Y-196514342D01*
X264148628Y-196442914D01*
X264077200Y-196300057D01*
X264077200Y-195871485D01*
X264148628Y-195728628D01*
X264220057Y-195657200D01*
X264362914Y-195585771D01*
X264648628Y-195585771D01*
X264791485Y-195657200D01*
X265505771Y-196442914D02*
X265577200Y-196514342D01*
X265505771Y-196585771D01*
X265434342Y-196514342D01*
X265505771Y-196442914D01*
X265505771Y-196585771D01*
X265505771Y-195657200D02*
X265577200Y-195728628D01*
X265505771Y-195800057D01*
X265434342Y-195728628D01*
X265505771Y-195657200D01*
X265505771Y-195800057D01*
X268148628Y-196585771D02*
X267291485Y-196585771D01*
X267720057Y-196585771D02*
X267720057Y-195085771D01*
X267577200Y-195300057D01*
X267434342Y-195442914D01*
X267291485Y-195514342D01*
X269862914Y-195014342D02*
X268577200Y-196942914D01*
X271148628Y-196585771D02*
X270291485Y-196585771D01*
X270720057Y-196585771D02*
X270720057Y-195085771D01*
X270577200Y-195300057D01*
X270434342Y-195442914D01*
X270291485Y-195514342D01*
D10*
D11*
X177002200Y-187507200D02*
X285002200Y-187507200D01*
D10*
D13*
X178714580Y-188211961D02*
X179857438Y-188211961D01*
X179036009Y-190211961D02*
X179286009Y-188211961D01*
X180274104Y-190211961D02*
X180440771Y-188878628D01*
X180524104Y-188211961D02*
X180416961Y-188307200D01*
X180500295Y-188402438D01*
X180607438Y-188307200D01*
X180524104Y-188211961D01*
X180500295Y-188402438D01*
X181107438Y-188878628D02*
X181869342Y-188878628D01*
X181476485Y-188211961D02*
X181262200Y-189926247D01*
X181333628Y-190116723D01*
X181512200Y-190211961D01*
X181702676Y-190211961D01*
X182655057Y-190211961D02*
X182476485Y-190116723D01*
X182405057Y-189926247D01*
X182619342Y-188211961D01*
X184190771Y-190116723D02*
X183988390Y-190211961D01*
X183607438Y-190211961D01*
X183428866Y-190116723D01*
X183357438Y-189926247D01*
X183452676Y-189164342D01*
X183571723Y-188973866D01*
X183774104Y-188878628D01*
X184155057Y-188878628D01*
X184333628Y-188973866D01*
X184405057Y-189164342D01*
X184381247Y-189354819D01*
X183405057Y-189545295D01*
X185155057Y-190021485D02*
X185238390Y-190116723D01*
X185131247Y-190211961D01*
X185047914Y-190116723D01*
X185155057Y-190021485D01*
X185131247Y-190211961D01*
X185286009Y-188973866D02*
X185369342Y-189069104D01*
X185262200Y-189164342D01*
X185178866Y-189069104D01*
X185286009Y-188973866D01*
X185262200Y-189164342D01*
D10*
D11*
X178934342Y-185600057D02*
X178434342Y-185600057D01*
X178434342Y-186385771D02*
X178434342Y-184885771D01*
X179148628Y-184885771D01*
X179720057Y-186385771D02*
X179720057Y-185385771D01*
X179720057Y-184885771D02*
X179648628Y-184957200D01*
X179720057Y-185028628D01*
X179791485Y-184957200D01*
X179720057Y-184885771D01*
X179720057Y-185028628D01*
X180648628Y-186385771D02*
X180505771Y-186314342D01*
X180434342Y-186171485D01*
X180434342Y-184885771D01*
X181791485Y-186314342D02*
X181648628Y-186385771D01*
X181362914Y-186385771D01*
X181220057Y-186314342D01*
X181148628Y-186171485D01*
X181148628Y-185600057D01*
X181220057Y-185457200D01*
X181362914Y-185385771D01*
X181648628Y-185385771D01*
X181791485Y-185457200D01*
X181862914Y-185600057D01*
X181862914Y-185742914D01*
X181148628Y-185885771D01*
X182505771Y-186242914D02*
X182577200Y-186314342D01*
X182505771Y-186385771D01*
X182434342Y-186314342D01*
X182505771Y-186242914D01*
X182505771Y-186385771D01*
X182505771Y-185457200D02*
X182577200Y-185528628D01*
X182505771Y-185600057D01*
X182434342Y-185528628D01*
X182505771Y-185457200D01*
X182505771Y-185600057D01*
X185005771Y-186385771D02*
X185005771Y-184885771D01*
X185005771Y-186314342D02*
X184862914Y-186385771D01*
X184577200Y-186385771D01*
X184434342Y-186314342D01*
X184362914Y-186242914D01*
X184291485Y-186100057D01*
X184291485Y-185671485D01*
X184362914Y-185528628D01*
X184434342Y-185457200D01*
X184577200Y-185385771D01*
X184862914Y-185385771D01*
X185005771Y-185457200D01*
X186291485Y-186314342D02*
X186148628Y-186385771D01*
X185862914Y-186385771D01*
X185720057Y-186314342D01*
X185648628Y-186171485D01*
X185648628Y-185600057D01*
X185720057Y-185457200D01*
X185862914Y-185385771D01*
X186148628Y-185385771D01*
X186291485Y-185457200D01*
X186362914Y-185600057D01*
X186362914Y-185742914D01*
X185648628Y-185885771D01*
X187005771Y-186385771D02*
X187005771Y-185385771D01*
X187005771Y-185671485D02*
X187077200Y-185528628D01*
X187148628Y-185457200D01*
X187291485Y-185385771D01*
X187434342Y-185385771D01*
X187791485Y-185385771D02*
X188148628Y-186385771D01*
X188505771Y-185385771D01*
X189648628Y-186314342D02*
X189505771Y-186385771D01*
X189220057Y-186385771D01*
X189077200Y-186314342D01*
X189005771Y-186171485D01*
X189005771Y-185600057D01*
X189077200Y-185457200D01*
X189220057Y-185385771D01*
X189505771Y-185385771D01*
X189648628Y-185457200D01*
X189720057Y-185600057D01*
X189720057Y-185742914D01*
X189005771Y-185885771D01*
X190362914Y-186385771D02*
X190362914Y-185385771D01*
X190362914Y-185671485D02*
X190434342Y-185528628D01*
X190505771Y-185457200D01*
X190648628Y-185385771D01*
X190791485Y-185385771D01*
X191291485Y-186385771D02*
X191291485Y-184885771D01*
X191291485Y-185457200D02*
X191434342Y-185385771D01*
X191720057Y-185385771D01*
X191862914Y-185457200D01*
X191934342Y-185528628D01*
X192005771Y-185671485D01*
X192005771Y-186100057D01*
X191934342Y-186242914D01*
X191862914Y-186314342D01*
X191720057Y-186385771D01*
X191434342Y-186385771D01*
X191291485Y-186314342D01*
X192648628Y-186385771D02*
X192648628Y-185385771D01*
X192648628Y-184885771D02*
X192577200Y-184957200D01*
X192648628Y-185028628D01*
X192720057Y-184957200D01*
X192648628Y-184885771D01*
X192648628Y-185028628D01*
X193362914Y-185385771D02*
X193362914Y-186385771D01*
X193362914Y-185528628D02*
X193434342Y-185457200D01*
X193577200Y-185385771D01*
X193791485Y-185385771D01*
X193934342Y-185457200D01*
X194005771Y-185600057D01*
X194005771Y-186385771D01*
X195362914Y-186385771D02*
X195362914Y-184885771D01*
X195362914Y-186314342D02*
X195220057Y-186385771D01*
X194934342Y-186385771D01*
X194791485Y-186314342D01*
X194720057Y-186242914D01*
X194648628Y-186100057D01*
X194648628Y-185671485D01*
X194720057Y-185528628D01*
X194791485Y-185457200D01*
X194934342Y-185385771D01*
X195220057Y-185385771D01*
X195362914Y-185457200D01*
X196648628Y-186314342D02*
X196505771Y-186385771D01*
X196220057Y-186385771D01*
X196077200Y-186314342D01*
X196005771Y-186171485D01*
X196005771Y-185600057D01*
X196077200Y-185457200D01*
X196220057Y-185385771D01*
X196505771Y-185385771D01*
X196648628Y-185457200D01*
X196720057Y-185600057D01*
X196720057Y-185742914D01*
X196005771Y-185885771D01*
X197362914Y-186385771D02*
X197362914Y-185385771D01*
X197362914Y-185671485D02*
X197434342Y-185528628D01*
X197505771Y-185457200D01*
X197648628Y-185385771D01*
X197791485Y-185385771D01*
X198291485Y-186242914D02*
X198362914Y-186314342D01*
X198291485Y-186385771D01*
X198220057Y-186314342D01*
X198291485Y-186242914D01*
X198291485Y-186385771D01*
X199005771Y-186385771D02*
X199005771Y-184885771D01*
X199148628Y-185814342D02*
X199577200Y-186385771D01*
X199577200Y-185385771D02*
X199005771Y-185957200D01*
X200220057Y-186385771D02*
X200220057Y-185385771D01*
X200220057Y-184885771D02*
X200148628Y-184957200D01*
X200220057Y-185028628D01*
X200291485Y-184957200D01*
X200220057Y-184885771D01*
X200220057Y-185028628D01*
X201577200Y-186314342D02*
X201434342Y-186385771D01*
X201148628Y-186385771D01*
X201005771Y-186314342D01*
X200934342Y-186242914D01*
X200862914Y-186100057D01*
X200862914Y-185671485D01*
X200934342Y-185528628D01*
X201005771Y-185457200D01*
X201148628Y-185385771D01*
X201434342Y-185385771D01*
X201577200Y-185457200D01*
X202862914Y-186385771D02*
X202862914Y-185600057D01*
X202791485Y-185457200D01*
X202648628Y-185385771D01*
X202362914Y-185385771D01*
X202220057Y-185457200D01*
X202862914Y-186314342D02*
X202720057Y-186385771D01*
X202362914Y-186385771D01*
X202220057Y-186314342D01*
X202148628Y-186171485D01*
X202148628Y-186028628D01*
X202220057Y-185885771D01*
X202362914Y-185814342D01*
X202720057Y-185814342D01*
X202862914Y-185742914D01*
X204220057Y-186385771D02*
X204220057Y-184885771D01*
X204220057Y-186314342D02*
X204077200Y-186385771D01*
X203791485Y-186385771D01*
X203648628Y-186314342D01*
X203577200Y-186242914D01*
X203505771Y-186100057D01*
X203505771Y-185671485D01*
X203577200Y-185528628D01*
X203648628Y-185457200D01*
X203791485Y-185385771D01*
X204077200Y-185385771D01*
X204220057Y-185457200D01*
X204577200Y-186528628D02*
X205720057Y-186528628D01*
X206077200Y-185385771D02*
X206077200Y-186885771D01*
X206077200Y-185457200D02*
X206220057Y-185385771D01*
X206505771Y-185385771D01*
X206648628Y-185457200D01*
X206720057Y-185528628D01*
X206791485Y-185671485D01*
X206791485Y-186100057D01*
X206720057Y-186242914D01*
X206648628Y-186314342D01*
X206505771Y-186385771D01*
X206220057Y-186385771D01*
X206077200Y-186314342D01*
X208077200Y-186314342D02*
X207934342Y-186385771D01*
X207648628Y-186385771D01*
X207505771Y-186314342D01*
X207434342Y-186242914D01*
X207362914Y-186100057D01*
X207362914Y-185671485D01*
X207434342Y-185528628D01*
X207505771Y-185457200D01*
X207648628Y-185385771D01*
X207934342Y-185385771D01*
X208077200Y-185457200D01*
X208720057Y-186385771D02*
X208720057Y-184885771D01*
X208720057Y-185457200D02*
X208862914Y-185385771D01*
X209148628Y-185385771D01*
X209291485Y-185457200D01*
X209362914Y-185528628D01*
X209434342Y-185671485D01*
X209434342Y-186100057D01*
X209362914Y-186242914D01*
X209291485Y-186314342D01*
X209148628Y-186385771D01*
X208862914Y-186385771D01*
X208720057Y-186314342D01*
D10*
D11*
X177002200Y-181507200D02*
X285002200Y-181507200D01*
D10*
D11*
X178362914Y-183614342D02*
X178577200Y-183685771D01*
X178934342Y-183685771D01*
X179077200Y-183614342D01*
X179148628Y-183542914D01*
X179220057Y-183400057D01*
X179220057Y-183257200D01*
X179148628Y-183114342D01*
X179077200Y-183042914D01*
X178934342Y-182971485D01*
X178648628Y-182900057D01*
X178505771Y-182828628D01*
X178434342Y-182757200D01*
X178362914Y-182614342D01*
X178362914Y-182471485D01*
X178434342Y-182328628D01*
X178505771Y-182257200D01*
X178648628Y-182185771D01*
X179005771Y-182185771D01*
X179220057Y-182257200D01*
X179862914Y-183685771D02*
X179862914Y-182185771D01*
X180505771Y-183685771D02*
X180505771Y-182900057D01*
X180434342Y-182757200D01*
X180291485Y-182685771D01*
X180077200Y-182685771D01*
X179934342Y-182757200D01*
X179862914Y-182828628D01*
X181791485Y-183614342D02*
X181648628Y-183685771D01*
X181362914Y-183685771D01*
X181220057Y-183614342D01*
X181148628Y-183471485D01*
X181148628Y-182900057D01*
X181220057Y-182757200D01*
X181362914Y-182685771D01*
X181648628Y-182685771D01*
X181791485Y-182757200D01*
X181862914Y-182900057D01*
X181862914Y-183042914D01*
X181148628Y-183185771D01*
X183077200Y-183614342D02*
X182934342Y-183685771D01*
X182648628Y-183685771D01*
X182505771Y-183614342D01*
X182434342Y-183471485D01*
X182434342Y-182900057D01*
X182505771Y-182757200D01*
X182648628Y-182685771D01*
X182934342Y-182685771D01*
X183077200Y-182757200D01*
X183148628Y-182900057D01*
X183148628Y-183042914D01*
X182434342Y-183185771D01*
X183577200Y-182685771D02*
X184148628Y-182685771D01*
X183791485Y-182185771D02*
X183791485Y-183471485D01*
X183862914Y-183614342D01*
X184005771Y-183685771D01*
X184148628Y-183685771D01*
X184648628Y-183542914D02*
X184720057Y-183614342D01*
X184648628Y-183685771D01*
X184577200Y-183614342D01*
X184648628Y-183542914D01*
X184648628Y-183685771D01*
X184648628Y-182757200D02*
X184720057Y-182828628D01*
X184648628Y-182900057D01*
X184577200Y-182828628D01*
X184648628Y-182757200D01*
X184648628Y-182900057D01*
D10*
D11*
X197002200Y-191507200D02*
X197002200Y-194507200D01*
D10*
D11*
X261002200Y-191507200D02*
X261002200Y-198007200D01*
D14*
X97790000Y-134620000D02*
X97790000Y-137160000D01*
X107950000Y-134620000D02*
X97790000Y-134620000D01*
X107950000Y-137160000D02*
X107950000Y-134620000D01*
X97790000Y-137160000D02*
X107950000Y-137160000D01*
X75990000Y-139490000D02*
X74930000Y-139490000D01*
X75990000Y-138430000D02*
X75990000Y-139490000D01*
X75990000Y-137430000D02*
X73870000Y-137430000D01*
X73870000Y-137430000D02*
X73870000Y-133370000D01*
X75990000Y-137430000D02*
X75990000Y-133370000D01*
X75990000Y-133370000D02*
X73870000Y-133370000D01*
X98760000Y-133710000D02*
X99360000Y-133710000D01*
X99060000Y-133210000D02*
X98760000Y-133710000D01*
X99360000Y-133710000D02*
X99060000Y-133210000D01*
X97570000Y-132670000D02*
X108050000Y-132670000D01*
X108050000Y-134670000D02*
X108050000Y-132670000D01*
X109660000Y-134670000D02*
X108050000Y-134670000D01*
X97570000Y-134670000D02*
X97570000Y-132670000D01*
X95960000Y-134670000D02*
X97570000Y-134670000D01*
X110270000Y-127560000D02*
X110270000Y-134060000D01*
X95350000Y-127560000D02*
X95350000Y-134060000D01*
X95960000Y-126950000D02*
X109660000Y-126950000D01*
X109660000Y-134670000D02*
G75*
G03X110270000Y-134060000I0J610000D01*
G01*
X95350000Y-134060000D02*
G75*
G03X95960000Y-134670000I610000J0D01*
G01*
X110270000Y-127560000D02*
G75*
G03X109660000Y-126950000I-610000J0D01*
G01*
X95960000Y-126950000D02*
G75*
G03X95350000Y-127560000I0J-610000D01*
G01*
X79230000Y-164580000D02*
X79230000Y-168020000D01*
X79230000Y-168020000D02*
X88470000Y-168020000D01*
X88470000Y-168020000D02*
X88470000Y-164580000D01*
X88470000Y-164580000D02*
X79230000Y-164580000D01*
X78540000Y-166300000D02*
X79230000Y-166300000D01*
X89160000Y-166300000D02*
X88470000Y-166300000D01*
X79230000Y-160830000D02*
X79230000Y-164270000D01*
X79230000Y-164270000D02*
X88470000Y-164270000D01*
X88470000Y-164270000D02*
X88470000Y-160830000D01*
X88470000Y-160830000D02*
X79230000Y-160830000D01*
X78540000Y-162550000D02*
X79230000Y-162550000D01*
X89160000Y-162550000D02*
X88470000Y-162550000D01*
X79230000Y-157080000D02*
X79230000Y-160520000D01*
X79230000Y-160520000D02*
X88470000Y-160520000D01*
X88470000Y-160520000D02*
X88470000Y-157080000D01*
X88470000Y-157080000D02*
X79230000Y-157080000D01*
X78540000Y-158800000D02*
X79230000Y-158800000D01*
X89160000Y-158800000D02*
X88470000Y-158800000D01*
X79230000Y-153330000D02*
X79230000Y-156770000D01*
X79230000Y-156770000D02*
X88470000Y-156770000D01*
X88470000Y-156770000D02*
X88470000Y-153330000D01*
X88470000Y-153330000D02*
X79230000Y-153330000D01*
X78540000Y-155050000D02*
X79230000Y-155050000D01*
X89160000Y-155050000D02*
X88470000Y-155050000D01*
X79230000Y-149580000D02*
X79230000Y-153020000D01*
X79230000Y-153020000D02*
X88470000Y-153020000D01*
X88470000Y-153020000D02*
X88470000Y-149580000D01*
X88470000Y-149580000D02*
X79230000Y-149580000D01*
X78540000Y-151300000D02*
X79230000Y-151300000D01*
X89160000Y-151300000D02*
X88470000Y-151300000D01*
X79230000Y-145830000D02*
X79230000Y-149270000D01*
X79230000Y-149270000D02*
X88470000Y-149270000D01*
X88470000Y-149270000D02*
X88470000Y-145830000D01*
X88470000Y-145830000D02*
X79230000Y-145830000D01*
X78540000Y-147550000D02*
X79230000Y-147550000D01*
X89160000Y-147550000D02*
X88470000Y-147550000D01*
X89160000Y-143800000D02*
X88470000Y-143800000D01*
X78540000Y-143800000D02*
X79230000Y-143800000D01*
X88470000Y-142080000D02*
X79230000Y-142080000D01*
X88470000Y-145520000D02*
X88470000Y-142080000D01*
X79230000Y-145520000D02*
X88470000Y-145520000D01*
X79230000Y-142080000D02*
X79230000Y-145520000D01*
X83700000Y-136800000D02*
X88100000Y-136800000D01*
X88100000Y-136800000D02*
X88100000Y-141200000D01*
X88100000Y-141200000D02*
X83700000Y-141200000D01*
X83700000Y-141200000D02*
X83700000Y-136800000D01*
X77800000Y-136800000D02*
X82200000Y-136800000D01*
X82200000Y-136800000D02*
X82200000Y-141200000D01*
X82200000Y-141200000D02*
X77800000Y-141200000D01*
X77800000Y-141200000D02*
X77800000Y-136800000D01*
X92040000Y-72060000D02*
X74000000Y-72060000D01*
X92040000Y-115500000D02*
X92040000Y-72060000D01*
X74000000Y-115500000D02*
X92040000Y-115500000D01*
X76670000Y-112830000D02*
X74000000Y-112830000D01*
X76670000Y-77270000D02*
X76670000Y-112830000D01*
X76670000Y-77270000D02*
X74000000Y-77270000D01*
X89370000Y-112830000D02*
X92040000Y-112830000D01*
X89370000Y-74730000D02*
X89370000Y-112830000D01*
X89370000Y-74730000D02*
X92040000Y-74730000D01*
X74000000Y-72060000D02*
X74000000Y-74730000D01*
X74000000Y-77270000D02*
X74000000Y-115500000D01*
X76670000Y-74730000D02*
X74000000Y-74730000D01*
X76670000Y-77270000D02*
X76670000Y-74730000D01*
X107510000Y-79190000D02*
X98790000Y-79190000D01*
X98790000Y-79190000D02*
X98790000Y-89410000D01*
X98790000Y-89410000D02*
X107510000Y-89410000D01*
X107510000Y-89410000D02*
X107510000Y-79190000D01*
X103700000Y-78990000D02*
X103400000Y-78390000D01*
X103400000Y-78390000D02*
X104000000Y-78390000D01*
X104000000Y-78390000D02*
X103700000Y-78990000D01*
X104000000Y-66390000D02*
X103700000Y-66990000D01*
X103400000Y-66390000D02*
X104000000Y-66390000D01*
X103700000Y-66990000D02*
X103400000Y-66390000D01*
X107510000Y-77410000D02*
X107510000Y-67190000D01*
X98790000Y-77410000D02*
X107510000Y-77410000D01*
X98790000Y-67190000D02*
X98790000Y-77410000D01*
X107510000Y-67190000D02*
X98790000Y-67190000D01*
X97685000Y-65805000D02*
X97685000Y-66500000D01*
X97000000Y-65805000D02*
X97685000Y-65805000D01*
X96315000Y-67108276D02*
X96315000Y-67195000D01*
X96315000Y-65805000D02*
X96315000Y-65891724D01*
X96315000Y-67195000D02*
X81440000Y-67195000D01*
X96315000Y-65805000D02*
X81440000Y-65805000D01*
X81440000Y-66894493D02*
X81440000Y-67195000D01*
X81440000Y-65805000D02*
X81440000Y-66105507D01*
X78885000Y-69405000D02*
X78885000Y-70100000D01*
X78200000Y-69405000D02*
X78885000Y-69405000D01*
X77515000Y-70708276D02*
X77515000Y-70795000D01*
X77515000Y-69405000D02*
X77515000Y-69491724D01*
X77515000Y-70795000D02*
X76640000Y-70795000D01*
X77515000Y-69405000D02*
X76640000Y-69405000D01*
X76640000Y-70494493D02*
X76640000Y-70795000D01*
X76640000Y-69405000D02*
X76640000Y-69705507D01*
X96030000Y-170020000D02*
X96030000Y-168910000D01*
X96790000Y-170020000D02*
X96030000Y-170020000D01*
X97550000Y-168346529D02*
X97550000Y-167800000D01*
X97550000Y-170020000D02*
X97550000Y-169473471D01*
X97550000Y-167800000D02*
X102565000Y-167800000D01*
X97550000Y-170020000D02*
X102565000Y-170020000D01*
X102565000Y-168602470D02*
X102565000Y-167800000D01*
X102565000Y-170020000D02*
X102565000Y-169217530D01*
X101370000Y-152610000D02*
X96290000Y-152610000D01*
X96290000Y-152610000D02*
X96290000Y-164040000D01*
X96290000Y-164040000D02*
X97560000Y-165310000D01*
X97560000Y-165310000D02*
X101370000Y-165310000D01*
X101370000Y-165310000D02*
X101370000Y-152610000D01*
D11*
X73596666Y-140942380D02*
X73263333Y-140466190D01*
X73025238Y-140942380D02*
X73025238Y-139942380D01*
X73406190Y-139942380D01*
X73501428Y-139990000D01*
X73549047Y-140037619D01*
X73596666Y-140132857D01*
X73596666Y-140275714D01*
X73549047Y-140370952D01*
X73501428Y-140418571D01*
X73406190Y-140466190D01*
X73025238Y-140466190D01*
X74025238Y-140418571D02*
X74358571Y-140418571D01*
X74501428Y-140942380D02*
X74025238Y-140942380D01*
X74025238Y-139942380D01*
X74501428Y-139942380D01*
X75263333Y-140418571D02*
X74930000Y-140418571D01*
X74930000Y-140942380D02*
X74930000Y-139942380D01*
X75406190Y-139942380D01*
X75930000Y-139942380D02*
X75930000Y-140180476D01*
X75691904Y-140085238D02*
X75930000Y-140180476D01*
X76168095Y-140085238D01*
X75787142Y-140370952D02*
X75930000Y-140180476D01*
X76072857Y-140370952D01*
X76691904Y-139942380D02*
X76691904Y-140180476D01*
X76453809Y-140085238D02*
X76691904Y-140180476D01*
X76930000Y-140085238D01*
X76549047Y-140370952D02*
X76691904Y-140180476D01*
X76834761Y-140370952D01*
X101476666Y-126762380D02*
X101143333Y-126286190D01*
X100905238Y-126762380D02*
X100905238Y-125762380D01*
X101286190Y-125762380D01*
X101381428Y-125810000D01*
X101429047Y-125857619D01*
X101476666Y-125952857D01*
X101476666Y-126095714D01*
X101429047Y-126190952D01*
X101381428Y-126238571D01*
X101286190Y-126286190D01*
X100905238Y-126286190D01*
X101905238Y-126238571D02*
X102238571Y-126238571D01*
X102381428Y-126762380D02*
X101905238Y-126762380D01*
X101905238Y-125762380D01*
X102381428Y-125762380D01*
X103143333Y-126238571D02*
X102810000Y-126238571D01*
X102810000Y-126762380D02*
X102810000Y-125762380D01*
X103286190Y-125762380D01*
X103810000Y-125762380D02*
X103810000Y-126000476D01*
X103571904Y-125905238D02*
X103810000Y-126000476D01*
X104048095Y-125905238D01*
X103667142Y-126190952D02*
X103810000Y-126000476D01*
X103952857Y-126190952D01*
X104571904Y-125762380D02*
X104571904Y-126000476D01*
X104333809Y-125905238D02*
X104571904Y-126000476D01*
X104810000Y-125905238D01*
X104429047Y-126190952D02*
X104571904Y-126000476D01*
X104714761Y-126190952D01*
X82516666Y-164032380D02*
X82183333Y-163556190D01*
X81945238Y-164032380D02*
X81945238Y-163032380D01*
X82326190Y-163032380D01*
X82421428Y-163080000D01*
X82469047Y-163127619D01*
X82516666Y-163222857D01*
X82516666Y-163365714D01*
X82469047Y-163460952D01*
X82421428Y-163508571D01*
X82326190Y-163556190D01*
X81945238Y-163556190D01*
X82945238Y-163508571D02*
X83278571Y-163508571D01*
X83421428Y-164032380D02*
X82945238Y-164032380D01*
X82945238Y-163032380D01*
X83421428Y-163032380D01*
X84183333Y-163508571D02*
X83850000Y-163508571D01*
X83850000Y-164032380D02*
X83850000Y-163032380D01*
X84326190Y-163032380D01*
X84850000Y-163032380D02*
X84850000Y-163270476D01*
X84611904Y-163175238D02*
X84850000Y-163270476D01*
X85088095Y-163175238D01*
X84707142Y-163460952D02*
X84850000Y-163270476D01*
X84992857Y-163460952D01*
X85611904Y-163032380D02*
X85611904Y-163270476D01*
X85373809Y-163175238D02*
X85611904Y-163270476D01*
X85850000Y-163175238D01*
X85469047Y-163460952D02*
X85611904Y-163270476D01*
X85754761Y-163460952D01*
X82516666Y-160282380D02*
X82183333Y-159806190D01*
X81945238Y-160282380D02*
X81945238Y-159282380D01*
X82326190Y-159282380D01*
X82421428Y-159330000D01*
X82469047Y-159377619D01*
X82516666Y-159472857D01*
X82516666Y-159615714D01*
X82469047Y-159710952D01*
X82421428Y-159758571D01*
X82326190Y-159806190D01*
X81945238Y-159806190D01*
X82945238Y-159758571D02*
X83278571Y-159758571D01*
X83421428Y-160282380D02*
X82945238Y-160282380D01*
X82945238Y-159282380D01*
X83421428Y-159282380D01*
X84183333Y-159758571D02*
X83850000Y-159758571D01*
X83850000Y-160282380D02*
X83850000Y-159282380D01*
X84326190Y-159282380D01*
X84850000Y-159282380D02*
X84850000Y-159520476D01*
X84611904Y-159425238D02*
X84850000Y-159520476D01*
X85088095Y-159425238D01*
X84707142Y-159710952D02*
X84850000Y-159520476D01*
X84992857Y-159710952D01*
X85611904Y-159282380D02*
X85611904Y-159520476D01*
X85373809Y-159425238D02*
X85611904Y-159520476D01*
X85850000Y-159425238D01*
X85469047Y-159710952D02*
X85611904Y-159520476D01*
X85754761Y-159710952D01*
X82516666Y-156532380D02*
X82183333Y-156056190D01*
X81945238Y-156532380D02*
X81945238Y-155532380D01*
X82326190Y-155532380D01*
X82421428Y-155580000D01*
X82469047Y-155627619D01*
X82516666Y-155722857D01*
X82516666Y-155865714D01*
X82469047Y-155960952D01*
X82421428Y-156008571D01*
X82326190Y-156056190D01*
X81945238Y-156056190D01*
X82945238Y-156008571D02*
X83278571Y-156008571D01*
X83421428Y-156532380D02*
X82945238Y-156532380D01*
X82945238Y-155532380D01*
X83421428Y-155532380D01*
X84183333Y-156008571D02*
X83850000Y-156008571D01*
X83850000Y-156532380D02*
X83850000Y-155532380D01*
X84326190Y-155532380D01*
X84850000Y-155532380D02*
X84850000Y-155770476D01*
X84611904Y-155675238D02*
X84850000Y-155770476D01*
X85088095Y-155675238D01*
X84707142Y-155960952D02*
X84850000Y-155770476D01*
X84992857Y-155960952D01*
X85611904Y-155532380D02*
X85611904Y-155770476D01*
X85373809Y-155675238D02*
X85611904Y-155770476D01*
X85850000Y-155675238D01*
X85469047Y-155960952D02*
X85611904Y-155770476D01*
X85754761Y-155960952D01*
X82516666Y-152782380D02*
X82183333Y-152306190D01*
X81945238Y-152782380D02*
X81945238Y-151782380D01*
X82326190Y-151782380D01*
X82421428Y-151830000D01*
X82469047Y-151877619D01*
X82516666Y-151972857D01*
X82516666Y-152115714D01*
X82469047Y-152210952D01*
X82421428Y-152258571D01*
X82326190Y-152306190D01*
X81945238Y-152306190D01*
X82945238Y-152258571D02*
X83278571Y-152258571D01*
X83421428Y-152782380D02*
X82945238Y-152782380D01*
X82945238Y-151782380D01*
X83421428Y-151782380D01*
X84183333Y-152258571D02*
X83850000Y-152258571D01*
X83850000Y-152782380D02*
X83850000Y-151782380D01*
X84326190Y-151782380D01*
X84850000Y-151782380D02*
X84850000Y-152020476D01*
X84611904Y-151925238D02*
X84850000Y-152020476D01*
X85088095Y-151925238D01*
X84707142Y-152210952D02*
X84850000Y-152020476D01*
X84992857Y-152210952D01*
X85611904Y-151782380D02*
X85611904Y-152020476D01*
X85373809Y-151925238D02*
X85611904Y-152020476D01*
X85850000Y-151925238D01*
X85469047Y-152210952D02*
X85611904Y-152020476D01*
X85754761Y-152210952D01*
X82516666Y-149032380D02*
X82183333Y-148556190D01*
X81945238Y-149032380D02*
X81945238Y-148032380D01*
X82326190Y-148032380D01*
X82421428Y-148080000D01*
X82469047Y-148127619D01*
X82516666Y-148222857D01*
X82516666Y-148365714D01*
X82469047Y-148460952D01*
X82421428Y-148508571D01*
X82326190Y-148556190D01*
X81945238Y-148556190D01*
X82945238Y-148508571D02*
X83278571Y-148508571D01*
X83421428Y-149032380D02*
X82945238Y-149032380D01*
X82945238Y-148032380D01*
X83421428Y-148032380D01*
X84183333Y-148508571D02*
X83850000Y-148508571D01*
X83850000Y-149032380D02*
X83850000Y-148032380D01*
X84326190Y-148032380D01*
X84850000Y-148032380D02*
X84850000Y-148270476D01*
X84611904Y-148175238D02*
X84850000Y-148270476D01*
X85088095Y-148175238D01*
X84707142Y-148460952D02*
X84850000Y-148270476D01*
X84992857Y-148460952D01*
X85611904Y-148032380D02*
X85611904Y-148270476D01*
X85373809Y-148175238D02*
X85611904Y-148270476D01*
X85850000Y-148175238D01*
X85469047Y-148460952D02*
X85611904Y-148270476D01*
X85754761Y-148460952D01*
X82516666Y-145282380D02*
X82183333Y-144806190D01*
X81945238Y-145282380D02*
X81945238Y-144282380D01*
X82326190Y-144282380D01*
X82421428Y-144330000D01*
X82469047Y-144377619D01*
X82516666Y-144472857D01*
X82516666Y-144615714D01*
X82469047Y-144710952D01*
X82421428Y-144758571D01*
X82326190Y-144806190D01*
X81945238Y-144806190D01*
X82945238Y-144758571D02*
X83278571Y-144758571D01*
X83421428Y-145282380D02*
X82945238Y-145282380D01*
X82945238Y-144282380D01*
X83421428Y-144282380D01*
X84183333Y-144758571D02*
X83850000Y-144758571D01*
X83850000Y-145282380D02*
X83850000Y-144282380D01*
X84326190Y-144282380D01*
X84850000Y-144282380D02*
X84850000Y-144520476D01*
X84611904Y-144425238D02*
X84850000Y-144520476D01*
X85088095Y-144425238D01*
X84707142Y-144710952D02*
X84850000Y-144520476D01*
X84992857Y-144710952D01*
X85611904Y-144282380D02*
X85611904Y-144520476D01*
X85373809Y-144425238D02*
X85611904Y-144520476D01*
X85850000Y-144425238D01*
X85469047Y-144710952D02*
X85611904Y-144520476D01*
X85754761Y-144710952D01*
X82516666Y-141532380D02*
X82183333Y-141056190D01*
X81945238Y-141532380D02*
X81945238Y-140532380D01*
X82326190Y-140532380D01*
X82421428Y-140580000D01*
X82469047Y-140627619D01*
X82516666Y-140722857D01*
X82516666Y-140865714D01*
X82469047Y-140960952D01*
X82421428Y-141008571D01*
X82326190Y-141056190D01*
X81945238Y-141056190D01*
X82945238Y-141008571D02*
X83278571Y-141008571D01*
X83421428Y-141532380D02*
X82945238Y-141532380D01*
X82945238Y-140532380D01*
X83421428Y-140532380D01*
X84183333Y-141008571D02*
X83850000Y-141008571D01*
X83850000Y-141532380D02*
X83850000Y-140532380D01*
X84326190Y-140532380D01*
X84850000Y-140532380D02*
X84850000Y-140770476D01*
X84611904Y-140675238D02*
X84850000Y-140770476D01*
X85088095Y-140675238D01*
X84707142Y-140960952D02*
X84850000Y-140770476D01*
X84992857Y-140960952D01*
X85611904Y-140532380D02*
X85611904Y-140770476D01*
X85373809Y-140675238D02*
X85611904Y-140770476D01*
X85850000Y-140675238D01*
X85469047Y-140960952D02*
X85611904Y-140770476D01*
X85754761Y-140960952D01*
X84566666Y-136554380D02*
X84233333Y-136078190D01*
X83995238Y-136554380D02*
X83995238Y-135554380D01*
X84376190Y-135554380D01*
X84471428Y-135602000D01*
X84519047Y-135649619D01*
X84566666Y-135744857D01*
X84566666Y-135887714D01*
X84519047Y-135982952D01*
X84471428Y-136030571D01*
X84376190Y-136078190D01*
X83995238Y-136078190D01*
X84995238Y-136030571D02*
X85328571Y-136030571D01*
X85471428Y-136554380D02*
X84995238Y-136554380D01*
X84995238Y-135554380D01*
X85471428Y-135554380D01*
X86233333Y-136030571D02*
X85900000Y-136030571D01*
X85900000Y-136554380D02*
X85900000Y-135554380D01*
X86376190Y-135554380D01*
X86900000Y-135554380D02*
X86900000Y-135792476D01*
X86661904Y-135697238D02*
X86900000Y-135792476D01*
X87138095Y-135697238D01*
X86757142Y-135982952D02*
X86900000Y-135792476D01*
X87042857Y-135982952D01*
X87661904Y-135554380D02*
X87661904Y-135792476D01*
X87423809Y-135697238D02*
X87661904Y-135792476D01*
X87900000Y-135697238D01*
X87519047Y-135982952D02*
X87661904Y-135792476D01*
X87804761Y-135982952D01*
X78666666Y-136554380D02*
X78333333Y-136078190D01*
X78095238Y-136554380D02*
X78095238Y-135554380D01*
X78476190Y-135554380D01*
X78571428Y-135602000D01*
X78619047Y-135649619D01*
X78666666Y-135744857D01*
X78666666Y-135887714D01*
X78619047Y-135982952D01*
X78571428Y-136030571D01*
X78476190Y-136078190D01*
X78095238Y-136078190D01*
X79095238Y-136030571D02*
X79428571Y-136030571D01*
X79571428Y-136554380D02*
X79095238Y-136554380D01*
X79095238Y-135554380D01*
X79571428Y-135554380D01*
X80333333Y-136030571D02*
X80000000Y-136030571D01*
X80000000Y-136554380D02*
X80000000Y-135554380D01*
X80476190Y-135554380D01*
X81000000Y-135554380D02*
X81000000Y-135792476D01*
X80761904Y-135697238D02*
X81000000Y-135792476D01*
X81238095Y-135697238D01*
X80857142Y-135982952D02*
X81000000Y-135792476D01*
X81142857Y-135982952D01*
X81761904Y-135554380D02*
X81761904Y-135792476D01*
X81523809Y-135697238D02*
X81761904Y-135792476D01*
X82000000Y-135697238D01*
X81619047Y-135982952D02*
X81761904Y-135792476D01*
X81904761Y-135982952D01*
X81686666Y-71372380D02*
X81353333Y-70896190D01*
X81115238Y-71372380D02*
X81115238Y-70372380D01*
X81496190Y-70372380D01*
X81591428Y-70420000D01*
X81639047Y-70467619D01*
X81686666Y-70562857D01*
X81686666Y-70705714D01*
X81639047Y-70800952D01*
X81591428Y-70848571D01*
X81496190Y-70896190D01*
X81115238Y-70896190D01*
X82115238Y-70848571D02*
X82448571Y-70848571D01*
X82591428Y-71372380D02*
X82115238Y-71372380D01*
X82115238Y-70372380D01*
X82591428Y-70372380D01*
X83353333Y-70848571D02*
X83020000Y-70848571D01*
X83020000Y-71372380D02*
X83020000Y-70372380D01*
X83496190Y-70372380D01*
X84020000Y-70372380D02*
X84020000Y-70610476D01*
X83781904Y-70515238D02*
X84020000Y-70610476D01*
X84258095Y-70515238D01*
X83877142Y-70800952D02*
X84020000Y-70610476D01*
X84162857Y-70800952D01*
X84781904Y-70372380D02*
X84781904Y-70610476D01*
X84543809Y-70515238D02*
X84781904Y-70610476D01*
X85020000Y-70515238D01*
X84639047Y-70800952D02*
X84781904Y-70610476D01*
X84924761Y-70800952D01*
X109052380Y-85633333D02*
X108576190Y-85966666D01*
X109052380Y-86204761D02*
X108052380Y-86204761D01*
X108052380Y-85823809D01*
X108100000Y-85728571D01*
X108147619Y-85680952D01*
X108242857Y-85633333D01*
X108385714Y-85633333D01*
X108480952Y-85680952D01*
X108528571Y-85728571D01*
X108576190Y-85823809D01*
X108576190Y-86204761D01*
X108528571Y-85204761D02*
X108528571Y-84871428D01*
X109052380Y-84728571D02*
X109052380Y-85204761D01*
X108052380Y-85204761D01*
X108052380Y-84728571D01*
X108528571Y-83966666D02*
X108528571Y-84300000D01*
X109052380Y-84300000D02*
X108052380Y-84300000D01*
X108052380Y-83823809D01*
X108052380Y-83300000D02*
X108290476Y-83300000D01*
X108195238Y-83538095D02*
X108290476Y-83300000D01*
X108195238Y-83061904D01*
X108480952Y-83442857D02*
X108290476Y-83300000D01*
X108480952Y-83157142D01*
X108052380Y-82538095D02*
X108290476Y-82538095D01*
X108195238Y-82776190D02*
X108290476Y-82538095D01*
X108195238Y-82300000D01*
X108480952Y-82680952D02*
X108290476Y-82538095D01*
X108480952Y-82395238D01*
X109052380Y-73633333D02*
X108576190Y-73966666D01*
X109052380Y-74204761D02*
X108052380Y-74204761D01*
X108052380Y-73823809D01*
X108100000Y-73728571D01*
X108147619Y-73680952D01*
X108242857Y-73633333D01*
X108385714Y-73633333D01*
X108480952Y-73680952D01*
X108528571Y-73728571D01*
X108576190Y-73823809D01*
X108576190Y-74204761D01*
X108528571Y-73204761D02*
X108528571Y-72871428D01*
X109052380Y-72728571D02*
X109052380Y-73204761D01*
X108052380Y-73204761D01*
X108052380Y-72728571D01*
X108528571Y-71966666D02*
X108528571Y-72300000D01*
X109052380Y-72300000D02*
X108052380Y-72300000D01*
X108052380Y-71823809D01*
X108052380Y-71300000D02*
X108290476Y-71300000D01*
X108195238Y-71538095D02*
X108290476Y-71300000D01*
X108195238Y-71061904D01*
X108480952Y-71442857D02*
X108290476Y-71300000D01*
X108480952Y-71157142D01*
X108052380Y-70538095D02*
X108290476Y-70538095D01*
X108195238Y-70776190D02*
X108290476Y-70538095D01*
X108195238Y-70300000D01*
X108480952Y-70680952D02*
X108290476Y-70538095D01*
X108480952Y-70395238D01*
X99012380Y-67833333D02*
X98536190Y-68166666D01*
X99012380Y-68404761D02*
X98012380Y-68404761D01*
X98012380Y-68023809D01*
X98060000Y-67928571D01*
X98107619Y-67880952D01*
X98202857Y-67833333D01*
X98345714Y-67833333D01*
X98440952Y-67880952D01*
X98488571Y-67928571D01*
X98536190Y-68023809D01*
X98536190Y-68404761D01*
X98488571Y-67404761D02*
X98488571Y-67071428D01*
X99012380Y-66928571D02*
X99012380Y-67404761D01*
X98012380Y-67404761D01*
X98012380Y-66928571D01*
X98488571Y-66166666D02*
X98488571Y-66500000D01*
X99012380Y-66500000D02*
X98012380Y-66500000D01*
X98012380Y-66023809D01*
X98012380Y-65500000D02*
X98250476Y-65500000D01*
X98155238Y-65738095D02*
X98250476Y-65500000D01*
X98155238Y-65261904D01*
X98440952Y-65642857D02*
X98250476Y-65500000D01*
X98440952Y-65357142D01*
X98012380Y-64738095D02*
X98250476Y-64738095D01*
X98155238Y-64976190D02*
X98250476Y-64738095D01*
X98155238Y-64500000D01*
X98440952Y-64880952D02*
X98250476Y-64738095D01*
X98440952Y-64595238D01*
X80212380Y-71433333D02*
X79736190Y-71766666D01*
X80212380Y-72004761D02*
X79212380Y-72004761D01*
X79212380Y-71623809D01*
X79260000Y-71528571D01*
X79307619Y-71480952D01*
X79402857Y-71433333D01*
X79545714Y-71433333D01*
X79640952Y-71480952D01*
X79688571Y-71528571D01*
X79736190Y-71623809D01*
X79736190Y-72004761D01*
X79688571Y-71004761D02*
X79688571Y-70671428D01*
X80212380Y-70528571D02*
X80212380Y-71004761D01*
X79212380Y-71004761D01*
X79212380Y-70528571D01*
X79688571Y-69766666D02*
X79688571Y-70100000D01*
X80212380Y-70100000D02*
X79212380Y-70100000D01*
X79212380Y-69623809D01*
X79212380Y-69100000D02*
X79450476Y-69100000D01*
X79355238Y-69338095D02*
X79450476Y-69100000D01*
X79355238Y-68861904D01*
X79640952Y-69242857D02*
X79450476Y-69100000D01*
X79640952Y-68957142D01*
X79212380Y-68338095D02*
X79450476Y-68338095D01*
X79355238Y-68576190D02*
X79450476Y-68338095D01*
X79355238Y-68100000D01*
X79640952Y-68480952D02*
X79450476Y-68338095D01*
X79640952Y-68195238D01*
X95547380Y-170243333D02*
X95071190Y-170576666D01*
X95547380Y-170814761D02*
X94547380Y-170814761D01*
X94547380Y-170433809D01*
X94595000Y-170338571D01*
X94642619Y-170290952D01*
X94737857Y-170243333D01*
X94880714Y-170243333D01*
X94975952Y-170290952D01*
X95023571Y-170338571D01*
X95071190Y-170433809D01*
X95071190Y-170814761D01*
X95023571Y-169814761D02*
X95023571Y-169481428D01*
X95547380Y-169338571D02*
X95547380Y-169814761D01*
X94547380Y-169814761D01*
X94547380Y-169338571D01*
X95023571Y-168576666D02*
X95023571Y-168910000D01*
X95547380Y-168910000D02*
X94547380Y-168910000D01*
X94547380Y-168433809D01*
X94547380Y-167910000D02*
X94785476Y-167910000D01*
X94690238Y-168148095D02*
X94785476Y-167910000D01*
X94690238Y-167671904D01*
X94975952Y-168052857D02*
X94785476Y-167910000D01*
X94975952Y-167767142D01*
X94547380Y-167148095D02*
X94785476Y-167148095D01*
X94690238Y-167386190D02*
X94785476Y-167148095D01*
X94690238Y-166910000D01*
X94975952Y-167290952D02*
X94785476Y-167148095D01*
X94975952Y-167005238D01*
M02*
