M48
; DRILL file {KiCad 5.1.5} date Fr 29 Nov 2019 13:28:18 CET
; FORMAT={-:-/ absolute / metric / decimal}
; #@! TF.CreationDate,2019-11-29T13:28:18+01:00
; #@! TF.GenerationSoftware,Kicad,Pcbnew,5.1.5
; #@! TF.FileFunction,Plated,1,2,PTH
FMAT,2
METRIC
T1C0.500
T2C0.650
T3C0.762
T4C0.800
T5C1.000
T6C1.700
%
G90
G05
T1
X82.0Y-66.5
X83.0Y-66.5
X84.0Y-66.5
X85.0Y-66.5
X86.0Y-66.5
X87.0Y-66.5
X88.0Y-66.5
X89.0Y-66.5
X90.0Y-66.5
X91.0Y-66.5
X92.0Y-66.5
X93.0Y-66.5
X94.0Y-66.5
X95.0Y-66.5
X96.0Y-66.5
X97.0Y-66.5
X77.2Y-70.1
X78.2Y-70.1
T2
X96.79Y-168.91
X98.06Y-168.91
X99.33Y-168.91
X100.6Y-168.91
X101.87Y-168.91
T3
X97.56Y-155.15
X97.56Y-157.69
X97.56Y-160.23
X97.56Y-162.77
X100.1Y-153.88
X100.1Y-156.42
X100.1Y-158.96
X100.1Y-161.5
T4
X77.5Y-162.55
X90.2Y-162.55
X77.5Y-158.8
X90.2Y-158.8
X77.5Y-151.3
X90.2Y-151.3
X75.4Y-76.0
X75.4Y-78.54
X75.4Y-81.08
X75.4Y-83.62
X75.4Y-86.16
X75.4Y-88.7
X75.4Y-91.24
X75.4Y-93.78
X75.4Y-96.32
X75.4Y-98.86
X75.4Y-101.4
X75.4Y-103.94
X75.4Y-106.48
X75.4Y-109.02
X75.4Y-111.56
X90.64Y-76.0
X90.64Y-78.54
X90.64Y-81.08
X90.64Y-83.62
X90.64Y-86.16
X90.64Y-88.7
X90.64Y-91.24
X90.64Y-93.78
X90.64Y-96.32
X90.64Y-98.86
X90.64Y-101.4
X90.64Y-103.94
X90.64Y-106.48
X90.64Y-109.02
X90.64Y-111.56
X74.93Y-134.43
X74.93Y-136.43
X74.93Y-138.43
X77.5Y-147.55
X90.2Y-147.55
X77.5Y-155.05
X90.2Y-155.05
X77.5Y-143.8
X90.2Y-143.8
X77.5Y-166.3
X90.2Y-166.3
T5
X99.06Y-130.81
X101.56Y-130.81
X104.06Y-130.81
X106.56Y-130.81
T6
X103.7Y-69.8
X103.7Y-74.8
X103.7Y-81.8
X103.7Y-86.8
T0
M30
